{"glyphs":{"0":{"ha":765,"x_min":40,"x_max":745,"o":"m 536 769 l 536 769 q 537 779 538 776 q 535 786 535 781 l 535 786 q 547 790 544 791 q 554 788 550 788 l 554 788 q 565 785 559 784 q 577 784 571 785 l 577 784 q 591 780 585 782 q 603 775 597 777 l 603 775 q 611 775 607 774 q 617 773 614 775 l 617 773 q 632 766 630 767 l 632 766 q 644 756 638 762 q 656 745 649 750 l 656 745 q 674 706 670 728 l 674 706 q 654 712 660 704 q 641 727 648 720 l 641 727 q 622 744 633 737 q 597 756 610 750 l 597 756 q 589 756 593 756 q 580 757 585 756 l 580 757 q 570 760 574 758 q 560 763 565 762 l 560 763 q 547 764 553 764 q 536 769 541 764 z m 741 357 l 744 348 q 745 333 745 341 q 744 317 744 325 l 744 317 q 744 295 744 306 q 743 269 744 283 l 743 269 q 743 242 742 255 q 742 216 744 229 l 742 216 q 736 191 736 200 q 733 173 735 181 l 733 173 q 729 164 731 168 q 727 154 727 159 l 727 154 q 715 133 719 144 q 703 111 711 122 l 703 111 q 693 98 698 104 q 681 86 687 92 l 681 86 q 673 76 676 81 q 663 65 669 70 l 663 65 q 653 57 658 60 q 642 50 647 54 l 642 50 q 623 36 629 41 q 610 27 616 31 l 610 27 q 604 25 607 25 q 598 22 601 24 l 598 22 q 593 18 596 20 q 588 14 590 15 l 588 14 q 565 12 577 11 q 542 11 553 13 l 542 11 q 521 -1 529 8 q 500 -16 512 -11 l 500 -16 q 485 -20 494 -18 q 468 -23 476 -22 l 468 -23 q 452 -24 460 -23 q 436 -25 443 -25 l 436 -25 q 425 -23 430 -25 q 415 -22 420 -22 l 415 -22 q 404 -21 410 -20 q 391 -24 397 -23 l 391 -24 q 381 -23 386 -24 q 371 -22 376 -22 l 371 -22 q 355 -22 363 -22 q 339 -20 347 -22 l 339 -20 q 325 -19 332 -19 q 310 -18 317 -20 l 310 -18 q 303 -17 306 -18 q 295 -15 299 -16 l 295 -15 q 279 -12 286 -13 q 263 -9 271 -11 l 263 -9 q 251 -3 257 -7 q 238 3 244 0 l 238 3 q 225 10 231 6 q 214 18 219 13 l 214 18 q 191 35 197 22 q 177 61 184 48 l 177 61 q 170 72 174 66 q 160 80 165 78 l 160 80 q 154 82 157 82 q 147 83 151 81 l 147 83 q 142 86 145 84 q 136 90 139 88 l 136 90 q 131 94 134 92 q 126 97 128 95 l 126 97 q 118 111 121 102 q 111 127 115 120 l 111 127 q 108 132 110 129 q 104 136 106 134 l 104 136 q 88 200 91 163 l 88 200 q 86 229 86 214 q 85 257 86 243 l 85 257 q 85 263 85 260 q 84 269 84 266 l 84 269 q 92 292 85 282 q 97 318 98 302 l 97 318 q 94 330 97 325 q 88 340 90 334 l 88 340 q 89 354 87 347 q 90 368 90 360 l 90 368 q 89 382 90 374 q 88 395 87 390 l 88 395 q 92 401 89 399 q 96 407 94 402 l 96 407 q 97 427 100 416 q 89 444 94 438 l 89 444 q 82 449 87 446 q 76 456 77 452 l 76 456 q 76 462 75 458 q 77 469 77 465 l 77 469 q 76 476 77 472 q 75 481 75 479 l 75 481 q 78 490 76 486 q 81 499 80 494 l 81 499 q 83 510 83 504 q 85 520 83 515 l 85 520 q 88 531 87 525 q 89 541 88 536 l 89 541 q 92 546 90 543 q 95 552 93 549 l 95 552 q 97 558 96 555 q 99 563 98 560 l 99 563 q 103 577 101 569 q 109 589 105 584 l 109 589 q 114 597 111 593 q 119 604 117 600 l 119 604 q 139 636 129 620 q 162 666 149 652 l 162 666 q 168 674 165 670 q 172 680 170 677 l 172 680 q 179 686 175 683 q 185 691 182 688 l 185 691 q 191 697 188 693 q 197 703 194 700 l 197 703 q 208 711 202 708 q 218 718 213 714 l 218 718 q 229 726 223 722 q 241 732 234 729 l 241 732 q 267 743 253 739 q 295 751 280 746 l 295 751 q 301 753 298 752 q 306 755 303 754 l 306 755 q 313 756 309 756 q 319 756 316 755 l 319 756 q 334 760 327 758 q 349 762 341 762 l 349 762 q 379 766 366 764 q 408 767 392 767 l 408 767 q 422 767 420 766 q 426 767 424 767 l 426 767 q 438 766 431 767 q 449 764 444 764 l 449 764 q 457 764 453 763 q 464 765 461 765 l 464 765 q 491 762 480 761 q 506 760 501 762 l 506 760 q 510 756 509 758 q 513 750 511 753 l 513 750 q 519 744 515 746 q 524 740 522 742 l 524 740 q 544 739 534 736 q 563 741 553 742 l 563 741 q 593 733 580 740 q 620 720 606 726 l 620 720 q 627 710 624 715 q 634 699 629 705 l 634 699 q 639 696 636 697 q 645 692 642 694 l 645 692 q 653 682 651 683 q 655 679 654 681 l 655 679 q 659 673 657 676 q 665 665 661 669 l 665 665 q 670 659 667 661 q 675 653 673 656 l 675 653 q 678 648 677 651 q 681 641 679 644 l 681 641 q 690 630 684 635 q 697 618 695 625 l 697 618 q 700 612 699 615 q 701 605 700 608 l 701 605 q 709 592 705 598 q 715 578 712 586 l 715 578 q 719 570 717 573 q 721 562 720 566 l 721 562 q 723 552 723 557 q 724 541 722 546 l 724 541 q 731 507 727 524 q 734 472 734 490 l 734 472 q 734 466 735 469 q 734 460 733 463 l 734 460 q 736 440 734 449 q 740 420 738 430 l 740 420 q 741 389 742 404 q 741 357 740 373 l 741 357 z m 154 414 l 154 414 q 162 424 159 417 q 161 437 165 431 l 161 437 q 142 432 146 439 q 143 416 138 424 l 143 416 q 154 414 149 414 z m 161 532 l 161 532 q 174 556 168 543 q 173 586 180 569 l 173 586 q 156 583 160 589 q 149 569 152 576 q 143 554 146 561 q 137 542 140 546 l 137 542 q 132 523 135 533 q 133 503 129 512 l 133 503 q 134 485 130 495 q 147 477 137 475 l 147 477 q 157 488 158 479 q 153 505 155 497 l 153 505 q 154 521 151 515 q 161 532 157 526 z m 321 261 l 321 261 q 325 273 325 267 q 323 286 324 278 l 323 286 q 322 301 322 293 q 319 313 321 308 l 319 313 q 315 322 317 318 q 312 331 312 326 l 312 331 q 305 332 307 334 q 303 324 303 329 q 303 314 302 319 q 303 304 303 308 l 303 304 q 301 295 303 299 q 299 285 299 290 l 299 285 q 302 262 299 275 q 311 250 305 249 l 311 250 q 316 255 313 251 q 321 261 319 259 z m 477 231 l 477 231 q 484 242 481 237 q 488 252 486 247 l 488 252 q 484 272 487 262 q 477 288 480 281 l 477 288 q 473 303 475 293 l 473 303 q 467 354 467 328 q 463 408 467 380 l 463 408 q 462 443 461 426 q 458 477 463 460 l 458 477 q 459 510 459 492 q 457 544 459 528 l 457 544 q 457 560 457 552 q 455 573 457 568 l 455 573 q 446 592 452 582 q 435 604 440 601 l 435 604 q 423 607 433 605 l 423 607 q 409 610 417 608 q 393 609 401 611 l 393 609 q 381 604 386 606 q 371 596 376 601 l 371 596 q 355 571 359 585 q 350 540 350 557 l 350 540 q 352 523 350 531 q 352 506 353 514 l 352 506 q 348 489 351 493 q 343 482 345 485 l 343 482 q 338 470 340 476 q 337 455 336 463 l 337 455 q 348 438 340 446 q 357 419 356 430 l 357 419 q 357 414 357 417 q 356 408 356 411 l 356 408 q 356 384 355 395 q 359 359 357 372 l 359 359 q 361 332 361 345 q 360 304 360 318 l 360 304 q 361 293 360 299 q 362 282 362 287 l 362 282 q 361 276 362 279 q 360 269 360 272 l 360 269 q 363 256 361 263 q 361 244 364 249 l 361 244 q 357 240 360 242 q 352 236 354 238 l 352 236 q 355 214 349 220 q 362 197 360 207 l 362 197 q 369 186 368 192 q 371 172 369 179 l 371 172 q 375 167 373 170 q 379 160 377 163 l 379 160 q 410 140 388 144 l 410 140 q 428 142 420 142 q 442 145 435 141 l 442 145 q 455 160 450 150 q 462 177 460 169 l 462 177 q 464 195 464 185 q 466 212 464 205 l 466 212 q 472 222 468 217 q 477 231 475 227 z m 645 103 l 645 103 q 671 134 660 117 q 685 173 681 151 l 685 173 q 680 177 682 175 q 675 180 678 179 l 675 180 q 665 176 667 181 q 656 169 663 170 l 656 169 q 645 151 647 156 q 638 141 642 146 l 638 141 q 629 133 633 136 q 620 125 625 130 l 620 125 q 624 106 620 111 q 632 100 627 100 l 632 100 q 638 104 636 100 q 645 103 640 107 z m 700 222 l 700 222 q 700 233 700 226 q 700 246 700 240 q 697 257 699 252 q 691 261 695 261 l 691 261 q 672 237 679 250 l 672 237 q 674 225 671 230 q 682 216 677 219 q 692 215 686 213 q 700 222 697 216 z m 703 655 l 703 655 q 695 658 700 654 q 687 667 689 662 l 687 667 q 687 687 682 677 q 700 687 691 697 l 700 687 q 703 679 700 684 q 707 669 705 674 q 708 660 708 664 q 703 655 708 656 z m 420 583 l 420 583 q 432 568 428 579 q 437 544 436 556 l 437 544 q 436 527 437 536 q 434 510 434 518 l 434 510 q 436 493 435 505 q 432 479 437 481 l 432 479 q 424 484 428 477 q 418 495 420 490 l 418 495 q 414 519 413 506 q 416 543 414 531 l 416 543 q 418 558 417 550 q 412 570 418 565 l 412 570 q 397 570 402 572 l 397 570 q 389 562 391 567 q 383 555 387 556 l 383 555 q 376 562 376 554 q 379 575 375 570 l 379 575 q 399 585 388 581 q 420 583 410 588 z m 430 461 l 430 461 q 436 457 434 461 q 438 447 438 453 q 437 436 438 441 q 434 427 436 430 l 434 427 q 426 431 429 426 q 422 443 422 436 q 423 456 421 450 q 430 461 425 461 z m 54 387 l 54 387 q 44 406 45 398 q 41 422 42 414 l 41 422 q 44 441 40 431 q 60 443 48 450 l 60 443 q 68 432 66 440 q 68 414 69 423 q 62 397 66 405 q 54 387 58 389 z m 156 32 l 156 32 q 166 22 161 27 q 170 8 171 17 l 170 8 q 159 4 159 2 q 154 3 158 5 l 154 3 q 129 24 140 11 q 106 49 117 37 l 106 49 q 84 82 96 62 l 84 82 q 80 90 82 87 q 76 98 78 93 l 76 98 q 67 115 71 106 q 60 134 62 123 l 60 134 q 53 156 58 145 q 47 179 47 167 l 47 179 q 50 207 50 198 q 59 212 49 215 l 59 212 q 71 157 64 184 q 91 110 78 130 l 91 110 q 104 97 98 105 q 117 83 110 89 l 117 83 q 127 77 121 80 q 134 69 132 74 l 134 69 q 142 49 137 54 l 142 49 q 149 41 145 45 q 156 32 152 36 z m 187 -2 l 190 -1 q 211 -9 200 -6 q 224 -25 221 -13 l 224 -25 q 221 -30 222 -28 q 217 -35 220 -33 l 217 -35 q 195 -27 204 -40 q 187 -2 185 -15 l 187 -2 z"},"1":{"ha":559,"x_min":19,"x_max":510,"o":"m 153 722 l 146 714 q 138 707 141 713 q 131 706 135 701 l 131 706 q 144 727 138 721 l 144 727 q 152 741 147 736 q 160 753 157 746 l 160 753 q 165 761 162 757 q 169 769 167 764 l 169 769 q 177 781 177 779 q 178 784 177 783 l 178 784 q 186 790 182 789 q 198 792 190 790 l 198 792 q 209 795 203 793 q 221 794 215 796 l 221 794 q 239 790 234 789 q 247 791 243 791 q 252 789 250 791 q 253 781 254 787 l 253 781 q 241 776 247 777 q 226 772 234 775 l 226 772 q 204 769 214 774 q 184 759 194 764 l 184 759 q 172 737 181 745 q 153 722 163 729 l 153 722 z m 504 129 l 504 129 q 508 110 510 121 q 505 88 506 99 l 505 88 q 505 57 504 72 l 505 57 q 504 48 505 52 q 503 39 502 44 l 503 39 q 505 27 503 33 q 501 13 506 20 l 501 13 q 477 7 490 7 q 447 6 464 7 l 447 6 q 430 6 438 6 q 414 5 422 5 l 414 5 q 408 4 411 5 q 401 3 405 3 l 401 3 q 375 4 388 3 q 347 4 362 5 l 347 4 q 328 3 337 4 q 310 3 319 2 l 310 3 q 277 8 293 5 q 244 14 260 10 l 244 14 q 221 19 227 16 q 207 22 215 22 l 207 22 q 197 22 202 22 q 188 19 192 21 l 188 19 q 176 11 181 17 q 165 2 171 4 l 165 2 q 147 1 157 2 q 127 -1 137 -1 l 127 -1 q 116 -2 122 -1 q 105 -2 110 -3 l 105 -2 q 96 -2 101 -2 q 88 0 91 -2 l 88 0 q 81 8 86 1 q 74 18 75 14 l 74 18 q 75 36 72 26 q 76 54 77 45 l 76 54 q 71 72 74 63 q 69 91 68 80 l 69 91 q 72 109 72 105 q 73 117 71 113 l 73 117 q 104 141 81 136 l 104 141 q 115 142 109 143 q 126 142 121 141 l 126 142 q 137 144 130 143 q 152 144 144 145 l 152 144 q 155 175 156 160 q 155 206 153 190 l 155 206 q 163 221 160 210 q 162 242 165 232 l 162 242 q 157 250 160 247 q 153 257 154 253 l 153 257 q 153 275 151 264 q 155 295 155 286 l 155 295 q 155 312 154 308 q 155 322 156 316 l 155 322 q 155 355 153 338 q 158 388 156 371 l 158 388 q 158 400 159 393 q 158 413 157 406 l 158 413 q 159 434 160 428 q 158 444 158 439 l 158 444 q 160 455 159 449 q 160 465 160 460 l 160 465 q 161 483 160 475 q 158 499 161 491 l 158 499 q 141 501 145 501 q 130 501 137 500 l 130 501 q 109 499 120 502 q 90 497 98 496 l 90 497 q 74 502 83 498 q 63 511 65 506 l 63 511 q 63 517 62 513 q 63 525 63 521 l 63 525 q 64 543 63 533 q 66 560 64 553 l 66 560 q 71 567 68 565 q 75 574 74 569 l 75 574 q 88 588 82 580 q 98 604 93 596 l 98 604 q 109 615 103 610 q 119 627 114 620 l 119 627 q 126 637 123 632 q 134 644 129 641 l 134 644 q 137 652 134 649 q 144 656 139 654 q 152 659 148 657 q 159 663 156 660 l 159 663 q 170 680 167 676 q 172 690 172 684 l 172 690 q 191 720 185 703 l 191 720 q 201 727 196 723 q 208 735 205 730 l 208 735 q 218 741 213 737 q 229 745 223 744 l 229 745 q 242 745 241 744 q 245 745 243 745 l 245 745 q 291 744 273 742 q 325 746 309 745 l 325 746 q 330 742 328 744 q 335 739 332 740 l 335 739 q 351 737 342 736 q 369 740 360 738 q 387 744 378 742 q 404 745 396 746 l 404 745 q 425 738 417 743 l 425 738 q 428 720 425 729 q 432 700 431 711 l 432 700 q 432 685 433 692 q 431 669 431 677 l 431 669 q 431 649 431 658 q 430 629 430 639 l 430 629 q 430 615 430 622 q 429 602 430 607 l 429 602 q 416 579 420 590 q 411 560 412 567 l 411 560 q 412 545 411 555 q 414 530 413 535 l 414 530 q 419 524 416 526 q 421 518 421 521 l 421 518 q 425 504 423 511 q 428 488 427 496 l 428 488 q 429 470 430 479 q 426 449 427 460 l 426 449 q 427 430 426 439 q 428 411 428 420 l 428 411 q 429 389 429 400 q 430 367 429 378 l 430 367 q 433 323 432 344 q 431 280 434 302 l 431 280 q 431 270 431 275 q 430 261 431 265 l 430 261 q 428 257 429 259 q 425 251 426 254 l 425 251 q 426 227 421 237 q 431 201 430 216 l 431 201 q 431 179 432 190 q 433 159 430 167 l 433 159 q 438 152 435 156 q 443 147 441 148 l 443 147 q 450 149 445 147 q 457 150 454 150 l 457 150 q 467 150 462 150 q 476 148 472 150 l 476 148 q 492 140 483 146 q 504 129 500 134 z m 201 90 l 201 90 q 208 100 205 93 q 212 114 211 106 q 212 130 213 122 q 207 141 211 137 l 207 141 q 196 129 197 139 q 193 109 195 118 l 193 109 q 186 103 190 104 q 176 102 181 102 q 165 102 170 102 q 157 98 160 101 l 157 98 q 156 89 151 90 q 166 86 161 88 l 166 86 q 188 86 182 82 q 201 90 193 89 z m 214 187 l 214 187 q 218 196 216 190 q 221 207 220 201 q 220 217 221 212 q 214 221 218 221 l 214 221 q 199 207 200 214 q 195 195 197 200 l 195 195 q 204 190 199 192 q 214 187 209 187 z m 281 686 l 281 686 q 281 699 287 692 q 267 707 275 706 l 267 707 q 254 705 258 704 q 245 707 249 705 l 245 707 q 228 694 234 701 q 216 677 222 687 l 216 677 q 210 667 214 672 q 206 658 206 662 l 206 658 q 212 650 207 653 q 223 649 217 647 l 223 649 q 231 662 228 654 q 242 673 234 670 l 242 673 q 251 675 246 671 q 262 681 255 679 l 262 681 q 273 683 268 683 q 281 686 277 683 z m 344 687 l 344 687 q 342 698 348 694 l 342 698 q 325 698 328 703 q 321 688 322 693 l 321 688 q 332 684 324 683 q 344 687 339 685 z m 463 71 l 463 71 q 463 79 464 76 q 461 85 462 81 l 461 85 q 449 89 456 88 q 438 84 442 89 l 438 84 q 436 76 436 80 q 434 70 436 72 l 434 70 q 417 65 428 65 q 394 63 405 64 q 376 58 383 62 q 368 42 368 54 l 368 42 q 399 44 381 43 q 432 45 417 44 l 432 45 q 447 47 439 45 l 447 47 q 457 58 452 49 q 463 71 462 66 z m 33 541 l 33 541 q 29 545 30 542 q 27 551 28 548 l 27 551 q 31 559 29 555 q 35 566 33 562 l 35 566 q 47 559 43 566 q 45 544 50 551 l 45 544 q 39 543 42 542 q 33 541 36 543 z m 76 454 l 76 454 q 65 461 68 462 q 59 461 62 460 l 59 461 q 41 466 46 466 q 32 469 35 466 l 32 469 q 24 484 28 471 q 20 501 19 496 l 20 501 q 26 517 20 505 q 34 530 31 529 l 34 530 q 43 526 39 531 q 48 513 46 520 q 51 497 50 505 q 50 484 51 489 l 50 484 q 82 476 64 479 q 118 477 100 473 l 118 477 q 124 473 120 475 q 128 465 127 470 l 128 465 q 126 452 125 454 q 126 446 126 449 l 126 446 q 124 435 126 441 q 122 423 122 428 l 122 423 q 117 402 123 406 q 105 398 111 397 l 105 398 q 99 426 99 411 q 88 449 98 440 l 88 449 q 82 452 85 451 q 76 454 79 452 z m 477 161 l 477 161 q 458 171 465 162 q 452 194 451 179 l 452 194 q 453 201 452 197 q 454 207 454 204 l 454 207 q 454 220 454 213 q 455 233 453 227 l 455 233 q 466 232 462 237 q 472 223 469 226 l 472 223 q 475 195 469 206 q 489 176 480 184 l 489 176 q 503 162 502 171 l 503 162 q 487 162 491 163 q 477 161 482 160 z m 332 -19 l 332 -19 q 298 -30 318 -31 q 261 -28 278 -29 l 261 -28 q 253 -28 257 -28 q 246 -27 249 -29 l 246 -27 q 232 -28 238 -27 q 219 -27 225 -29 l 219 -27 q 209 -30 214 -29 q 196 -30 203 -31 l 196 -30 q 188 -17 183 -24 q 203 -2 193 -10 l 203 -2 q 214 1 207 0 q 226 1 221 2 l 226 1 q 234 3 230 5 q 240 -1 238 0 l 240 -1 q 249 -3 244 -3 q 254 -8 253 -4 l 254 -8 q 269 -12 269 -12 l 269 -12 q 285 -18 279 -17 q 294 -19 290 -19 l 294 -19 q 313 -16 302 -19 q 332 -19 324 -13 z m 345 -27 l 345 -19 q 353 -14 348 -14 q 362 -16 358 -14 q 366 -22 365 -18 q 360 -31 366 -27 l 360 -31 q 345 -27 349 -31 l 345 -27 z"},"2":{"ha":765,"x_min":45,"x_max":734,"o":"m 165 736 l 165 736 q 200 766 180 754 q 242 786 220 778 l 242 786 q 255 794 252 790 q 259 799 257 797 l 259 799 q 281 806 270 801 q 301 809 291 811 l 301 809 q 315 813 311 811 q 322 815 318 814 l 322 815 q 338 814 330 816 q 354 813 346 812 l 354 813 q 372 814 365 815 q 384 813 378 813 l 384 813 q 404 812 394 814 q 413 797 414 810 l 413 797 q 401 793 410 792 q 383 795 391 793 l 383 795 q 372 798 377 796 q 362 800 367 800 l 362 800 q 341 799 351 801 q 319 795 330 796 l 319 795 q 303 794 311 793 q 288 792 295 794 l 288 792 q 268 780 277 785 q 251 765 258 774 l 251 765 q 234 753 238 758 q 224 742 229 747 l 224 742 q 212 738 217 741 q 199 734 207 734 l 199 734 q 192 736 196 734 q 182 739 187 738 l 182 739 q 169 738 171 739 q 165 736 167 736 z m 666 2 l 666 2 q 652 -8 658 -4 q 632 -13 645 -13 l 632 -13 q 610 -11 616 -10 q 599 -11 604 -12 l 599 -11 q 564 -7 578 -7 q 538 -8 550 -7 l 538 -8 q 519 -8 529 -9 q 500 -8 509 -7 l 500 -8 q 493 -3 497 -4 q 483 0 488 -2 l 483 0 q 465 9 474 3 q 446 16 455 15 l 446 16 q 433 17 440 17 q 417 17 425 17 q 402 14 409 16 q 391 9 395 12 l 391 9 q 387 4 388 7 q 379 -2 385 0 l 379 -2 q 371 -1 375 -3 q 361 1 366 0 l 361 1 q 339 -2 350 -2 q 316 -2 327 -2 l 316 -2 q 310 -3 313 -2 q 305 -4 307 -4 l 305 -4 q 290 -1 297 -4 q 275 1 283 1 l 275 1 q 249 2 262 2 q 222 4 236 1 l 222 4 q 209 4 215 2 q 196 4 203 5 l 196 4 q 180 1 186 3 q 162 0 173 -2 l 162 0 q 156 3 159 1 q 150 5 153 4 l 150 5 q 143 6 146 6 q 137 6 139 5 l 137 6 q 119 11 124 10 q 110 20 113 12 l 110 20 q 103 22 105 19 q 96 25 100 24 l 96 25 q 78 46 88 36 q 59 69 67 56 l 59 69 q 59 80 61 74 q 56 91 56 86 l 56 91 q 63 105 57 98 q 72 119 68 112 l 72 119 q 78 135 75 127 q 78 152 80 142 l 78 152 q 76 162 77 156 q 73 172 75 168 l 73 172 q 68 184 70 179 q 67 193 65 188 l 67 193 q 75 206 74 203 q 76 210 75 208 l 76 210 q 94 229 82 218 q 114 244 105 239 l 114 244 q 122 248 118 247 q 130 251 126 249 l 130 251 q 139 250 136 248 q 145 255 142 251 q 149 264 147 259 q 154 273 151 269 l 154 273 q 164 284 159 281 q 174 290 169 286 l 174 290 q 180 298 177 295 q 184 304 182 301 l 184 304 q 194 307 189 306 q 202 310 198 307 l 202 310 q 206 315 204 312 q 210 319 208 317 l 210 319 q 220 325 215 323 q 230 330 225 326 l 230 330 q 248 345 243 339 q 260 351 253 351 l 260 351 q 266 350 263 352 q 272 348 269 348 l 272 348 q 281 351 275 348 q 289 355 287 353 l 289 355 q 296 363 293 358 q 302 373 299 368 l 302 373 q 309 382 305 377 q 314 391 313 387 l 314 391 q 315 400 316 395 q 316 409 314 405 l 316 409 q 321 412 318 412 q 326 414 324 412 l 326 414 q 333 420 330 416 q 338 425 335 423 l 338 425 q 347 431 343 429 q 356 437 351 433 l 356 437 q 383 460 370 448 q 408 482 395 471 l 408 482 q 418 503 413 493 q 423 528 422 513 l 423 528 q 424 541 423 535 q 425 552 425 547 l 425 552 q 423 560 424 555 q 421 568 422 564 l 421 568 q 418 586 419 579 q 412 600 416 592 l 412 600 q 408 608 410 604 q 406 613 406 611 l 406 613 q 407 621 405 617 q 410 627 408 624 q 411 634 411 630 q 408 640 411 637 l 408 640 q 394 638 398 641 q 385 630 389 635 l 385 630 q 349 628 365 632 q 319 616 333 623 l 319 616 q 257 574 287 596 q 193 535 227 552 l 193 535 q 176 522 185 527 q 158 510 166 516 l 158 510 q 146 508 152 511 l 146 508 q 119 519 129 510 q 101 539 109 527 l 101 539 q 97 546 99 543 q 92 552 94 549 l 92 552 q 89 560 90 556 q 86 567 88 563 l 86 567 q 79 580 82 573 q 78 598 76 587 l 78 598 q 85 617 79 608 q 94 633 90 625 l 94 633 q 103 650 99 647 q 111 655 106 652 l 111 655 q 118 665 115 660 q 125 674 120 670 l 125 674 q 130 678 127 676 q 135 681 133 679 l 135 681 q 145 689 140 685 q 155 697 149 693 l 155 697 q 160 702 158 699 q 164 706 162 704 l 164 706 q 171 709 167 708 q 177 711 174 709 l 177 711 q 184 717 180 714 q 190 719 187 720 l 190 719 q 196 717 194 719 q 200 713 198 714 l 200 713 q 222 714 217 712 q 234 720 227 715 l 234 720 q 242 725 238 722 q 248 731 246 728 l 248 731 q 258 752 253 748 q 266 762 263 756 l 266 762 q 307 771 286 767 q 349 772 328 774 l 349 772 q 365 772 357 771 q 381 771 373 772 l 381 771 q 390 770 386 771 q 397 767 393 768 l 397 767 q 410 767 404 766 q 420 766 415 767 l 420 766 q 430 764 425 765 q 440 760 435 762 l 440 760 q 453 760 447 759 q 465 758 459 760 l 465 758 q 489 752 477 756 q 511 742 501 747 l 511 742 q 532 735 523 740 q 551 726 540 729 l 551 726 q 562 719 555 721 q 573 712 568 716 l 573 712 q 579 708 577 710 q 584 702 581 705 l 584 702 q 600 691 597 695 q 608 687 603 687 l 608 687 q 630 666 619 676 q 646 641 640 655 l 646 641 q 656 631 653 634 q 660 623 658 628 l 660 623 q 663 618 662 621 q 665 613 663 615 l 665 613 q 678 590 671 604 l 678 590 q 682 574 680 584 q 685 555 683 564 l 685 555 q 687 533 686 544 q 688 512 688 522 l 688 512 q 682 456 687 483 q 663 410 676 428 l 663 410 q 637 367 652 385 q 605 331 622 348 l 605 331 q 594 316 596 319 q 588 310 591 313 l 588 310 q 577 303 583 309 l 577 303 q 570 304 573 303 q 564 305 567 305 l 564 305 q 553 300 555 300 q 549 299 551 300 l 549 299 q 541 293 544 297 q 535 285 538 288 l 535 285 q 513 253 527 261 q 484 233 498 244 l 484 233 q 480 229 482 231 q 476 224 478 226 l 476 224 q 466 218 471 220 q 458 210 461 215 l 458 210 q 452 207 454 210 q 446 201 450 203 l 446 201 q 437 197 441 199 q 427 193 432 195 l 427 193 q 420 187 423 190 q 413 181 417 183 l 413 181 q 407 171 411 174 q 398 162 402 167 l 398 162 q 411 155 405 153 q 424 156 417 157 l 424 156 q 439 155 436 154 q 445 155 442 155 l 445 155 q 459 153 455 153 l 459 153 q 468 154 464 153 q 476 155 472 155 l 476 155 q 486 154 481 155 q 495 153 490 153 l 495 153 q 507 155 501 153 q 518 155 513 156 l 518 155 q 546 155 536 153 q 560 155 556 157 l 560 155 q 564 149 563 153 q 567 143 565 145 l 567 143 q 595 133 581 138 q 624 133 608 128 l 624 133 q 629 137 627 135 q 634 140 631 139 l 634 140 q 661 144 648 144 q 685 141 674 143 l 685 141 q 695 120 693 133 q 694 91 696 107 l 694 91 q 692 82 693 86 q 691 74 691 78 l 691 74 q 690 49 689 62 q 687 27 691 36 l 687 27 q 679 17 683 21 l 679 17 q 673 9 675 12 q 666 2 671 6 z m 608 462 l 608 462 q 596 439 601 452 q 586 412 591 426 l 586 412 q 596 393 588 397 l 596 393 q 611 412 604 399 l 611 412 q 617 424 615 417 q 622 436 618 430 l 622 436 q 630 455 625 447 q 638 470 635 463 l 638 470 q 641 482 640 475 q 641 493 642 488 l 641 493 q 628 506 639 502 q 613 498 617 509 l 613 498 q 611 479 610 489 q 608 462 612 469 z m 160 554 l 160 554 q 174 563 166 559 q 188 572 181 567 q 199 584 194 577 q 205 601 204 590 l 205 601 q 186 601 194 606 q 170 595 178 595 l 170 595 q 161 599 164 595 q 152 604 157 602 l 152 604 q 138 601 144 606 q 131 590 132 595 l 131 590 q 132 579 130 585 q 136 569 134 573 l 136 569 q 147 560 139 563 q 160 554 155 557 z m 238 607 l 238 607 q 253 613 246 608 q 256 628 259 618 l 256 628 q 241 624 245 632 q 238 607 236 615 z m 116 75 l 116 75 q 123 86 121 78 q 118 96 125 93 l 118 96 q 98 83 102 93 q 101 71 94 73 l 101 71 q 109 72 104 70 q 116 75 114 74 z m 122 132 l 122 132 q 137 136 131 131 q 145 149 142 141 q 149 167 148 157 q 150 185 150 176 l 150 185 q 141 207 150 202 l 141 207 q 123 203 128 203 q 115 197 117 202 l 115 197 q 115 189 116 192 q 114 182 114 186 l 114 182 q 119 167 115 174 q 124 152 123 160 l 124 152 q 123 142 124 146 q 122 132 121 137 z m 603 18 l 603 18 q 617 18 609 17 q 629 20 625 18 l 629 20 q 642 38 637 25 q 640 60 647 51 l 640 60 q 630 55 634 58 q 621 49 625 52 q 612 43 617 45 q 600 40 607 40 l 600 40 q 589 41 594 41 q 578 38 584 41 l 578 38 q 578 26 576 32 l 578 26 q 603 18 594 19 z m 723 503 l 723 503 q 717 509 719 503 q 715 520 715 514 q 717 531 715 526 q 721 537 718 536 l 721 537 q 730 533 726 538 q 734 521 733 528 q 732 509 734 514 q 723 503 729 503 z m 250 530 l 250 530 q 241 520 248 523 q 225 516 233 516 l 225 516 q 226 533 217 525 q 242 542 234 540 l 242 542 q 248 539 246 543 q 250 530 250 535 z m 116 470 l 116 470 q 113 476 114 472 q 109 482 111 479 l 109 482 q 101 496 101 488 l 101 496 q 113 500 112 504 q 118 493 114 495 l 118 493 q 128 490 122 491 q 138 487 133 489 l 138 487 q 152 491 144 492 q 166 493 159 489 l 166 493 q 176 499 169 495 q 186 504 183 502 l 186 504 q 194 511 189 506 q 202 516 198 515 l 202 516 q 213 514 207 518 q 217 504 219 509 l 217 504 q 209 497 215 499 q 197 489 202 494 l 197 489 q 191 484 195 487 q 183 477 187 480 l 183 477 q 175 474 179 475 q 166 471 170 473 l 166 471 q 158 467 161 469 q 152 463 155 464 l 152 463 q 145 463 148 462 q 138 464 142 464 l 138 464 q 126 465 131 465 q 116 470 121 465 z m 676 388 l 678 392 q 688 408 685 400 l 688 408 q 698 422 693 414 q 705 437 702 429 l 705 437 q 706 452 707 444 q 707 468 705 459 l 707 468 q 711 482 708 475 q 722 486 714 489 l 722 486 q 728 473 724 479 q 730 458 731 466 l 730 458 q 729 446 730 453 q 726 434 728 439 l 726 434 q 714 398 721 416 q 698 368 706 380 l 698 368 q 688 358 692 364 q 678 348 683 352 q 665 341 672 343 q 648 341 658 338 l 648 341 q 652 354 646 349 q 660 364 657 358 l 660 364 q 665 371 663 367 q 669 378 666 375 l 669 378 q 673 383 671 381 q 676 388 674 385 l 676 388 z m 723 -1 l 723 -1 q 715 -20 723 -16 l 715 -20 q 716 -32 720 -28 q 709 -41 711 -36 l 709 -41 q 685 -42 697 -44 q 658 -42 672 -41 l 658 -42 q 641 -43 650 -42 q 624 -43 632 -45 l 624 -43 q 626 -35 623 -38 q 634 -32 629 -33 q 645 -32 639 -32 q 654 -31 650 -32 l 654 -31 q 664 -28 660 -30 q 672 -26 668 -26 l 672 -26 q 676 -20 674 -24 q 675 -13 677 -17 l 675 -13 q 681 -3 679 -8 q 688 7 683 2 l 688 7 q 700 18 692 12 q 708 28 707 23 l 708 28 q 711 52 710 39 q 715 75 711 65 l 715 75 q 724 38 725 59 q 723 -1 723 17 z m 65 28 l 71 24 q 77 17 76 23 q 84 8 78 10 l 84 8 q 85 1 86 4 q 79 -5 84 -3 l 79 -5 q 74 -5 76 -6 q 68 -4 71 -4 l 68 -4 q 51 -1 53 -4 q 47 4 49 2 l 47 4 q 46 18 45 10 q 50 30 47 25 q 56 35 52 34 q 65 28 60 35 l 65 28 z"},"3":{"ha":715,"x_min":-7,"x_max":686,"o":"m 262 775 l 262 775 q 256 776 259 776 q 250 778 252 775 l 250 778 q 254 790 248 788 q 268 792 260 792 l 268 792 q 279 794 273 792 q 288 796 284 796 l 288 796 q 317 797 302 797 q 348 798 331 797 l 348 798 q 357 799 353 798 q 366 800 361 800 l 366 800 q 375 799 371 800 q 383 798 378 798 l 383 798 q 389 800 386 798 q 396 801 392 801 l 396 801 q 416 803 407 803 q 432 807 424 803 l 432 807 q 437 808 433 808 q 443 808 440 808 l 443 808 q 451 808 446 808 q 461 807 456 808 q 470 805 466 806 q 474 800 474 803 l 474 800 q 470 795 474 797 q 464 792 466 793 l 464 792 q 452 792 456 791 q 440 793 448 793 l 440 793 q 435 792 437 793 q 429 790 432 791 l 429 790 q 419 788 424 788 q 408 786 413 788 l 408 786 q 402 785 405 786 q 396 783 399 783 l 396 783 q 385 782 393 782 l 385 782 q 367 777 376 780 q 348 772 357 774 l 348 772 q 327 771 335 770 q 309 771 318 772 l 309 771 q 302 772 304 771 q 295 772 299 772 l 295 772 q 286 772 290 773 q 276 771 281 771 l 276 771 q 270 774 273 772 q 262 775 266 775 z m 645 341 l 645 341 q 645 336 646 339 q 645 329 644 332 l 645 329 q 647 315 646 323 q 646 300 648 306 l 646 300 q 641 291 644 295 q 635 282 637 287 l 635 282 q 633 263 633 273 q 637 245 633 253 l 637 245 q 643 234 639 240 q 645 219 646 228 l 645 219 q 642 211 644 214 q 641 202 640 207 l 641 202 q 633 172 636 186 q 622 143 629 157 l 622 143 q 615 133 618 137 q 609 121 611 128 l 609 121 q 600 112 604 116 q 587 104 595 108 l 587 104 q 567 103 577 103 q 550 97 557 102 l 550 97 q 542 82 543 91 q 540 60 540 73 l 540 60 q 525 51 530 55 q 512 42 519 46 l 512 42 q 486 34 501 35 q 460 24 471 32 l 460 24 q 408 16 431 16 l 408 16 q 387 16 397 16 q 367 15 377 15 l 367 15 q 355 14 360 15 q 345 14 350 13 l 345 14 q 340 15 342 14 q 334 16 337 16 l 334 16 q 323 16 329 17 q 312 15 317 15 l 312 15 q 298 16 304 16 q 285 15 291 15 l 285 15 q 265 15 270 17 q 254 15 259 13 l 254 15 q 242 19 248 16 q 227 23 235 21 l 227 23 q 220 24 223 24 q 213 25 216 23 l 213 25 q 194 31 199 31 q 184 33 189 31 l 184 33 q 162 44 172 38 q 140 53 151 49 l 140 53 q 125 65 134 61 q 110 77 116 69 l 110 77 q 101 82 104 78 q 93 87 98 85 l 93 87 q 87 90 90 89 q 81 94 84 91 l 81 94 q 67 122 70 111 q 69 144 63 132 l 69 144 q 74 155 72 154 q 76 157 75 155 l 76 157 q 81 170 79 167 q 85 174 83 172 l 85 174 q 93 190 90 182 q 100 204 95 198 l 100 204 q 109 206 104 206 q 119 206 114 205 l 119 206 q 125 208 122 207 q 130 209 128 209 l 130 209 q 142 206 137 209 q 151 199 146 203 l 151 199 q 156 195 153 197 q 158 189 158 192 l 158 189 q 160 180 160 184 q 162 170 160 175 l 162 170 q 175 159 166 163 q 194 158 184 154 l 194 158 q 204 168 202 161 q 214 176 206 174 l 214 176 q 223 169 218 173 q 232 162 227 164 l 232 162 q 261 158 251 160 q 282 154 271 155 l 282 154 q 295 155 289 153 q 307 159 300 157 l 307 159 q 340 169 328 161 q 362 185 352 177 l 362 185 q 370 192 368 189 q 375 200 372 195 l 375 200 q 379 205 377 202 q 382 209 380 207 l 382 209 q 390 245 388 222 l 390 245 q 392 251 391 248 q 393 257 393 254 l 393 257 q 394 268 394 262 q 392 281 393 274 l 392 281 q 385 321 389 301 q 369 350 381 340 l 369 350 q 363 349 367 348 q 356 348 359 349 l 356 348 q 347 340 351 346 q 338 328 342 333 l 338 328 q 331 326 334 326 q 323 323 327 325 l 323 323 q 316 319 319 321 q 310 316 313 316 l 310 316 q 300 320 305 315 q 290 328 295 325 l 290 328 q 273 342 281 335 q 256 357 264 349 l 256 357 q 249 366 252 362 q 242 375 245 370 l 242 375 q 237 382 240 377 q 234 389 234 387 l 234 389 q 233 412 230 400 q 241 429 235 423 l 241 429 q 250 439 245 434 q 260 449 255 443 l 260 449 q 269 459 265 453 q 278 467 273 465 l 278 467 q 292 472 284 471 q 306 475 299 473 l 306 475 q 319 484 314 478 q 329 497 324 489 l 329 497 q 331 512 329 505 q 331 527 333 518 l 331 527 q 351 549 341 538 q 371 570 360 559 l 371 570 q 376 574 373 572 q 380 579 378 576 l 380 579 q 399 601 390 595 q 412 615 407 606 l 412 615 q 413 621 411 617 q 412 628 414 625 l 412 628 q 405 632 411 631 q 392 631 399 632 q 378 629 385 630 q 368 627 371 627 l 368 627 q 360 628 363 627 q 353 628 356 628 l 353 628 q 323 627 337 628 q 294 623 308 625 l 294 623 l 273 623 q 242 627 259 622 l 242 627 q 232 629 236 629 q 224 631 228 629 l 224 631 q 203 639 210 639 q 187 637 195 638 l 187 637 q 175 630 181 636 q 163 622 168 624 l 163 622 q 138 618 154 617 q 109 617 121 619 l 109 617 q 98 617 104 616 q 87 615 92 617 l 87 615 q 75 612 81 614 q 63 612 69 610 l 63 612 q 36 627 47 614 q 30 662 25 639 l 30 662 q 33 668 31 665 q 34 674 34 670 l 34 674 q 32 695 35 682 q 30 718 28 707 l 30 718 q 42 736 32 730 q 63 749 52 742 l 63 749 q 75 754 71 752 q 82 756 78 756 l 82 756 q 107 758 97 756 q 124 760 116 760 l 124 760 q 169 763 150 761 q 204 765 187 764 l 204 765 q 223 763 215 766 q 241 756 231 759 l 241 756 q 287 749 261 754 q 337 745 312 743 l 337 745 q 369 751 352 746 l 369 751 q 377 755 373 753 q 385 758 380 756 l 385 758 q 395 760 390 760 q 404 762 399 760 l 404 762 q 416 766 410 764 q 426 769 421 768 l 426 769 l 437 769 q 461 771 454 772 q 474 770 467 769 l 474 770 q 482 771 478 770 q 488 772 485 772 l 488 772 q 497 772 493 772 q 505 771 501 771 l 505 771 q 516 773 510 772 q 528 775 522 774 l 528 775 q 537 776 533 776 q 545 775 541 775 l 545 775 q 564 777 556 776 q 582 778 571 778 l 582 778 q 597 780 588 779 q 611 777 605 780 l 611 777 q 619 773 614 776 q 625 767 624 769 l 625 767 q 626 744 632 755 q 615 725 620 733 l 615 725 q 618 713 615 718 q 623 702 620 707 q 628 690 626 696 q 626 678 629 684 l 626 678 q 629 659 632 670 l 629 659 q 624 636 630 643 q 613 618 617 629 l 613 618 q 592 594 602 606 q 572 565 581 581 l 572 565 q 535 521 552 545 q 498 475 517 497 l 498 475 q 507 473 503 473 q 515 470 510 472 l 515 470 q 531 467 523 468 q 546 463 538 465 l 546 463 q 551 460 549 461 q 556 456 553 458 l 556 456 q 572 449 564 451 q 583 437 580 447 l 583 437 q 604 419 595 430 q 622 396 612 407 l 622 396 q 624 387 623 390 q 626 381 624 384 l 626 381 q 631 375 628 378 q 635 368 633 372 l 635 368 q 639 354 637 362 l 639 354 q 643 347 641 350 q 645 341 644 344 z m 538 612 l 538 612 q 539 592 534 599 l 539 592 q 549 599 542 595 q 559 607 556 602 l 559 607 q 567 621 563 617 q 572 628 570 625 l 572 628 q 584 644 577 633 q 589 663 590 655 l 589 663 q 586 667 588 664 q 582 672 583 669 l 582 672 q 575 683 580 678 q 561 683 569 687 l 561 683 q 556 672 556 679 q 556 658 555 665 q 558 643 557 650 q 557 630 559 636 l 557 630 q 548 621 554 625 q 538 612 542 617 z m 100 648 l 108 647 q 117 654 113 650 q 121 666 120 658 l 121 666 q 112 670 118 669 q 100 669 105 671 l 100 669 q 94 683 92 672 q 92 700 96 694 l 92 700 q 77 699 78 706 q 74 680 76 691 l 74 680 q 71 663 73 670 q 73 649 68 655 l 73 649 q 81 647 78 650 q 89 644 84 644 l 89 644 q 94 646 91 644 q 100 648 97 648 l 100 648 z m 323 361 l 323 361 q 334 372 328 366 q 340 385 340 377 l 340 385 q 325 388 333 386 q 311 388 317 390 l 311 388 q 301 392 306 390 q 289 391 295 394 l 289 391 q 292 373 287 379 q 303 360 297 366 l 303 360 q 313 356 311 355 q 323 361 315 356 z m 349 47 l 349 47 q 358 59 356 51 q 356 75 360 67 l 356 75 q 337 75 348 80 q 328 59 326 69 l 328 59 q 331 54 329 56 q 335 49 333 52 l 335 49 q 342 48 338 48 q 349 47 346 48 z m 500 74 l 500 74 q 509 88 507 79 q 510 105 510 97 l 510 105 q 505 109 509 108 q 498 108 500 110 l 498 108 q 456 86 481 92 q 407 72 430 80 l 407 72 q 401 62 398 69 q 411 53 403 55 l 411 53 q 427 54 418 51 q 444 57 436 56 l 444 57 l 457 57 q 472 63 465 59 q 485 68 479 66 l 485 68 q 494 72 490 70 q 500 74 498 73 z m 683 691 l 683 691 q 684 668 686 681 q 681 645 682 655 l 681 645 q 681 639 680 642 q 680 634 681 636 l 680 634 q 674 622 678 627 q 667 615 670 617 l 667 615 q 655 595 663 604 q 636 578 646 585 l 636 578 q 629 572 632 574 q 621 572 626 570 l 621 572 q 627 586 623 580 q 634 598 631 591 l 634 598 q 648 616 642 606 q 664 633 654 626 l 664 633 q 666 647 667 645 q 663 652 664 649 l 663 652 q 661 659 661 654 q 658 668 660 664 l 658 668 q 656 682 656 673 q 660 695 655 691 l 660 695 q 673 698 665 699 q 683 691 681 697 z m 112 586 l 112 586 q 91 574 104 577 q 63 570 77 570 l 63 570 q 37 571 49 571 q 10 572 25 570 l 10 572 q -4 599 -2 580 q 2 629 -7 617 l 2 629 q -2 637 0 631 q -4 648 -4 642 q -3 658 -5 653 q 5 662 -1 662 l 5 662 q 10 651 8 657 q 10 639 12 644 l 10 639 q 15 635 12 636 q 18 630 17 634 l 18 630 q 26 598 17 602 q 48 590 34 594 l 48 590 q 55 587 52 588 q 60 585 58 586 l 60 585 q 73 585 65 584 q 88 587 81 586 l 88 587 q 102 591 94 588 q 112 586 109 593 z m 303 271 l 303 271 q 286 283 295 275 q 269 298 277 291 l 269 298 q 261 308 264 303 q 259 322 257 312 l 259 322 q 267 324 261 327 q 278 316 273 320 l 278 316 q 282 311 280 314 q 286 305 284 307 l 286 305 q 304 297 294 297 q 318 290 313 297 l 318 290 q 332 300 328 292 q 343 310 335 308 l 343 310 q 352 310 347 311 q 360 304 357 309 l 360 304 q 364 292 363 300 q 362 281 365 284 l 362 281 q 350 283 356 283 q 339 285 344 282 l 339 285 q 323 272 332 277 q 303 271 314 266 z m 199 193 l 199 193 q 184 183 194 186 q 168 188 173 179 l 168 188 q 171 204 167 199 q 178 213 175 208 l 178 213 q 187 211 184 215 q 196 205 190 206 l 196 205 q 198 199 196 201 q 199 193 199 197 z m 589 69 l 589 69 q 587 57 592 63 q 583 46 581 51 l 583 46 q 569 35 575 41 q 554 23 562 28 l 554 23 q 543 14 550 17 l 543 14 q 530 9 537 11 q 514 4 522 7 l 514 4 q 506 -1 509 2 q 497 -6 502 -4 l 497 -6 q 486 -8 491 -8 q 474 -11 481 -9 l 474 -11 q 466 -13 469 -12 q 458 -17 462 -15 l 458 -17 q 451 -18 454 -18 q 443 -19 448 -18 l 443 -19 q 438 -22 440 -20 q 432 -26 435 -25 l 432 -26 q 407 -30 421 -31 q 389 -16 393 -30 l 389 -16 q 380 -15 384 -16 q 370 -16 375 -15 l 370 -16 q 360 -20 365 -17 q 351 -20 355 -23 l 351 -20 q 349 -10 346 -17 q 356 -3 352 -4 l 356 -3 q 365 -3 360 -2 q 374 -5 369 -5 l 374 -5 q 379 -5 376 -6 q 385 -5 382 -5 l 385 -5 q 399 -5 392 -5 q 414 -5 406 -6 l 414 -5 q 425 -3 420 -5 q 434 -4 429 -2 l 434 -4 q 441 -1 437 -1 q 450 -1 445 -2 l 450 -1 q 456 1 453 -1 q 461 3 458 2 l 461 3 q 466 4 463 4 q 472 4 469 3 l 472 4 q 478 5 475 4 q 483 7 480 6 l 483 7 q 521 19 503 13 q 549 39 539 25 l 549 39 q 557 57 554 46 q 566 70 559 67 l 566 70 q 578 72 568 71 q 589 69 587 73 z m 552 33 l 552 33 q 550 26 555 27 q 543 22 545 25 l 543 22 q 525 25 534 26 q 506 26 515 24 l 506 26 q 527 34 514 36 q 552 33 540 31 z"},"4":{"ha":751,"x_min":9,"x_max":711,"o":"m 638 731 l 630 730 q 620 734 624 731 q 616 744 615 737 l 616 744 q 623 752 617 751 q 636 752 628 753 q 652 747 644 750 q 666 744 660 744 l 666 744 q 677 745 672 744 q 686 744 681 746 l 686 744 q 694 738 691 742 q 699 728 696 733 l 699 728 q 700 712 699 720 q 700 695 700 704 l 700 695 q 700 684 700 690 q 699 673 700 678 l 699 673 q 694 655 698 666 q 682 644 690 643 l 682 644 q 678 649 679 644 q 677 659 677 653 q 678 671 677 665 q 679 679 679 676 l 679 679 q 679 684 679 681 q 678 690 678 687 l 678 690 q 680 713 678 702 q 673 731 681 724 l 673 731 q 658 730 667 729 q 638 731 648 731 l 638 731 z m 590 -8 l 583 -7 q 568 -12 575 -9 q 553 -16 561 -16 l 553 -16 q 531 -12 538 -12 q 515 -11 523 -13 l 515 -11 q 481 -8 494 -7 q 453 -9 467 -10 l 453 -9 q 445 -7 448 -8 q 438 -5 442 -6 l 438 -5 q 426 -6 432 -5 q 414 -7 420 -7 l 414 -7 q 402 -6 408 -7 q 390 -4 396 -5 l 390 -4 q 378 -4 384 -4 q 366 -3 371 -5 l 366 -3 q 355 0 360 -2 q 345 3 350 2 l 345 3 q 338 3 341 4 q 330 3 334 2 l 330 3 q 318 10 326 4 q 309 20 310 16 l 309 20 q 310 33 310 31 q 309 37 309 35 l 309 37 q 311 44 309 39 q 314 50 312 48 l 314 50 q 322 59 322 57 q 323 62 322 60 l 323 62 q 330 91 337 81 q 314 110 322 101 l 314 110 q 316 150 314 130 q 315 190 317 170 l 315 190 q 276 196 299 191 q 232 202 252 200 l 232 202 q 223 203 227 203 q 214 205 218 203 l 214 205 q 185 210 197 214 q 163 205 173 206 l 163 205 q 149 206 157 204 q 135 207 141 208 l 135 207 q 126 207 130 207 q 116 207 121 206 l 116 207 q 106 209 111 207 q 96 211 101 210 l 96 211 q 86 212 91 212 q 76 211 81 211 l 76 211 q 67 212 71 212 q 59 212 62 212 l 59 212 q 48 219 54 213 q 40 229 42 225 l 40 229 q 36 237 38 233 q 32 245 34 241 l 32 245 q 29 262 31 253 q 29 280 26 270 l 29 280 q 33 289 31 285 q 37 298 35 293 l 37 298 q 37 303 37 300 q 37 309 36 306 l 37 309 q 44 357 44 337 q 49 396 44 376 l 49 396 q 61 413 54 406 q 74 428 68 420 l 74 428 q 81 439 78 433 q 88 450 84 445 l 88 450 q 104 466 95 458 q 120 480 112 473 l 120 480 q 126 486 123 483 q 130 492 128 489 l 130 492 q 136 496 132 494 q 142 499 139 497 l 142 499 q 159 513 150 505 q 175 527 167 521 l 175 527 q 191 536 182 532 q 206 545 199 540 l 206 545 q 219 550 213 548 q 229 556 224 552 l 229 556 q 234 561 231 558 q 239 567 237 564 l 239 567 q 250 584 245 575 q 257 605 255 592 l 257 605 q 266 623 259 619 q 279 633 273 627 l 279 633 q 283 638 281 635 q 287 643 285 641 l 287 643 q 292 647 288 645 q 297 649 295 648 l 297 649 q 304 647 300 649 q 309 644 307 645 l 309 644 q 325 648 317 644 q 336 656 333 651 l 336 656 q 338 667 338 661 q 340 678 338 673 l 340 678 q 342 685 341 682 q 343 689 343 687 l 343 689 q 344 696 344 692 q 344 701 343 699 l 344 701 q 353 710 346 706 q 364 717 359 714 l 364 717 l 373 726 q 378 732 376 729 q 382 737 379 735 l 382 737 q 390 739 385 739 q 398 741 394 739 l 398 741 q 413 739 406 739 q 428 739 420 739 l 428 739 q 438 738 433 738 q 447 736 442 737 l 447 736 q 454 737 451 736 q 459 737 457 738 l 459 737 q 469 735 464 736 q 479 732 474 734 l 479 732 q 495 731 487 730 q 510 730 502 731 l 510 730 q 533 729 524 727 q 546 728 541 730 l 546 728 q 553 724 550 727 q 561 718 556 720 l 561 718 q 570 714 564 716 q 580 711 575 711 l 580 711 q 593 712 586 710 q 607 712 600 713 l 607 712 q 621 712 613 712 q 636 710 629 711 q 648 705 643 708 q 653 695 653 701 l 653 695 q 658 688 655 691 q 662 681 660 685 l 662 681 q 662 667 664 674 q 659 650 660 659 l 659 650 q 657 634 657 642 q 656 616 657 625 l 656 616 q 655 606 655 611 q 654 596 655 601 l 654 596 q 653 587 653 591 q 652 577 652 582 l 652 577 q 652 563 651 569 q 650 549 653 557 l 650 549 q 637 519 639 530 q 632 497 634 508 l 632 497 q 629 485 630 491 q 628 471 628 479 l 628 471 q 632 448 628 459 q 636 423 635 436 l 636 423 q 633 389 633 400 q 630 364 633 377 l 630 364 q 629 342 632 353 q 628 322 626 330 l 628 322 q 640 322 634 320 q 651 322 645 323 l 651 322 q 666 316 663 316 q 671 315 669 316 l 671 315 q 680 302 679 310 q 679 279 681 293 l 679 279 q 675 240 677 260 q 671 201 673 220 l 671 201 q 672 195 671 198 q 671 189 672 192 l 671 189 q 664 171 665 174 q 660 163 663 167 l 660 163 q 640 159 651 159 q 618 161 629 159 l 618 161 q 613 145 613 156 q 611 123 612 134 l 611 123 q 607 86 609 106 q 602 47 604 66 l 602 47 q 598 27 600 37 q 596 9 596 17 l 596 9 q 596 -1 596 3 q 590 -8 595 -5 l 590 -8 z m 108 249 l 108 249 q 106 263 112 260 q 93 271 100 266 l 93 271 q 89 276 91 272 q 85 281 87 279 l 85 281 q 82 288 83 284 q 79 292 81 292 l 79 292 q 71 287 75 294 q 66 274 66 279 l 66 274 q 68 266 66 272 q 71 258 70 260 l 71 258 q 86 244 76 248 q 108 249 96 239 z m 134 244 l 134 244 q 144 239 138 239 q 155 242 150 239 q 162 249 160 244 q 158 258 164 253 l 158 258 q 134 244 139 262 z m 342 384 l 342 384 q 355 397 348 389 q 360 416 361 405 l 360 416 q 358 423 360 420 q 356 431 356 426 l 356 431 q 349 444 350 434 q 348 464 347 454 l 348 464 q 351 477 349 470 q 352 488 353 483 l 352 488 l 339 477 q 322 461 331 469 q 305 444 313 452 l 305 444 q 297 438 301 441 q 291 432 293 435 l 291 432 q 286 426 288 429 q 280 420 283 423 l 280 420 q 262 403 270 412 q 242 386 253 394 l 242 386 q 231 373 238 380 q 228 357 224 366 l 228 357 q 249 353 239 356 q 270 350 259 350 l 270 350 q 276 350 272 349 q 282 350 279 351 l 282 350 q 289 349 285 350 q 295 348 292 348 l 295 348 q 302 349 299 348 q 310 350 305 350 l 310 350 q 322 350 316 351 q 334 350 328 348 l 334 350 q 337 369 337 358 q 342 384 337 379 z m 370 27 l 370 27 q 383 32 375 26 q 392 44 390 37 l 392 44 q 388 57 393 52 q 377 59 382 61 l 377 59 q 369 56 373 59 q 362 50 364 52 l 362 50 q 364 37 360 45 q 370 27 367 29 z m 458 683 l 458 683 q 460 692 459 687 q 459 700 460 696 l 459 700 q 428 710 448 708 q 397 702 408 712 l 397 702 q 393 695 394 699 q 389 686 391 690 l 389 686 q 385 681 387 683 q 381 675 382 678 l 381 675 q 381 669 380 672 q 382 662 382 665 l 382 662 q 390 658 386 660 q 397 656 393 656 l 397 656 q 405 660 400 656 q 412 666 409 664 l 412 666 q 420 671 416 668 q 426 675 423 673 l 426 675 q 443 679 435 680 q 458 683 450 678 z m 523 678 l 523 678 q 523 686 526 683 q 516 693 519 688 l 516 693 q 501 692 508 697 q 494 679 493 686 l 494 679 q 499 674 494 675 q 508 672 503 672 q 518 674 513 672 q 523 678 522 675 z m 546 172 l 546 172 q 564 142 541 146 l 564 142 q 567 159 567 149 q 564 177 566 169 l 564 177 q 567 183 566 180 q 570 188 568 185 l 570 188 q 581 194 575 192 q 592 199 587 196 l 592 199 q 605 202 600 197 l 605 202 q 597 213 603 209 q 583 218 590 217 q 567 216 575 218 q 555 210 559 214 l 555 210 q 551 192 554 202 q 546 172 548 181 z m 538 84 l 538 84 q 549 80 543 79 q 558 84 554 80 q 564 93 562 87 q 562 104 565 98 l 562 104 q 557 106 559 103 q 551 108 554 108 l 551 108 q 540 100 543 108 q 538 84 536 92 z m 671 459 l 671 459 q 674 446 673 454 q 666 436 674 437 l 666 436 q 656 441 661 438 l 656 441 q 658 457 654 450 q 671 459 662 464 z m 672 406 l 672 406 q 682 362 666 376 l 682 362 q 687 359 684 360 q 691 355 689 358 l 691 355 q 693 350 693 353 q 694 343 692 346 l 694 343 q 689 339 692 338 q 680 339 685 340 l 680 339 q 661 341 666 338 q 652 344 655 343 l 652 344 q 651 370 647 355 q 656 401 655 385 l 656 401 q 655 412 656 407 q 655 420 654 417 l 655 420 q 664 424 657 425 q 673 421 670 423 l 673 421 q 674 414 675 416 q 672 406 673 411 z m 319 419 l 319 419 q 330 415 327 421 q 331 400 333 408 l 331 400 q 326 386 330 396 l 326 386 q 318 366 323 375 l 318 366 q 295 365 306 367 q 275 367 284 362 l 275 367 q 290 377 284 375 q 300 382 295 379 l 300 382 q 310 400 305 390 q 319 419 314 410 z m 709 182 l 709 182 q 709 155 711 170 q 702 128 707 139 l 702 128 q 694 121 697 125 q 685 114 690 116 l 685 114 q 668 116 677 111 q 647 120 658 121 l 647 120 q 643 113 643 119 q 640 105 643 107 l 640 105 q 634 122 635 109 q 637 139 632 134 l 637 139 q 654 140 641 142 q 672 137 666 137 l 672 137 q 686 153 684 146 q 685 164 687 159 l 685 164 q 692 180 690 170 q 701 195 694 190 l 701 195 q 709 182 709 193 z m 61 188 l 61 188 q 93 188 76 186 q 124 182 109 189 l 124 182 q 118 175 123 177 q 106 170 112 172 l 106 170 q 89 167 98 167 q 71 168 80 166 l 71 168 q 56 167 64 164 q 38 169 47 169 l 38 169 q 31 169 33 169 q 23 173 28 169 l 23 173 q 16 181 21 174 q 10 190 11 188 l 10 190 q 11 199 9 195 q 14 207 12 203 l 14 207 q 31 204 29 207 q 36 197 32 200 l 36 197 q 48 191 41 192 q 61 188 55 189 z m 282 172 l 282 172 q 291 147 292 157 q 292 127 290 137 l 292 127 q 287 124 287 127 q 282 118 286 120 l 282 118 q 274 128 276 124 q 270 137 271 132 l 270 137 q 270 144 269 141 q 267 150 270 147 l 267 150 q 259 154 265 152 q 251 157 253 156 l 251 157 q 243 158 247 158 q 234 157 239 157 l 234 157 q 233 163 231 161 q 239 166 235 165 q 246 168 242 167 q 250 171 249 168 l 250 171 q 267 171 258 172 q 282 172 275 170 z m 621 -2 l 621 -2 q 627 10 623 3 q 638 14 631 16 l 638 14 q 640 -12 643 3 q 634 -39 637 -28 l 634 -39 q 624 -46 629 -43 q 612 -50 619 -49 l 612 -50 q 605 -49 608 -50 q 596 -48 601 -48 l 596 -48 q 572 -48 578 -50 q 560 -53 565 -47 l 560 -53 q 552 -49 556 -51 q 546 -44 548 -48 l 546 -44 q 552 -33 546 -36 q 564 -33 557 -30 l 564 -33 q 569 -36 567 -34 q 574 -39 571 -39 l 574 -39 q 581 -35 579 -39 q 586 -29 582 -31 l 586 -29 q 598 -28 597 -27 q 601 -28 599 -29 l 601 -28 q 611 -24 605 -28 q 618 -17 617 -21 l 618 -17 q 620 -10 620 -14 q 621 -2 620 -6 z"},"5":{"ha":736,"x_min":36,"x_max":707,"o":"m 314 760 l 309 754 q 281 744 300 745 q 252 752 262 743 l 252 752 q 253 762 251 758 q 256 768 254 765 l 256 768 q 291 772 271 773 q 331 771 311 771 l 331 771 q 355 771 348 772 q 369 769 361 769 l 369 769 q 382 770 375 769 q 393 771 388 770 l 393 771 q 406 772 397 772 l 406 772 q 422 777 414 774 q 434 779 429 780 l 434 779 q 445 777 438 779 q 453 772 452 774 l 453 772 q 439 763 444 763 q 427 762 433 763 l 427 762 q 405 758 412 758 q 393 758 398 758 l 393 758 q 364 760 378 758 q 333 761 349 761 l 333 761 q 323 762 328 761 q 314 760 318 762 l 314 760 z m 594 760 l 594 760 q 590 767 591 762 q 591 776 588 772 l 591 776 q 626 779 613 777 q 652 780 639 780 l 652 780 q 660 779 656 780 q 667 778 664 778 l 667 778 q 674 780 671 779 q 680 781 677 781 l 680 781 q 688 773 687 779 q 692 761 689 767 l 692 761 q 691 753 691 759 q 689 739 690 746 q 687 727 688 732 q 682 720 685 721 l 682 720 q 672 740 674 734 q 669 754 670 746 l 669 754 q 664 758 667 756 q 656 761 661 760 l 656 761 q 649 764 654 763 q 640 763 643 764 l 640 763 q 625 759 631 758 q 614 760 619 760 l 614 760 q 602 760 608 760 q 594 760 596 759 z m 684 200 l 684 200 q 680 187 681 188 q 679 183 679 185 l 679 183 q 671 156 676 165 q 660 137 665 147 l 660 137 q 640 119 650 127 q 616 100 629 110 l 616 100 q 599 79 601 86 q 590 63 596 72 l 590 63 q 586 57 588 60 q 582 52 584 54 l 582 52 q 574 47 579 49 q 566 43 569 45 l 566 43 q 561 40 563 41 q 554 36 558 38 l 554 36 q 538 26 546 31 q 521 15 529 20 l 521 15 q 488 6 506 9 q 451 0 470 3 l 451 0 q 414 -6 432 -4 q 374 -9 395 -9 l 374 -9 q 355 -9 364 -9 q 337 -10 346 -10 l 337 -10 q 322 -10 329 -11 q 307 -7 314 -9 l 307 -7 q 279 -3 293 -4 q 252 2 264 -3 l 252 2 q 223 10 235 7 q 199 18 210 13 q 179 29 188 22 q 167 48 170 35 l 167 48 q 161 54 162 50 q 157 62 160 57 l 157 62 q 150 71 155 67 q 140 77 145 75 l 140 77 q 127 76 134 79 q 112 76 120 72 l 112 76 q 104 89 109 84 q 93 98 99 93 l 93 98 q 84 108 88 103 q 75 118 80 112 l 75 118 q 70 133 67 127 q 77 150 72 139 l 77 150 q 82 159 79 155 q 87 168 84 163 l 87 168 q 97 177 92 173 q 104 188 102 180 l 104 188 q 114 194 109 190 q 125 197 119 197 l 125 197 q 137 198 134 197 q 141 199 139 199 l 141 199 q 146 198 143 199 q 152 197 148 197 l 152 197 q 157 197 154 196 q 163 196 160 197 l 163 196 q 175 189 173 189 q 179 187 177 189 l 179 187 q 190 181 184 185 q 201 174 196 177 l 201 174 q 212 169 206 171 q 223 164 218 166 l 223 164 q 231 158 228 161 q 239 151 234 154 l 239 151 q 257 140 247 144 q 274 131 266 136 l 274 131 q 296 120 283 126 q 322 113 309 113 l 322 113 q 344 120 331 115 l 344 120 q 355 124 349 122 q 366 127 361 125 l 366 127 q 375 133 371 129 q 384 141 379 137 l 384 141 q 393 149 388 144 q 400 157 398 153 l 400 157 q 411 172 406 169 q 417 180 415 175 l 417 180 q 419 187 419 183 q 420 193 419 190 l 420 193 q 426 202 422 198 q 432 210 429 205 l 432 210 q 442 213 436 210 q 449 220 447 215 l 449 220 q 447 228 450 224 q 442 236 444 232 l 442 236 q 438 240 440 238 q 433 243 435 241 l 433 243 q 431 253 431 248 q 429 264 431 258 l 429 264 q 426 284 425 279 q 428 292 427 289 l 428 292 q 439 306 431 300 q 439 322 446 312 l 439 322 q 420 328 431 327 q 397 329 408 328 l 397 329 q 385 335 392 333 l 385 335 q 374 347 378 343 q 361 353 369 351 l 361 353 q 336 359 351 357 l 336 359 q 322 362 329 360 q 309 364 315 364 l 309 364 q 301 363 305 364 q 293 364 297 362 l 293 364 q 276 366 285 365 q 259 365 267 366 l 259 365 q 246 365 249 364 q 238 365 242 365 l 238 365 q 224 365 230 365 q 209 364 217 364 l 209 364 q 191 363 201 364 q 173 360 181 361 l 173 360 q 159 359 162 358 q 151 359 155 359 l 151 359 q 142 359 146 360 q 134 358 138 358 l 134 358 q 121 360 127 359 q 109 361 114 361 l 109 361 q 101 359 104 360 q 95 358 98 358 l 95 358 q 77 366 84 360 q 65 379 70 372 l 65 379 q 63 405 61 391 q 58 428 64 418 l 58 428 q 61 446 60 436 q 66 464 61 456 l 66 464 q 69 470 67 467 q 72 474 71 472 l 72 474 q 73 481 73 477 q 73 487 72 484 l 73 487 q 76 495 74 492 q 77 503 77 498 l 77 503 q 75 513 77 508 q 70 522 72 518 l 70 522 q 67 527 69 524 q 62 532 64 529 l 62 532 q 58 549 59 540 q 57 567 57 558 l 57 567 q 58 604 56 584 q 59 641 60 623 l 59 641 q 54 682 57 661 q 61 717 50 703 l 61 717 q 81 730 76 722 l 81 730 q 104 734 92 733 q 128 733 116 734 l 128 733 q 147 735 137 733 q 165 737 156 736 l 165 737 q 174 737 170 738 q 183 736 178 736 l 183 736 q 192 738 188 736 q 201 739 196 739 l 201 739 q 206 739 203 740 q 212 738 209 738 l 212 738 q 220 739 216 738 q 227 740 224 740 l 227 740 q 234 738 230 740 q 242 738 238 736 l 242 738 q 251 731 245 733 q 262 727 256 729 l 262 727 q 274 723 267 725 q 285 719 280 720 l 285 719 q 297 720 291 718 q 307 721 302 722 l 307 721 q 323 730 318 724 q 339 738 328 736 l 339 738 q 348 739 343 739 q 357 739 352 739 l 357 739 q 371 739 364 740 q 384 738 378 738 l 384 738 q 401 738 397 739 q 409 736 404 736 l 409 736 q 415 738 412 736 q 421 739 418 740 l 421 739 q 427 736 424 739 q 435 732 430 732 l 435 732 q 456 735 447 730 q 474 744 465 740 l 474 744 q 490 743 482 742 q 506 743 498 744 l 506 743 q 543 742 522 741 q 582 744 564 743 l 582 744 q 601 746 592 746 l 601 746 q 626 744 618 743 q 638 742 633 744 l 638 742 q 645 737 641 740 q 650 731 648 733 l 650 731 q 650 721 652 725 q 648 711 647 717 l 648 711 q 650 704 648 707 q 653 697 652 701 l 653 697 q 654 686 654 692 q 654 674 653 680 l 654 674 q 657 659 655 666 q 658 647 658 652 l 658 647 q 659 633 659 640 q 656 621 658 625 l 656 621 q 650 615 654 617 q 642 611 646 613 l 642 611 q 634 604 637 607 q 625 599 631 601 l 625 599 l 606 599 q 580 600 592 599 q 554 601 568 600 l 554 601 q 545 607 550 605 q 534 611 539 608 l 534 611 q 529 615 531 613 q 525 618 527 617 l 525 618 q 493 616 504 616 q 469 613 481 616 l 469 613 q 459 610 464 611 q 449 606 453 608 l 449 606 q 433 601 437 600 q 426 600 429 601 l 426 600 q 414 599 420 599 q 401 598 408 599 l 401 598 q 369 597 385 596 q 338 594 352 597 l 338 594 q 335 571 336 584 q 336 547 333 558 l 336 547 q 335 522 333 533 q 335 496 337 510 l 335 496 q 344 499 340 496 q 352 503 347 501 l 352 503 q 358 504 355 504 q 366 504 361 503 l 366 504 q 372 505 369 504 q 379 506 375 506 l 379 506 q 389 505 384 506 q 399 505 393 504 l 399 505 q 414 507 408 507 q 428 506 420 507 l 428 506 q 442 504 438 504 l 442 504 q 458 505 450 504 q 471 504 465 506 l 471 504 q 497 500 487 499 q 516 498 507 500 l 516 498 q 535 492 525 496 q 552 482 544 487 l 552 482 q 583 466 569 474 q 607 442 597 457 l 607 442 q 625 421 619 431 l 625 421 q 632 412 628 416 q 638 403 636 408 l 638 403 q 639 393 640 398 q 640 382 638 388 l 640 382 q 644 375 642 378 q 647 369 645 371 l 647 369 q 652 362 649 366 q 658 355 655 358 l 658 355 q 663 352 660 353 q 667 348 665 350 l 667 348 q 673 334 671 343 q 677 315 675 325 l 677 315 q 684 290 680 304 q 688 262 688 276 l 688 262 q 689 249 688 255 q 688 236 689 242 l 688 236 q 688 230 688 232 q 687 225 687 227 l 687 225 q 687 209 688 213 q 684 200 685 205 z m 594 669 l 589 662 q 579 648 584 656 q 584 635 573 640 l 584 635 q 594 637 590 639 q 602 635 598 635 l 602 635 q 611 637 606 635 q 617 640 615 638 l 617 640 q 621 651 619 642 q 621 664 622 659 l 621 664 q 618 672 620 667 q 613 677 615 677 l 613 677 q 604 676 610 679 q 594 669 597 672 l 594 669 z m 131 406 l 131 406 q 127 426 136 417 l 127 426 q 109 417 115 422 q 101 407 103 412 l 101 407 q 103 398 99 400 q 113 396 107 395 q 124 399 118 396 q 131 406 129 402 z m 168 688 l 168 688 q 167 697 170 694 q 157 700 163 699 q 146 700 151 700 q 137 700 140 700 l 137 700 q 114 694 126 700 q 99 683 101 688 l 99 683 q 98 666 96 675 q 98 649 99 657 l 98 649 q 97 633 97 640 q 100 620 97 625 l 100 620 q 115 616 107 611 q 124 629 123 620 l 124 629 q 123 638 124 634 q 122 646 121 642 l 122 646 q 126 663 122 655 l 126 663 q 138 673 128 668 q 152 680 147 678 l 152 680 q 161 682 154 681 q 168 688 167 683 z m 216 670 l 216 670 q 229 677 224 671 q 233 689 234 682 l 233 689 q 227 698 232 694 q 217 703 222 701 l 217 703 q 208 697 211 700 q 201 691 205 694 l 201 691 q 207 679 204 684 q 216 670 210 673 z m 129 123 l 129 123 q 142 131 133 124 q 151 139 151 137 l 151 139 q 148 145 151 141 q 142 148 144 148 l 142 148 q 137 145 139 148 q 130 142 135 142 l 130 142 q 124 136 129 137 q 119 128 119 134 l 119 128 q 129 123 121 123 z m 381 65 l 381 65 q 413 79 401 63 q 430 110 425 94 l 430 110 q 421 115 425 115 q 412 111 416 114 q 404 104 408 108 q 396 96 400 99 l 396 96 q 372 85 386 87 q 345 79 357 83 l 345 79 q 361 68 350 71 q 381 65 372 65 z m 634 298 l 634 298 q 623 297 627 301 q 618 286 619 292 q 621 277 617 280 q 634 278 625 273 l 634 278 q 634 298 636 288 z m 635 175 l 636 183 q 643 204 639 193 q 645 226 646 214 l 645 226 q 638 232 640 227 q 631 239 636 237 l 631 239 q 624 238 627 241 q 621 232 621 234 l 621 232 q 620 225 621 227 q 617 218 619 222 l 617 218 q 615 201 616 205 q 611 193 613 197 l 611 193 q 608 183 609 188 q 604 176 606 178 l 604 176 q 594 167 601 171 q 585 155 586 162 l 585 155 q 587 144 584 150 q 590 134 590 138 l 590 134 q 603 133 598 131 q 613 139 608 134 l 613 139 q 619 144 615 142 q 624 148 622 146 l 624 148 q 628 162 626 152 l 628 162 q 632 169 630 166 q 635 175 634 172 l 635 175 z m 76 311 l 76 311 q 64 310 70 309 q 54 312 57 310 l 54 312 q 43 331 46 319 q 36 355 39 343 l 36 355 q 38 367 39 359 q 39 378 36 375 l 39 378 q 48 374 46 380 q 48 362 49 367 l 48 362 q 55 354 53 360 q 61 343 56 347 l 61 343 q 75 340 68 342 q 90 337 82 338 l 90 337 q 104 337 96 336 q 110 329 111 337 l 110 329 q 96 317 110 321 q 76 311 82 312 z m 407 306 l 407 306 q 405 293 409 298 q 394 285 400 288 l 394 285 q 397 279 394 281 q 400 272 399 277 l 400 272 q 399 261 401 267 q 393 254 396 254 l 393 254 q 386 259 391 253 q 379 267 380 265 l 379 267 q 377 276 377 272 q 375 283 377 280 l 375 283 q 368 294 371 291 l 368 294 q 363 299 366 296 q 360 307 360 302 l 360 307 q 350 312 357 311 q 338 315 343 312 l 338 315 q 329 322 333 318 q 321 315 324 326 l 321 315 q 316 324 312 317 q 322 336 319 331 l 322 336 q 355 329 344 339 q 378 308 365 318 l 378 308 q 394 312 385 312 q 407 306 402 312 z m 697 158 l 697 158 q 703 152 699 157 q 706 142 707 147 l 706 142 q 701 134 706 137 q 690 129 695 131 l 690 129 q 683 136 684 130 q 683 148 681 142 q 688 157 684 153 q 697 158 692 160 z m 670 115 l 674 125 q 674 92 684 106 q 654 66 664 77 l 654 66 q 646 55 649 60 q 638 44 642 49 l 638 44 q 630 36 633 39 q 621 29 626 33 l 621 29 q 613 23 616 27 q 606 15 610 18 l 606 15 q 600 11 604 13 q 592 7 596 9 l 592 7 q 581 -1 586 2 q 567 -8 575 -5 l 567 -8 q 550 -13 559 -12 q 532 -19 540 -14 l 532 -19 q 523 -25 527 -21 q 514 -31 519 -29 l 514 -31 q 501 -33 509 -30 q 486 -38 493 -36 q 474 -38 479 -40 q 468 -26 468 -37 l 468 -26 q 482 -14 473 -15 l 482 -14 q 487 -14 484 -14 q 493 -15 489 -15 l 493 -15 q 507 -10 504 -10 q 513 -10 510 -11 l 513 -10 q 526 -3 520 -8 q 540 3 532 1 l 540 3 q 562 12 551 7 q 583 24 572 16 l 583 24 q 604 41 594 32 q 624 55 613 50 l 624 55 q 629 61 626 58 q 633 68 631 64 l 633 68 q 634 76 631 73 q 639 81 637 78 l 639 81 q 644 90 641 85 q 650 98 647 95 l 650 98 q 661 107 655 103 q 670 115 667 110 l 670 115 z m 129 45 l 129 45 q 139 36 133 42 q 144 23 145 29 l 144 23 q 140 16 143 18 q 133 11 136 14 l 133 11 q 115 21 121 14 q 108 33 109 28 l 108 33 q 114 47 106 42 q 129 45 121 51 z"},"6":{"ha":703,"x_min":25,"x_max":675,"o":"m 653 165 l 653 165 q 653 149 652 157 q 651 134 653 140 l 651 134 q 649 129 650 131 q 646 123 648 126 l 646 123 q 640 112 642 115 l 640 112 q 629 93 631 98 q 624 84 627 88 l 624 84 q 613 76 619 79 q 599 69 606 72 l 599 69 q 590 62 594 66 q 581 56 586 58 l 581 56 q 575 44 578 50 q 570 30 572 38 l 570 30 q 564 22 568 25 q 556 15 560 19 l 556 15 q 544 4 549 9 q 531 -7 539 -2 l 531 -7 q 510 -18 515 -14 q 498 -25 504 -23 l 498 -25 q 478 -31 488 -29 q 456 -37 467 -34 l 456 -37 q 437 -42 446 -40 q 417 -46 427 -45 l 417 -46 q 404 -46 410 -46 q 391 -47 397 -47 l 391 -47 q 385 -46 387 -47 q 379 -45 382 -45 l 379 -45 q 354 -46 361 -46 q 340 -45 346 -46 l 340 -45 q 325 -42 334 -44 q 308 -41 315 -41 l 308 -41 q 296 -36 301 -38 q 282 -34 290 -34 l 282 -34 q 237 -15 261 -22 q 195 4 213 -8 l 195 4 q 190 7 192 5 q 186 11 188 9 l 186 11 q 180 15 183 13 q 172 18 176 16 l 172 18 q 163 26 169 21 q 154 35 157 31 l 154 35 q 149 40 152 37 q 145 45 146 43 l 145 45 q 142 66 144 58 l 142 66 q 143 75 142 71 q 142 82 144 79 l 142 82 q 131 91 140 90 q 116 97 121 92 l 116 97 q 109 109 113 104 q 99 120 104 114 l 99 120 q 98 149 91 138 q 104 170 104 160 l 104 170 q 102 187 105 178 q 93 198 98 196 l 93 198 q 78 217 89 212 q 58 229 66 221 l 58 229 q 55 310 50 269 q 66 383 59 351 l 66 383 q 84 426 77 403 q 103 467 90 449 l 103 467 q 110 487 105 478 q 120 504 115 495 l 120 504 q 127 518 123 511 l 127 518 q 135 532 131 525 q 144 543 139 538 l 144 543 q 173 570 161 554 q 197 600 184 585 l 197 600 q 211 608 204 603 q 225 613 217 612 l 225 613 q 231 620 227 617 q 237 627 235 622 l 237 627 q 240 636 239 631 q 242 645 240 641 l 242 645 q 245 651 243 648 q 249 656 247 653 l 249 656 q 252 663 251 659 q 254 668 252 666 l 254 668 q 263 675 256 671 q 276 682 270 679 l 276 682 q 289 688 283 684 q 300 695 295 692 l 300 695 q 308 698 304 697 q 316 700 312 698 l 316 700 q 326 707 321 702 q 336 713 331 711 l 336 713 q 347 717 341 715 q 357 721 352 719 l 357 721 q 363 724 359 723 q 369 725 366 724 l 369 725 q 378 727 374 727 q 387 729 382 727 l 387 729 q 393 732 390 730 q 398 734 395 733 l 398 734 q 415 737 406 736 q 432 740 423 738 l 432 740 q 450 744 440 742 q 467 748 459 746 l 467 748 q 492 746 478 749 q 516 742 505 743 l 516 742 q 539 727 528 732 l 539 727 q 543 712 541 719 q 547 695 545 704 l 547 695 q 552 680 549 687 q 553 664 554 672 l 553 664 q 552 645 550 651 q 552 634 553 639 l 552 634 q 548 623 548 626 q 546 617 548 620 l 546 617 q 534 612 540 616 q 521 606 527 608 l 521 606 q 509 604 516 604 q 493 601 501 603 l 493 601 q 471 598 482 599 q 454 594 460 597 l 454 594 q 433 585 440 586 q 422 585 426 583 l 422 585 q 417 589 419 586 q 412 592 414 591 l 412 592 q 399 589 407 593 q 387 580 390 585 l 387 580 q 383 570 384 575 q 380 559 382 564 l 380 559 q 371 550 375 554 q 359 541 366 545 l 359 541 q 338 521 349 530 q 316 501 327 511 l 316 501 q 302 480 308 490 q 288 458 295 469 l 288 458 q 275 432 282 445 q 265 401 267 418 l 265 401 q 278 415 272 407 q 291 429 283 423 l 291 429 q 298 433 294 431 q 304 437 301 435 l 304 437 q 323 450 312 442 q 344 460 333 457 l 344 460 q 355 468 348 465 q 368 474 361 471 l 368 474 q 394 480 382 476 q 419 485 406 483 l 419 485 q 427 485 426 484 q 430 486 428 486 l 430 486 q 449 487 440 488 q 469 484 458 486 l 469 484 q 484 482 477 482 q 495 478 490 481 l 495 478 q 510 477 502 478 q 521 470 517 475 l 521 470 q 580 436 556 460 q 626 384 604 411 l 626 384 q 635 363 631 374 q 646 341 639 352 l 646 341 q 653 330 649 335 q 658 318 656 324 l 658 318 q 660 304 660 311 q 662 290 660 297 l 662 290 q 664 285 662 287 q 665 279 665 282 l 665 279 q 666 269 666 274 q 664 259 665 264 l 664 259 q 664 237 666 244 q 662 222 662 229 l 662 222 q 662 213 660 217 q 662 203 663 208 l 662 203 q 657 190 658 195 l 657 190 q 655 173 656 176 q 653 165 654 169 z m 513 664 l 513 664 q 494 661 502 669 q 481 643 485 652 l 481 643 q 486 639 483 640 q 492 636 488 638 l 492 636 q 510 644 502 639 q 513 664 518 649 z m 113 297 l 113 297 q 108 318 113 312 q 98 322 103 324 l 98 322 q 91 292 93 307 q 93 257 89 276 l 93 257 q 103 249 101 249 q 106 248 104 249 l 106 248 q 114 269 115 253 q 113 297 112 284 z m 144 210 l 144 210 q 144 222 147 215 q 137 230 141 228 l 137 230 q 132 223 134 224 q 128 221 130 222 l 128 221 q 131 208 123 213 q 144 210 139 203 z m 441 202 l 441 202 q 457 218 449 206 q 461 241 464 230 l 461 241 q 457 249 460 246 q 451 255 453 252 l 451 255 q 449 263 449 258 q 447 271 449 267 l 447 271 q 444 283 446 277 q 440 294 442 289 l 440 294 q 435 311 437 304 q 429 324 433 317 l 429 324 q 408 346 420 338 q 377 353 396 354 l 377 353 q 348 347 359 352 q 325 331 337 341 l 325 331 q 320 322 324 326 q 313 312 315 317 l 313 312 q 310 303 311 308 q 307 292 309 297 l 307 292 q 303 277 305 284 q 298 262 300 269 l 298 262 q 297 252 297 257 q 296 242 297 247 l 296 242 l 296 221 q 300 195 298 208 q 305 172 301 181 l 305 172 q 319 149 312 153 q 334 141 325 145 l 334 141 q 347 137 340 139 q 359 133 354 135 l 359 133 q 384 132 373 130 q 404 138 395 134 l 404 138 q 421 156 412 149 q 433 175 430 163 l 433 175 q 436 190 435 183 q 441 202 436 197 z m 474 154 l 474 154 q 491 157 485 153 q 498 169 496 161 q 500 186 500 176 q 499 204 500 195 l 499 204 q 481 189 487 202 l 481 189 q 470 173 476 182 q 474 154 464 163 z m 472 575 l 478 575 q 516 590 495 586 q 555 602 536 593 l 555 602 q 563 603 560 601 q 570 605 566 604 l 570 605 q 582 649 581 629 l 582 649 q 594 641 594 645 q 594 632 593 637 l 594 632 q 596 614 595 623 q 591 597 596 604 l 591 597 q 582 589 589 594 q 569 582 574 583 l 569 582 q 553 579 556 580 q 548 575 550 577 l 548 575 q 542 575 545 574 q 536 574 539 575 l 536 574 q 525 572 530 573 q 515 570 520 570 l 515 570 q 503 569 509 568 q 493 565 497 569 l 493 565 q 489 561 490 563 q 485 557 487 558 l 485 557 q 473 563 477 555 q 472 575 468 570 l 472 575 z m 454 546 l 454 546 q 450 558 446 550 q 462 565 454 566 l 462 565 q 464 554 468 560 q 454 546 460 548 z m 402 316 l 408 315 q 417 302 412 309 q 420 286 421 294 l 420 286 q 424 269 426 280 q 409 259 421 257 l 409 259 q 406 264 407 261 q 406 270 404 267 l 406 270 q 412 274 408 272 q 414 279 415 275 l 414 279 q 406 277 412 279 q 397 278 400 275 l 397 278 q 386 305 394 295 q 360 310 377 315 l 360 310 q 348 298 349 303 q 340 291 346 293 l 340 291 q 339 303 335 298 q 341 314 342 307 l 341 314 q 355 324 346 320 q 372 329 363 328 q 389 327 381 330 q 402 316 397 324 l 402 316 z m 97 92 l 97 92 q 109 88 102 91 q 117 79 116 84 l 117 79 q 115 72 118 75 q 110 63 112 68 l 110 63 q 98 65 102 61 q 90 73 94 68 l 90 73 q 81 85 85 78 q 72 99 77 91 l 72 99 q 58 126 63 112 q 49 157 52 139 l 49 157 q 44 166 44 160 q 42 180 44 172 l 42 180 q 38 197 41 188 q 32 210 35 205 l 32 210 q 27 228 25 223 q 34 231 29 233 l 34 231 q 39 224 37 230 q 43 216 41 218 l 43 216 q 52 209 47 211 q 62 203 57 207 l 62 203 q 72 194 68 200 q 79 182 75 187 l 79 182 q 80 171 81 176 q 77 161 78 165 l 77 161 q 76 147 75 154 q 73 134 76 139 l 73 134 q 85 113 79 123 q 97 92 91 102 z m 655 77 l 655 77 q 649 85 649 80 q 652 95 648 90 q 661 103 655 100 q 673 102 667 105 l 673 102 q 670 86 675 92 q 655 77 664 79 z m 618 48 l 618 48 q 628 58 623 51 q 640 59 633 64 l 640 59 q 631 33 641 42 q 611 12 621 23 l 611 12 q 601 2 605 4 q 594 -4 597 -1 l 594 -4 q 576 -18 583 -14 q 563 -27 569 -23 l 563 -27 q 545 -39 558 -33 q 521 -49 532 -46 l 521 -49 q 509 -45 510 -51 q 513 -33 508 -39 l 513 -33 q 521 -29 518 -32 q 528 -26 523 -27 l 528 -26 q 564 -3 548 -16 l 564 -3 q 579 11 572 3 q 593 25 585 18 l 593 25 q 598 31 595 28 q 603 36 600 33 l 603 36 q 610 42 607 39 q 618 48 613 45 z"},"7":{"ha":700,"x_min":14,"x_max":706,"o":"m 689 777 l 698 776 q 703 766 700 771 q 705 755 705 761 l 705 755 q 704 745 705 750 q 703 734 703 739 l 703 734 q 704 723 705 726 q 702 717 702 720 l 702 717 q 704 705 702 710 q 706 694 706 700 l 706 694 q 704 690 705 692 q 701 684 702 687 l 701 684 q 696 663 700 669 q 690 651 692 656 l 690 651 q 685 640 687 646 q 676 633 683 633 l 676 633 q 675 639 674 635 q 677 646 675 643 l 677 646 q 682 657 679 651 q 688 667 685 662 l 688 667 q 686 678 684 672 q 689 688 688 684 l 689 688 q 686 714 686 705 q 684 730 686 722 l 684 730 q 674 754 681 743 l 674 754 q 657 762 668 761 q 637 767 645 762 l 637 767 q 664 776 649 776 q 689 777 678 775 l 689 777 z m 644 744 l 644 744 q 651 741 648 742 q 656 737 654 739 l 656 737 q 666 714 663 730 q 667 687 668 698 l 667 687 q 667 674 666 676 q 667 670 667 672 l 667 670 l 664 658 q 660 650 660 653 q 658 643 660 646 l 658 643 q 653 632 656 637 q 648 620 650 626 l 648 620 q 636 607 643 613 q 624 594 629 601 l 624 594 q 620 588 622 592 q 617 580 617 583 l 617 580 q 619 573 617 576 q 620 567 620 570 l 620 567 q 617 551 621 559 q 611 535 613 543 l 611 535 q 607 514 609 524 q 599 494 604 503 l 599 494 q 587 464 591 473 q 578 443 582 454 l 578 443 q 561 396 569 420 q 545 349 553 372 l 545 349 q 543 343 543 346 q 542 336 543 339 l 542 336 q 535 321 539 328 q 528 305 531 313 l 528 305 l 516 275 q 503 234 511 253 q 486 196 495 215 l 486 196 q 477 185 481 190 q 468 173 473 179 l 468 173 q 458 156 462 166 q 450 135 453 145 l 450 135 q 449 124 448 130 q 449 112 450 118 l 449 112 q 445 99 444 101 q 444 95 445 97 l 444 95 q 442 90 443 92 q 439 84 440 87 l 439 84 q 432 63 435 77 l 432 63 q 419 16 425 43 l 419 16 q 414 11 415 14 q 409 5 413 7 l 409 5 q 401 4 407 4 q 389 3 394 3 l 389 3 q 379 3 384 3 q 369 4 373 2 l 369 4 q 363 7 366 5 q 356 10 359 9 l 356 10 q 338 8 345 12 q 324 -3 331 3 l 324 -3 q 300 -5 312 -6 q 274 -6 288 -5 l 274 -6 q 253 -9 259 -9 q 240 -10 246 -10 l 240 -10 q 232 -9 235 -10 q 224 -8 228 -8 l 224 -8 q 212 -10 218 -9 q 199 -12 205 -12 l 199 -12 q 177 -12 187 -13 q 155 -9 166 -11 l 155 -9 q 150 1 153 -3 q 146 12 146 5 l 146 12 q 147 17 146 15 q 150 23 148 19 l 150 23 q 153 34 152 29 q 158 42 154 39 l 158 42 q 171 85 164 64 q 187 125 177 106 l 187 125 q 206 142 193 136 q 223 159 218 148 l 223 159 q 227 185 229 170 q 224 213 224 199 l 224 213 q 232 239 227 227 q 242 262 237 251 l 242 262 q 263 315 253 288 q 285 367 272 341 l 285 367 q 297 398 292 382 q 304 430 301 414 l 304 430 q 310 440 305 436 q 320 447 315 443 q 328 456 324 451 q 331 466 331 460 l 331 466 q 329 473 331 470 q 327 480 327 476 l 327 480 q 331 493 327 485 q 337 506 335 500 l 337 506 q 343 519 340 512 q 348 530 346 525 l 348 530 q 349 536 349 533 q 350 541 349 539 l 350 541 q 353 546 351 543 q 356 551 354 549 l 356 551 q 363 568 359 560 q 368 586 366 576 l 368 586 q 362 586 365 587 q 355 584 358 584 l 355 584 q 346 587 350 584 q 337 592 341 589 q 329 597 333 595 q 318 597 324 598 l 318 597 q 307 590 310 595 q 297 581 304 585 l 297 581 q 254 574 274 579 l 254 574 q 236 574 245 573 q 219 574 227 574 l 219 574 q 211 573 214 574 q 204 571 208 571 l 204 571 q 160 569 179 572 l 160 569 q 139 567 148 568 q 118 567 130 566 l 118 567 q 103 568 109 568 q 90 569 96 567 l 90 569 q 68 582 79 573 q 56 605 57 590 l 56 605 q 57 629 56 617 q 56 653 58 641 l 56 653 q 52 671 55 662 q 50 690 49 680 l 50 690 q 55 700 51 696 q 60 711 58 704 l 60 711 q 79 714 70 712 q 95 713 87 715 l 95 713 q 110 704 103 711 q 125 696 117 697 l 125 696 q 130 697 127 696 q 136 699 133 698 l 136 699 q 176 708 156 702 q 209 726 195 714 l 209 726 q 243 728 223 728 q 280 729 262 728 l 280 729 q 288 731 284 729 q 297 733 292 732 l 297 733 q 334 736 315 735 q 367 738 352 736 l 367 738 q 376 739 372 739 q 381 741 379 739 l 381 741 q 415 741 395 742 q 451 739 435 740 l 451 739 q 461 739 456 739 q 471 738 466 738 l 471 738 q 487 741 477 738 q 503 744 496 743 l 503 744 q 539 746 520 746 q 580 750 557 746 l 580 750 q 591 751 585 751 q 601 751 596 751 l 601 751 q 616 752 609 751 q 630 751 623 753 l 630 751 q 637 749 633 751 q 644 744 640 746 z m 131 597 l 131 597 q 155 600 142 596 q 166 616 168 604 l 166 616 q 142 626 145 618 q 133 639 138 633 l 133 639 q 122 641 128 640 q 112 636 115 641 l 112 636 q 111 623 110 624 q 112 620 112 622 l 112 620 q 107 613 106 615 q 109 609 108 611 l 109 609 q 119 602 114 607 q 131 597 123 597 z m 209 606 l 209 606 q 218 614 216 605 q 213 627 219 622 l 213 627 q 203 617 205 626 q 209 606 201 607 z m 206 23 l 206 23 q 214 27 210 23 q 219 37 217 31 q 219 47 220 42 q 213 55 218 52 l 213 55 q 199 49 207 53 q 191 36 190 44 l 191 36 q 196 27 191 31 q 206 23 201 22 z m 410 78 l 410 78 q 412 97 411 86 q 408 115 413 107 l 408 115 q 389 101 395 109 l 389 101 q 384 91 387 97 q 379 78 381 84 l 379 78 q 365 70 371 70 q 352 68 358 69 q 341 65 346 67 q 336 58 336 63 l 336 58 q 351 44 345 43 q 365 43 357 45 l 365 43 q 393 47 385 41 l 393 47 q 398 54 396 49 q 401 63 399 58 q 404 72 402 68 q 410 78 406 76 z m 622 667 l 622 667 q 627 683 626 672 q 626 700 628 694 l 626 700 q 619 705 622 702 q 613 711 615 707 l 613 711 q 602 713 608 713 q 586 711 596 713 l 586 711 q 576 711 581 711 q 568 710 571 711 l 568 710 q 562 707 565 710 q 556 701 558 704 q 553 694 553 697 q 557 687 552 690 l 557 687 q 568 685 562 684 q 582 684 574 686 l 582 684 q 595 674 593 677 q 597 663 597 671 l 597 663 q 610 662 603 661 q 622 667 617 662 z m 26 631 l 26 631 q 19 632 21 629 q 16 639 16 635 q 19 646 16 643 q 26 648 21 649 l 26 648 q 30 639 29 645 q 26 631 30 633 z m 113 546 l 113 546 q 111 537 115 540 q 99 533 106 534 q 83 530 91 531 q 70 529 74 529 l 70 529 q 57 527 64 529 q 44 526 49 525 l 44 526 q 29 529 36 526 q 19 538 21 532 l 19 538 q 18 550 18 542 l 18 550 q 18 567 17 557 q 18 587 19 577 l 18 587 q 16 595 17 591 q 15 603 14 599 l 15 603 q 23 615 17 610 q 36 612 29 619 l 36 612 q 38 596 38 604 q 37 581 37 588 q 38 567 36 573 q 45 557 39 561 l 45 557 q 54 553 53 554 q 56 551 54 551 l 56 551 q 63 550 59 549 q 69 549 66 550 l 69 549 q 76 548 73 549 q 82 546 79 546 l 82 546 q 98 547 90 545 q 113 546 105 548 z m 314 506 l 314 506 q 300 518 303 507 q 304 536 297 528 l 304 536 q 299 542 302 541 q 293 545 295 542 l 293 545 q 276 546 284 547 q 261 543 268 545 q 246 539 253 541 q 229 537 238 537 l 229 537 q 226 550 224 542 l 226 550 q 242 555 232 557 q 262 555 252 553 l 262 555 q 296 559 283 559 q 317 564 308 559 l 317 564 q 334 558 328 564 l 334 558 q 329 541 333 548 q 324 523 325 534 l 324 523 q 319 514 320 518 q 314 506 318 510 z m 532 245 l 534 246 q 540 239 541 244 q 538 229 539 233 l 538 229 q 535 215 535 222 q 531 201 535 207 l 531 201 q 527 195 529 197 q 525 187 524 192 l 525 187 q 515 169 521 179 q 505 150 509 159 l 505 150 q 503 141 503 145 q 500 133 502 137 l 500 133 q 491 124 497 128 q 476 121 484 119 l 476 121 q 475 138 472 129 q 481 154 478 146 l 481 154 q 490 169 485 162 q 500 180 494 175 l 500 180 q 506 190 505 190 q 508 191 507 190 l 508 191 q 520 218 518 202 q 532 245 522 234 l 532 245 z m 182 -31 l 182 -31 q 197 -28 188 -30 q 207 -35 206 -27 l 207 -35 q 195 -43 207 -42 q 175 -46 183 -45 l 175 -46 q 162 -45 168 -47 q 147 -43 155 -44 l 147 -43 q 139 -44 143 -43 q 130 -45 135 -45 l 130 -45 q 117 -44 119 -44 q 113 -44 115 -45 l 113 -44 q 94 -25 96 -42 l 94 -25 q 97 -2 92 -13 q 103 20 101 8 l 103 20 q 111 36 108 27 q 118 50 113 44 l 118 50 q 125 49 123 51 q 129 44 126 46 l 129 44 q 127 38 128 41 q 126 30 125 35 l 126 30 q 119 11 119 25 l 119 11 q 123 -14 117 -7 q 133 -29 128 -21 l 133 -29 q 157 -32 143 -32 q 182 -31 171 -33 z"},"8":{"ha":757,"x_min":66,"x_max":736,"o":"m 699 185 l 699 185 q 698 166 699 176 q 695 145 696 156 l 695 145 q 693 129 694 133 q 689 120 691 125 l 689 120 q 686 112 687 116 q 682 103 684 108 l 682 103 q 679 95 680 99 q 675 87 678 91 l 675 87 q 667 75 667 77 q 664 71 666 73 l 664 71 q 657 64 661 67 q 650 56 653 60 l 650 56 q 644 49 646 52 q 637 41 641 45 l 637 41 q 630 35 633 38 q 621 29 626 32 l 621 29 q 610 20 615 24 q 597 11 604 15 l 597 11 q 564 1 576 0 q 539 -1 551 1 l 539 -1 q 520 -9 528 -3 q 503 -22 512 -15 l 503 -22 q 486 -26 492 -23 q 471 -33 479 -29 l 471 -33 q 445 -33 458 -31 q 419 -35 432 -36 l 419 -35 q 406 -35 413 -35 q 393 -35 399 -36 l 393 -35 q 362 -32 378 -35 l 362 -32 q 346 -31 351 -30 q 336 -32 341 -32 l 336 -32 q 330 -30 333 -31 q 324 -29 327 -29 l 324 -29 q 306 -28 314 -28 q 289 -27 297 -29 l 289 -27 q 281 -25 285 -27 q 272 -23 277 -24 l 272 -23 q 262 -22 267 -21 q 252 -22 257 -23 l 252 -22 q 247 -18 249 -20 q 242 -17 244 -17 l 242 -17 q 229 -16 235 -16 q 218 -15 223 -17 l 218 -15 q 206 -10 211 -13 q 194 -4 200 -7 l 194 -4 q 184 -3 188 -6 q 174 2 179 0 l 174 2 q 165 4 169 4 q 156 6 161 4 l 156 6 q 147 11 153 7 q 139 17 141 14 l 139 17 q 131 27 133 25 q 126 30 128 29 l 126 30 q 111 46 119 39 q 100 65 103 53 l 100 65 q 92 84 94 75 q 86 100 90 92 l 86 100 q 79 123 81 113 l 79 123 q 76 139 77 131 q 75 157 74 147 l 75 157 q 76 170 75 163 q 77 183 77 176 l 77 183 q 77 209 77 196 q 79 233 77 221 l 79 233 q 87 262 78 253 q 101 279 95 271 l 101 279 q 109 288 106 284 q 118 296 112 291 l 118 296 q 127 304 124 302 l 127 304 q 136 309 131 307 q 144 314 140 311 l 144 314 q 153 325 148 320 l 153 325 q 158 330 155 327 q 161 334 160 332 l 161 334 q 163 345 163 339 q 167 355 162 350 l 167 355 q 182 364 175 359 q 197 372 189 368 l 197 372 q 185 385 192 383 q 172 390 177 386 l 172 390 q 158 394 164 391 q 146 400 152 396 l 146 400 q 133 409 138 405 q 122 418 128 413 l 122 418 q 117 422 120 420 q 112 426 114 424 l 112 426 q 101 438 104 436 q 96 441 98 439 l 96 441 q 86 454 88 452 q 82 457 84 455 l 82 457 q 79 470 81 460 l 79 470 q 74 487 77 477 q 68 506 70 497 l 68 506 q 69 559 66 532 q 78 608 71 585 l 78 608 q 85 627 80 619 q 91 642 89 634 l 91 642 q 96 647 93 644 q 97 652 98 649 l 97 652 q 104 661 102 655 q 111 670 106 666 l 111 670 q 124 684 116 678 q 136 697 131 689 l 136 697 q 148 705 143 699 q 157 714 152 710 l 157 714 q 169 719 162 717 q 180 723 175 720 l 180 723 q 195 722 186 721 q 209 718 204 722 l 209 718 q 227 720 219 719 q 243 723 234 720 l 243 723 q 254 732 248 728 q 262 741 259 735 l 262 741 q 268 744 266 741 q 272 749 270 747 l 272 749 q 283 753 278 751 q 293 758 288 754 l 293 758 q 329 763 315 760 q 357 764 343 765 l 357 764 q 373 765 365 763 q 388 767 380 767 l 388 767 q 435 765 412 766 q 477 758 457 763 l 477 758 q 488 759 482 761 q 499 755 494 757 l 499 755 q 510 755 504 755 q 520 754 515 755 l 520 754 q 532 752 526 753 q 543 749 537 751 l 543 749 q 557 744 554 743 q 562 743 560 744 l 562 743 q 567 740 564 741 q 572 736 569 738 l 572 736 q 578 735 574 735 q 583 733 581 735 l 583 733 q 592 729 588 731 q 600 726 595 727 l 600 726 q 606 720 603 724 q 611 713 608 716 l 611 713 q 624 693 623 702 q 632 679 624 684 l 632 679 q 651 670 645 672 q 664 662 657 667 l 664 662 q 676 643 675 650 q 678 629 676 635 l 678 629 q 692 579 687 606 q 694 524 697 552 l 694 524 q 694 518 693 521 q 693 511 694 515 l 693 511 q 691 504 692 507 q 689 496 690 500 l 689 496 q 687 485 687 489 q 685 475 687 480 l 685 475 q 682 470 684 472 q 678 463 680 467 l 678 463 q 675 453 676 458 q 670 443 674 448 l 670 443 q 653 425 661 434 q 635 406 644 415 q 616 388 626 396 q 592 375 605 380 l 592 375 q 611 361 601 367 q 631 347 621 355 l 631 347 q 640 338 636 342 q 648 329 643 334 l 648 329 q 656 318 653 324 q 664 305 659 312 l 664 305 q 671 295 669 299 q 676 283 673 290 l 676 283 q 682 269 678 275 q 687 257 685 263 l 687 257 q 688 248 688 252 q 690 240 688 244 l 690 240 q 692 227 692 233 q 694 214 692 220 l 694 214 q 697 200 695 207 q 699 185 698 193 z m 136 559 l 136 559 q 133 569 136 565 q 131 578 130 573 l 131 578 q 118 574 123 579 q 111 562 113 569 q 110 546 109 554 q 114 531 111 537 l 114 531 q 123 533 119 532 q 130 537 127 533 l 130 537 q 134 548 132 539 q 136 559 135 556 z m 191 651 l 191 651 q 189 661 191 655 q 185 669 186 667 l 185 669 q 181 674 183 671 q 177 677 179 677 l 177 677 q 161 664 169 675 q 147 646 152 652 l 147 646 q 137 630 142 638 q 136 613 131 622 l 136 613 q 150 608 141 609 l 150 608 q 160 627 157 617 l 160 627 q 167 634 162 631 q 178 638 172 636 q 187 643 183 640 q 191 651 191 646 z m 285 86 l 285 86 q 290 98 292 91 q 285 111 288 105 l 285 111 q 277 125 281 118 q 270 140 272 132 l 270 140 q 260 146 265 143 q 249 143 254 148 l 249 143 q 246 121 244 137 q 255 96 248 105 l 255 96 q 268 85 260 89 q 285 86 276 81 z m 317 521 l 317 521 q 321 478 316 499 q 332 439 325 456 l 332 439 q 345 425 336 431 q 364 417 353 419 l 364 417 q 402 422 384 415 q 428 443 420 429 l 428 443 q 436 453 434 450 q 435 460 437 456 l 435 460 q 440 473 439 465 q 441 487 441 480 l 441 487 q 454 508 448 502 q 462 521 460 513 l 462 521 q 462 545 466 535 q 446 558 457 555 l 446 558 q 439 580 440 572 q 433 593 438 588 l 433 593 q 422 604 430 597 q 408 611 413 610 l 408 611 q 393 612 400 613 q 378 613 386 611 l 378 613 q 369 610 373 610 q 359 608 364 610 l 359 608 q 352 603 355 606 q 344 596 348 599 l 344 596 q 337 590 340 593 q 331 583 333 587 l 331 583 q 320 556 322 572 q 317 521 318 539 z m 440 157 l 444 165 q 448 193 449 177 q 447 224 446 208 l 447 224 q 448 258 449 243 q 437 284 447 273 l 437 284 q 431 287 434 286 q 425 290 428 288 l 425 290 q 415 297 420 293 q 404 303 410 301 l 404 303 q 389 303 397 305 q 372 299 380 301 l 372 299 q 326 264 338 295 l 326 264 q 323 246 322 256 q 318 226 323 235 l 318 226 q 309 214 315 219 q 301 202 303 209 l 301 202 q 301 190 299 197 q 303 178 303 183 l 303 178 q 317 158 312 169 l 317 158 q 321 149 319 153 q 324 140 322 144 l 324 140 q 332 127 326 134 q 344 118 338 120 l 344 118 q 361 108 358 114 q 370 101 363 102 l 370 101 q 380 105 376 101 q 386 110 383 108 l 386 110 q 399 116 392 114 q 413 121 406 117 l 413 121 q 424 132 419 126 l 424 132 q 431 138 427 135 q 436 144 434 141 l 436 144 q 439 150 438 146 q 440 157 439 154 l 440 157 z m 461 396 l 461 396 q 474 392 467 389 q 488 401 481 394 q 498 417 494 408 q 501 432 502 426 l 501 432 q 497 444 501 437 q 485 450 492 451 l 485 450 q 480 430 482 436 l 480 430 q 468 414 476 421 q 461 396 460 407 z m 550 44 l 550 44 q 550 52 551 49 q 546 60 548 55 l 546 60 q 527 55 533 58 q 517 47 521 51 q 512 38 512 42 q 518 31 511 33 l 518 31 q 538 34 527 29 q 550 44 548 38 z m 644 150 l 644 150 q 640 165 645 159 q 627 168 635 170 l 627 168 q 610 157 618 164 q 605 135 602 150 l 605 135 q 611 127 607 130 q 612 115 614 123 l 612 115 q 602 100 610 108 l 602 100 q 588 87 595 92 q 589 71 581 82 l 589 71 q 597 69 592 69 q 607 71 602 68 l 607 71 q 612 76 609 72 q 617 83 615 79 l 617 83 q 623 90 621 86 q 626 96 624 93 l 626 96 q 630 101 628 98 q 634 105 632 103 l 634 105 q 640 119 636 110 q 643 130 643 128 l 643 130 q 642 144 641 141 q 644 150 643 147 z m 391 573 l 382 570 q 374 574 377 570 q 371 583 371 578 l 371 583 q 375 590 371 588 q 382 596 379 591 l 382 596 q 408 591 400 594 q 419 579 416 587 l 419 579 q 421 572 421 576 q 423 564 421 568 l 423 564 q 427 546 425 555 q 426 524 428 536 l 426 524 q 414 522 423 522 l 414 522 q 408 545 411 538 q 403 560 405 552 l 403 560 q 399 567 401 562 q 391 573 396 572 l 391 573 z m 719 550 l 719 550 q 731 545 727 551 q 736 530 735 538 q 734 516 736 522 q 725 509 731 509 l 725 509 q 715 535 715 525 q 719 550 715 544 z m 703 480 l 703 480 q 710 482 706 483 q 717 481 714 481 l 717 481 q 720 473 719 478 q 719 462 720 467 l 719 462 q 716 455 718 458 q 711 447 713 452 l 711 447 q 709 437 709 442 q 705 426 708 431 l 705 426 q 693 411 696 416 q 685 401 690 406 l 685 401 q 681 387 685 392 q 677 373 676 381 l 677 373 q 680 359 677 367 q 683 343 682 350 l 683 343 q 677 330 681 334 l 677 330 q 668 342 672 334 q 658 355 664 349 l 658 355 q 645 372 651 363 q 646 392 639 380 l 646 392 q 664 401 655 396 q 678 414 672 406 l 678 414 q 685 429 679 424 q 692 442 690 434 l 692 442 q 698 462 694 454 q 703 480 701 469 z m 78 411 l 78 411 q 70 427 70 419 q 69 442 70 435 l 69 442 q 78 441 76 444 q 81 434 79 438 l 81 434 q 89 427 84 429 q 95 422 93 424 l 95 422 q 102 411 99 414 q 109 403 105 408 l 109 403 q 119 391 115 395 l 119 391 q 126 386 121 389 q 131 380 131 383 l 131 380 q 125 374 130 379 q 117 369 119 369 l 117 369 q 105 373 113 368 q 95 380 97 378 l 95 380 q 87 394 90 385 q 78 411 83 403 z m 340 188 l 340 188 q 346 176 341 181 q 353 165 351 171 l 353 165 q 355 158 355 161 q 357 150 355 154 l 357 150 q 344 135 354 137 l 344 135 q 337 139 340 137 q 331 144 333 140 l 331 144 q 327 156 326 149 q 325 170 327 163 l 325 170 q 320 181 323 175 q 318 191 317 186 l 318 191 q 322 201 319 196 q 326 209 324 205 l 326 209 q 339 207 329 209 l 339 207 q 340 198 341 202 q 340 188 339 193 z m 208 -34 l 214 -39 q 222 -41 219 -41 q 226 -45 224 -42 l 226 -45 q 227 -52 228 -48 q 223 -59 225 -57 l 223 -59 q 207 -60 216 -64 q 196 -51 198 -56 l 196 -51 q 159 -45 176 -51 q 125 -34 141 -39 l 125 -34 q 111 -22 120 -27 q 95 -9 101 -17 l 95 -9 q 93 -4 93 -7 q 90 4 92 -1 l 90 4 q 90 19 87 16 q 95 25 93 21 l 95 25 q 103 20 99 24 q 111 13 106 16 l 111 13 q 119 5 115 8 q 124 -4 122 1 l 124 -4 q 142 -15 132 -9 q 165 -26 151 -21 l 165 -26 q 181 -28 173 -28 q 196 -30 188 -28 l 196 -30 q 205 -33 203 -34 q 208 -34 206 -33 l 208 -34 z m 244 -56 l 244 -56 q 266 -52 254 -51 q 290 -53 277 -54 l 290 -53 q 293 -70 296 -61 l 293 -70 q 279 -76 288 -75 q 262 -75 270 -77 q 247 -69 253 -74 q 244 -56 241 -64 z"},"9":{"ha":698,"x_min":39,"x_max":689,"o":"m 60 543 l 60 543 q 61 559 61 551 q 62 573 60 567 l 62 573 q 65 579 63 576 q 69 585 67 582 l 69 585 q 72 590 71 587 q 74 595 72 593 l 74 595 q 85 613 83 608 q 91 623 87 618 l 91 623 q 102 632 95 628 q 115 639 108 636 l 115 639 q 124 645 120 641 q 133 651 128 649 l 133 651 q 143 677 142 663 l 143 677 q 150 685 145 682 q 159 691 154 687 l 159 691 q 170 704 165 697 q 183 715 175 710 l 183 715 q 205 725 200 721 q 217 732 210 729 l 217 732 q 237 739 225 736 q 258 744 248 741 l 258 744 q 277 750 267 747 q 297 753 287 753 l 297 753 q 310 754 304 753 q 324 754 316 755 l 324 754 q 330 754 327 754 q 335 752 332 753 l 335 752 q 360 754 352 754 q 374 752 368 753 l 374 752 q 390 750 380 751 q 407 749 399 749 l 407 749 q 419 743 413 745 q 433 741 424 741 l 433 741 q 478 722 453 729 q 520 703 502 715 l 520 703 q 534 693 530 694 q 542 689 538 691 l 542 689 q 552 682 545 687 q 561 673 558 677 l 561 673 q 565 668 563 671 q 568 663 567 665 l 568 663 q 569 657 569 660 q 568 652 568 654 l 568 652 q 570 633 571 637 q 571 625 569 629 l 571 625 q 576 620 572 621 q 584 617 579 618 q 592 614 588 615 q 598 610 596 613 l 598 610 q 605 599 601 603 q 614 588 609 594 l 614 588 q 616 559 622 569 q 609 538 609 548 l 609 538 q 612 521 609 530 q 622 510 615 512 l 622 510 q 627 499 623 503 q 636 492 631 495 q 646 485 641 488 q 655 478 651 482 l 655 478 q 659 398 664 439 q 648 325 654 357 l 648 325 q 632 282 638 305 q 611 241 625 258 l 611 241 q 604 222 609 230 q 595 204 599 213 l 595 204 q 588 189 593 199 l 588 189 q 580 176 584 182 q 570 165 576 170 l 570 165 q 542 139 553 154 q 518 108 530 123 l 518 108 q 505 100 511 104 q 489 94 498 95 l 489 94 q 483 88 487 90 q 477 81 479 86 l 477 81 q 475 72 475 76 q 473 62 475 67 l 473 62 q 470 57 472 59 q 466 51 468 54 l 466 51 q 464 45 464 48 q 461 40 463 42 l 461 40 q 451 33 458 36 q 438 26 444 29 l 438 26 q 426 19 432 23 q 415 12 420 15 l 415 12 q 407 9 411 10 q 398 6 402 8 l 398 6 q 389 1 394 4 q 379 -5 384 -3 l 379 -5 q 369 -9 374 -7 q 357 -13 363 -11 l 357 -13 q 346 -17 354 -15 l 346 -17 q 337 -19 341 -19 q 328 -22 333 -20 l 328 -22 q 323 -24 325 -23 q 316 -27 320 -26 l 316 -27 q 300 -30 308 -29 q 283 -33 292 -31 l 283 -33 q 265 -37 274 -35 q 248 -40 256 -39 l 248 -40 q 223 -39 236 -42 q 199 -35 210 -36 l 199 -35 q 188 -27 193 -31 q 176 -19 182 -23 l 176 -19 q 172 -4 174 -12 q 168 11 170 3 l 168 11 q 164 28 166 19 q 162 44 161 36 l 162 44 q 164 62 165 56 q 163 74 162 68 l 163 74 q 167 85 167 81 q 168 90 166 88 l 168 90 q 181 95 175 90 q 194 101 187 99 l 194 101 q 207 103 199 103 q 222 105 214 103 l 222 105 q 244 110 233 108 q 261 114 254 111 l 261 114 q 281 124 274 122 q 293 123 288 125 l 293 123 q 298 120 295 122 q 303 116 300 117 l 303 116 q 316 119 308 115 q 328 128 324 123 l 328 128 q 332 138 331 133 q 334 148 333 143 l 334 148 q 344 158 339 153 q 355 166 349 163 l 355 166 q 376 187 365 177 q 397 207 386 197 l 397 207 q 414 227 407 216 q 426 250 420 238 l 426 250 q 440 276 433 262 q 450 306 447 289 l 450 306 q 437 293 442 301 q 424 279 432 285 l 424 279 q 418 274 421 276 q 410 270 414 272 l 410 270 q 392 258 401 265 q 371 248 382 251 l 371 248 q 360 240 366 243 q 346 233 353 236 l 346 233 q 321 228 333 231 q 296 222 308 224 l 296 222 l 285 220 q 266 220 274 218 q 246 223 257 221 l 246 223 q 232 225 238 225 q 220 229 225 225 l 220 229 q 206 231 213 229 q 194 237 198 232 l 194 237 q 135 273 158 248 q 89 324 111 297 l 89 324 q 80 344 83 334 q 69 367 76 354 l 69 367 q 62 378 66 372 q 56 389 58 383 l 56 389 q 54 403 54 395 q 53 418 54 410 l 53 418 q 49 437 48 432 q 50 447 50 442 l 50 447 q 51 471 49 464 q 53 485 52 478 l 53 485 q 53 495 53 490 q 53 504 52 500 l 53 504 q 55 510 53 507 q 56 516 56 513 l 56 516 q 59 534 57 530 q 60 543 60 538 z m 202 44 l 202 44 q 221 47 213 39 q 233 65 229 55 l 233 65 q 223 71 231 69 l 223 71 q 205 64 213 69 q 202 44 197 58 z m 602 411 l 602 411 q 606 390 601 395 q 616 386 611 384 l 616 386 q 624 417 621 401 q 621 451 626 432 l 621 451 q 611 459 612 459 q 607 460 609 459 l 607 460 q 602 452 603 457 q 601 439 601 446 q 602 425 601 432 q 602 411 602 417 z m 570 498 l 570 498 q 570 486 566 492 q 578 477 573 479 l 578 477 q 582 484 580 483 q 586 486 584 485 l 586 486 q 583 500 591 495 q 570 498 574 505 z m 273 505 l 273 505 q 258 490 265 501 q 253 467 251 478 l 253 467 q 259 459 255 462 q 264 453 262 456 l 264 453 q 266 444 266 448 q 266 435 265 440 l 266 435 q 270 425 268 430 q 274 413 272 419 l 274 413 q 280 397 277 403 q 286 383 282 390 l 286 383 q 306 361 294 370 q 337 353 317 352 l 337 353 q 366 361 354 354 q 390 377 378 367 l 390 377 q 395 386 391 382 q 401 395 398 390 l 401 395 q 405 405 403 399 q 407 416 406 411 l 407 416 q 412 431 409 424 q 416 445 415 438 l 416 445 q 418 456 417 450 q 418 466 418 461 l 418 466 q 419 476 418 471 q 418 486 419 481 l 418 486 q 410 536 416 515 l 410 536 q 396 559 402 555 q 380 566 389 562 l 380 566 q 368 570 375 568 q 354 574 360 572 l 354 574 q 331 575 342 577 q 309 569 319 573 l 309 569 q 294 552 302 559 q 281 532 285 545 l 281 532 q 279 517 279 524 q 273 505 278 510 z m 241 554 l 241 554 q 225 551 230 555 q 217 539 219 546 q 215 522 214 531 q 215 503 215 512 l 215 503 q 227 509 224 505 q 232 517 229 512 l 232 517 q 244 535 238 525 q 241 554 250 545 z m 242 132 l 237 132 q 199 118 220 121 q 160 105 177 115 l 160 105 q 152 104 155 106 q 144 101 149 102 l 144 101 q 136 78 137 86 q 133 58 134 69 l 133 58 q 122 67 121 62 q 121 76 122 71 l 121 76 q 120 94 120 85 q 124 111 119 103 l 124 111 q 133 120 126 114 q 145 126 140 125 l 145 126 q 151 126 147 126 q 156 127 154 126 l 156 127 q 162 129 159 128 q 167 131 164 130 l 167 131 q 178 132 171 132 l 178 132 q 190 135 184 134 q 200 137 195 136 l 200 137 q 212 138 206 138 q 222 141 218 138 l 222 141 q 226 147 224 143 q 229 151 227 150 l 229 151 q 242 145 237 153 q 242 132 247 137 l 242 132 z m 260 161 l 260 161 q 264 149 267 158 q 253 142 261 140 l 253 142 q 251 154 247 147 q 260 161 255 160 z m 311 391 l 307 392 q 298 406 303 397 q 295 422 293 414 l 295 422 q 291 430 292 425 q 291 440 290 435 q 296 447 292 444 q 305 447 299 449 l 305 447 q 303 434 306 435 q 301 428 299 432 l 301 428 q 308 431 303 429 q 316 430 313 432 l 316 430 q 329 402 320 413 q 353 396 337 391 l 353 396 q 367 410 365 405 q 375 416 368 415 l 375 416 q 376 405 380 410 q 373 393 372 399 l 373 393 q 342 378 362 380 q 311 391 322 376 l 311 391 z m 616 615 l 616 615 q 605 620 611 616 q 597 629 598 624 l 597 629 q 600 637 597 633 q 604 644 602 640 l 604 644 q 615 643 611 646 q 624 635 619 640 l 624 635 q 633 623 629 630 q 642 608 637 616 l 642 608 q 665 551 658 585 l 665 551 q 671 542 671 548 q 672 527 671 536 l 672 527 q 677 512 673 519 q 683 499 680 504 l 683 499 q 687 494 685 496 q 688 489 688 492 l 688 489 q 688 480 689 485 q 680 476 686 474 l 680 476 q 676 483 678 477 q 671 492 673 489 l 671 492 q 662 499 667 497 q 652 505 657 501 l 652 505 q 643 514 646 508 q 636 525 640 520 l 636 525 q 635 538 634 532 q 638 547 636 543 l 638 547 q 639 561 640 554 q 641 573 638 568 l 641 573 q 630 595 635 584 q 616 615 624 605 z m 58 631 l 58 631 q 65 623 65 628 q 62 613 65 618 q 53 605 59 608 q 42 605 47 602 l 42 605 q 45 621 39 614 q 58 631 50 628 z m 95 658 l 95 658 q 87 650 92 655 q 75 648 82 644 l 75 648 q 83 675 73 665 q 103 694 93 684 l 103 694 q 114 706 110 704 q 120 711 117 708 l 120 711 q 138 726 131 721 q 152 733 144 730 l 152 733 q 169 747 156 740 q 194 756 182 754 l 194 756 q 205 752 204 758 q 201 739 206 746 l 201 739 q 194 736 196 739 q 185 733 191 733 l 185 733 q 150 711 167 723 l 150 711 q 136 696 142 703 q 121 682 129 688 l 121 682 q 111 672 118 677 l 111 672 q 103 665 106 668 q 95 658 100 662 z"},"Ð":{"ha":1117,"x_min":66,"x_max":1077,"o":"m 105 713 l 105 713 q 105 721 104 717 q 104 729 105 725 l 104 729 q 104 757 103 743 q 115 779 105 771 l 115 779 q 122 783 118 781 q 129 785 126 784 l 129 785 q 137 785 133 786 q 146 784 141 783 l 146 784 q 154 786 151 784 q 159 790 156 788 l 159 790 q 169 792 162 791 q 180 792 176 793 l 180 792 q 187 790 183 792 q 195 787 190 787 l 195 787 q 204 790 200 787 q 213 792 208 792 l 213 792 q 220 790 217 792 q 227 788 223 788 l 227 788 q 234 790 230 788 q 241 791 238 791 l 241 791 q 256 792 249 791 q 270 793 263 793 l 270 793 q 291 794 281 793 q 311 795 300 795 l 311 795 q 329 794 320 795 q 346 791 337 792 l 346 791 q 368 791 357 790 q 389 786 378 791 l 389 786 q 392 781 390 784 q 392 774 394 778 l 392 774 q 382 768 391 771 q 368 764 373 765 l 368 764 q 352 765 355 766 q 345 761 349 763 l 345 761 q 330 760 337 759 q 313 761 323 760 l 313 761 q 300 760 305 761 q 290 761 295 759 l 290 761 q 282 768 285 763 q 276 777 279 773 l 276 777 q 235 777 255 779 q 191 777 214 775 l 191 777 q 167 771 176 770 q 147 767 158 771 l 147 767 q 142 764 144 765 q 137 760 139 762 l 137 760 q 129 757 132 758 q 123 753 125 756 l 123 753 q 123 748 123 751 q 122 742 122 744 l 122 742 q 122 713 120 726 q 122 685 123 699 l 122 685 q 122 675 121 680 q 122 664 123 669 l 122 664 q 121 654 121 659 q 117 646 121 649 l 117 646 q 114 653 112 649 q 114 662 115 657 l 114 662 q 113 667 114 664 q 111 673 111 670 l 111 673 q 109 693 111 683 q 105 713 107 702 z m 883 720 l 883 720 q 876 723 881 720 q 866 728 870 725 q 860 734 861 731 q 866 739 859 737 l 866 739 q 880 738 872 741 q 892 731 887 734 l 892 731 q 902 727 897 729 q 912 722 907 725 l 912 722 q 923 716 918 719 q 931 710 927 712 l 931 710 q 943 703 936 707 q 947 692 949 698 l 947 692 q 944 688 947 688 q 938 683 940 688 l 938 683 q 918 684 929 683 q 900 691 906 684 l 900 691 q 897 698 898 694 q 894 707 896 702 l 894 707 q 889 714 892 712 q 883 720 885 716 z m 1074 413 l 1074 413 q 1076 377 1075 396 q 1076 338 1077 358 l 1076 338 q 1075 315 1076 327 q 1071 292 1073 303 l 1071 292 q 1070 268 1070 279 q 1068 245 1070 256 l 1068 245 q 1064 210 1066 226 q 1058 174 1061 194 l 1058 174 q 1040 167 1048 169 l 1040 167 q 1039 155 1037 161 q 1039 142 1041 149 l 1039 142 q 1035 132 1038 138 q 1029 122 1031 126 l 1029 122 q 1010 94 1021 107 q 987 69 998 80 l 987 69 q 968 48 977 56 q 948 32 959 39 l 948 32 q 933 22 940 27 q 915 12 925 17 l 915 12 q 898 5 907 8 q 877 0 889 2 l 877 0 q 869 -3 872 -2 q 861 -6 865 -5 l 861 -6 q 846 -7 848 -6 q 842 -8 844 -8 l 842 -8 q 829 -6 837 -8 q 814 -3 820 -5 l 814 -3 q 807 -1 811 -3 q 801 1 803 0 l 801 1 q 790 9 793 9 q 784 10 786 9 l 784 10 q 772 14 779 12 q 757 16 765 16 l 757 16 q 698 11 725 17 l 698 11 q 691 7 694 9 q 682 4 687 4 l 682 4 q 674 4 679 3 q 663 4 668 4 l 663 4 q 646 5 654 4 q 628 5 637 5 l 628 5 q 609 7 618 6 q 591 7 600 7 l 591 7 q 573 7 582 8 q 555 4 563 5 l 555 4 q 546 5 550 4 q 536 5 541 5 l 536 5 q 509 4 522 6 q 481 3 495 2 l 481 3 q 441 3 459 5 q 408 7 422 0 l 408 7 q 396 14 400 10 q 385 20 391 18 l 385 20 q 358 23 373 24 l 358 23 q 346 22 352 22 q 334 20 340 22 l 334 20 q 325 19 329 20 q 315 17 320 18 l 315 17 q 309 15 312 16 q 303 11 306 13 l 303 11 q 298 11 301 10 q 291 10 294 11 l 291 10 q 281 7 286 8 q 271 5 276 5 l 271 5 q 263 7 266 6 q 254 9 259 8 l 254 9 q 235 8 245 9 q 215 7 225 6 l 215 7 q 210 9 213 8 q 203 10 206 9 l 203 10 q 197 11 200 11 q 189 11 193 10 l 189 11 q 177 18 181 13 q 164 22 172 23 l 164 22 q 152 33 158 27 q 143 45 145 38 l 143 45 q 141 56 141 50 q 141 69 141 62 l 141 69 q 141 87 140 79 q 143 102 142 94 l 143 102 q 142 118 143 110 q 139 134 140 126 l 139 134 q 140 139 139 136 q 140 145 140 142 l 140 145 q 138 160 139 153 q 139 175 136 167 l 139 175 q 150 195 146 187 q 155 208 153 202 l 155 208 q 157 219 156 213 q 156 230 157 225 l 156 230 q 152 246 155 239 q 146 261 149 253 q 141 276 143 268 q 141 295 139 284 l 141 295 q 115 293 128 293 q 86 295 101 293 l 86 295 q 74 320 76 303 q 69 353 72 336 l 69 353 q 67 373 67 364 q 69 393 66 382 l 69 393 q 78 416 76 409 q 83 426 79 423 l 83 426 q 93 430 88 429 q 106 432 98 430 l 106 432 q 114 434 110 433 q 119 435 117 435 l 119 435 q 133 434 130 432 q 139 435 136 435 l 139 435 q 149 436 144 436 q 159 436 154 435 l 159 436 q 167 450 165 442 q 170 465 169 457 l 170 465 q 171 493 172 477 q 166 519 170 508 l 166 519 q 154 540 161 531 q 146 562 146 549 l 146 562 q 146 575 145 568 q 147 588 147 582 l 147 588 q 147 601 147 594 q 147 613 146 607 l 147 613 q 148 630 147 622 q 148 645 148 637 l 148 645 q 148 663 147 653 q 148 680 148 672 l 148 680 q 151 694 148 688 q 153 707 153 700 l 153 707 q 156 725 153 721 q 160 734 158 729 l 160 734 q 171 739 165 736 q 181 744 176 741 l 181 744 q 202 750 190 749 q 223 751 213 750 l 223 751 q 250 753 243 754 q 258 743 256 751 l 258 743 q 285 734 269 735 q 314 728 300 732 l 314 728 q 351 731 331 724 l 351 731 q 359 735 355 733 q 368 738 363 737 l 368 738 q 380 740 373 740 q 395 740 387 740 l 395 740 q 430 740 412 740 q 463 738 447 740 l 463 738 q 482 738 472 737 q 502 736 491 738 l 502 736 q 510 736 506 736 q 516 735 514 736 l 516 735 q 532 722 525 725 q 542 718 539 719 l 542 718 q 563 722 555 716 q 580 734 571 728 l 580 734 q 612 736 595 734 q 644 737 628 738 l 644 737 q 660 730 653 737 q 674 721 666 723 l 674 721 q 699 720 688 719 q 718 726 710 721 l 718 726 q 741 727 729 725 q 764 727 753 728 l 764 727 l 783 724 q 799 724 791 723 q 814 723 806 725 l 814 723 q 827 720 823 719 q 834 719 830 720 l 834 719 q 854 714 848 714 q 863 710 860 713 l 863 710 q 869 699 867 706 q 872 686 870 691 l 872 686 q 876 681 874 683 q 878 676 878 679 l 878 676 q 895 667 885 670 q 915 660 904 663 l 915 660 q 929 661 922 659 q 941 660 935 662 l 941 660 q 956 655 946 659 l 956 655 q 966 653 961 653 q 972 650 970 652 l 972 650 q 976 646 974 648 q 979 641 977 643 l 979 641 q 991 632 984 636 q 1002 623 997 628 l 1002 623 q 1007 618 1005 621 q 1011 613 1009 615 l 1011 613 q 1019 602 1016 608 q 1026 589 1022 596 l 1026 589 q 1031 582 1028 585 q 1036 575 1034 579 l 1036 575 q 1050 552 1044 564 q 1058 524 1055 539 l 1058 524 q 1064 500 1061 512 q 1068 473 1066 487 l 1068 473 q 1070 461 1070 467 q 1070 446 1069 454 l 1070 446 q 1073 430 1072 438 q 1074 413 1074 421 z m 208 313 l 208 313 q 208 333 208 322 q 209 352 207 344 l 209 352 q 213 367 210 359 q 214 379 215 374 l 214 379 q 209 390 213 384 q 200 394 205 395 l 200 394 q 195 392 197 394 q 189 387 193 389 l 189 387 q 186 367 187 379 q 182 346 184 355 l 182 346 q 188 317 188 333 q 189 287 187 301 l 189 287 q 194 283 191 286 q 201 279 196 279 l 201 279 q 208 283 206 279 q 210 293 210 287 q 209 304 210 298 q 208 313 208 310 z m 230 566 l 230 566 q 239 576 237 569 q 238 588 240 582 l 238 588 q 229 593 233 590 q 220 595 225 595 l 220 595 q 209 586 216 590 q 204 572 202 581 l 204 572 q 214 566 204 567 q 230 566 224 564 z m 240 662 l 240 662 q 251 665 245 664 q 263 669 257 666 q 271 675 268 671 q 273 687 274 679 l 273 687 q 262 691 267 690 q 251 693 256 691 l 251 693 q 238 699 243 695 q 225 705 233 703 l 225 705 q 211 700 217 705 q 201 689 205 694 l 201 689 q 198 661 198 676 q 199 634 197 645 l 199 634 q 224 641 216 630 q 240 662 232 651 z m 422 211 l 422 211 q 419 217 422 215 q 411 218 415 218 q 402 217 406 218 q 396 213 397 215 l 396 213 q 414 200 395 200 l 414 200 q 419 205 416 203 q 422 211 422 207 z m 397 93 l 397 93 q 428 95 411 91 q 447 114 444 99 l 447 114 q 431 130 436 119 q 425 154 426 140 l 425 154 q 420 160 423 157 q 412 161 416 163 l 412 161 q 402 147 406 157 q 396 129 398 137 l 396 129 q 393 109 394 118 q 397 93 392 99 z m 753 372 l 756 377 q 757 383 757 379 q 758 388 757 386 l 758 388 q 751 413 758 404 l 751 413 q 745 419 747 417 q 741 424 742 420 l 741 424 q 741 433 740 428 q 742 442 742 438 l 742 442 q 741 458 741 450 q 741 473 741 465 l 741 473 q 742 485 741 479 q 741 498 742 490 l 741 498 q 735 535 739 519 q 717 561 730 551 l 717 561 q 704 568 706 566 q 700 571 702 569 l 700 571 q 688 578 694 576 q 672 582 682 580 l 672 582 q 651 587 659 586 l 651 587 q 636 587 643 588 q 622 588 629 586 l 622 588 q 615 589 617 589 q 609 588 613 588 l 609 588 q 586 592 600 587 l 586 592 q 571 592 578 590 q 557 594 564 593 l 557 594 q 548 594 552 594 q 539 594 544 593 l 539 594 q 519 598 529 595 q 501 596 509 600 l 501 596 q 492 556 493 571 q 489 522 491 540 l 489 522 q 475 495 483 508 q 469 468 467 482 l 469 468 q 479 443 471 454 q 490 417 487 431 l 490 417 q 521 419 505 416 q 553 419 537 421 l 553 419 q 573 395 570 416 l 573 395 q 572 369 575 384 q 570 338 569 354 l 570 338 q 572 326 570 333 q 571 313 573 319 l 571 313 q 565 305 569 308 q 559 299 561 301 l 559 299 q 527 292 545 292 q 489 290 508 291 l 489 290 q 484 254 484 273 q 484 215 484 234 l 484 215 q 483 204 484 209 q 481 193 482 198 l 481 193 q 482 186 481 189 q 483 180 483 183 l 483 180 q 483 168 483 173 q 483 156 482 162 l 483 156 q 488 146 486 154 l 488 146 q 513 145 502 146 q 537 144 524 144 l 537 144 q 545 145 541 144 q 554 147 549 146 l 554 147 q 565 146 559 147 q 579 144 571 144 l 579 144 q 593 129 587 137 q 609 118 598 120 l 609 118 q 618 118 613 117 q 626 119 623 118 l 626 119 q 638 126 636 120 q 645 140 640 132 l 645 140 q 651 148 647 144 q 659 153 654 151 l 659 153 q 688 162 680 156 q 701 174 695 168 l 701 174 q 710 186 706 180 q 716 199 714 192 l 716 199 q 720 210 718 204 q 723 220 722 215 l 723 220 q 725 228 724 224 q 726 236 725 232 l 726 236 q 727 253 727 244 q 728 271 726 262 l 728 271 q 729 287 729 279 q 729 302 728 294 l 729 302 q 731 310 730 306 q 732 317 732 313 l 732 317 q 732 327 733 322 q 732 335 730 331 l 732 335 q 739 346 734 341 q 748 357 744 351 l 748 357 q 751 365 750 360 q 753 372 751 369 l 753 372 z m 796 545 l 796 545 q 806 546 801 544 q 814 550 810 548 l 814 550 q 820 576 821 561 q 811 600 818 591 l 811 600 q 799 607 806 605 q 783 611 791 609 l 783 611 q 765 616 774 614 q 752 606 756 617 l 752 606 q 770 596 760 601 q 783 581 779 591 l 783 581 q 786 571 785 577 q 787 560 786 565 q 790 550 788 554 q 796 545 792 546 z m 806 486 l 806 486 q 823 495 818 484 q 820 513 828 505 l 820 513 q 807 506 810 515 q 806 486 804 497 z m 932 73 l 941 79 q 952 95 945 87 q 953 115 959 103 l 953 115 q 942 115 948 117 q 934 111 936 113 l 934 111 q 932 106 932 109 q 929 100 931 102 l 929 100 q 915 88 926 95 q 895 78 903 80 l 895 78 q 884 79 890 78 q 870 79 877 80 l 870 79 q 859 71 862 78 q 857 55 855 64 l 857 55 q 873 48 868 49 q 880 46 877 46 l 880 46 q 897 49 886 46 q 911 53 907 51 l 911 53 q 923 62 918 55 q 932 73 927 69 l 932 73 z m 605 568 l 605 568 q 613 563 610 566 q 613 554 616 559 l 613 554 q 592 550 602 548 q 571 552 582 552 l 571 552 q 561 552 563 552 q 553 544 558 551 l 553 544 l 545 536 q 542 526 543 531 q 539 516 541 520 l 539 516 q 534 510 538 514 q 528 505 530 506 l 528 505 q 520 508 525 505 q 514 513 515 510 l 514 513 q 516 530 514 521 q 519 547 518 539 l 519 547 q 521 565 519 557 q 528 577 522 572 l 528 577 q 547 577 538 580 q 567 571 556 573 l 567 571 q 588 570 578 569 q 605 568 598 570 z m 518 494 l 518 494 q 531 486 527 493 q 532 470 534 478 l 532 470 q 526 462 529 466 q 517 456 523 458 l 517 456 q 512 475 511 461 q 518 494 512 489 z m 114 251 l 114 251 q 125 233 122 249 q 127 206 128 217 l 127 206 q 123 191 126 198 q 111 184 119 184 l 111 184 q 110 164 106 173 q 115 143 113 154 l 115 143 q 117 125 115 128 q 119 117 118 121 l 119 117 q 119 112 119 115 q 118 106 118 109 l 118 106 q 121 83 119 97 q 114 61 122 69 l 114 61 q 99 78 100 64 q 97 105 98 91 l 97 105 q 95 119 95 115 l 95 119 q 97 164 96 139 q 101 207 97 188 l 101 207 q 108 223 102 216 l 108 223 q 110 238 110 230 q 114 251 109 246 z m 939 -3 l 939 -3 q 933 -22 942 -16 q 918 -30 923 -28 l 918 -30 q 893 -36 902 -35 q 873 -40 884 -38 l 873 -40 q 838 -40 854 -40 q 805 -39 822 -40 l 805 -39 q 782 -36 794 -38 q 757 -36 770 -34 l 757 -36 q 730 -41 743 -38 q 703 -46 716 -45 l 703 -46 q 692 -45 698 -46 q 680 -43 686 -44 l 680 -43 q 663 -41 672 -42 q 655 -31 654 -41 l 655 -31 q 668 -20 657 -23 q 685 -15 679 -18 l 685 -15 q 710 -17 696 -18 q 737 -15 723 -17 l 737 -15 q 751 -11 745 -14 q 762 -15 757 -9 l 762 -15 q 775 -17 768 -16 q 790 -19 781 -18 l 790 -19 q 802 -23 796 -21 q 814 -28 808 -26 l 814 -28 q 840 -28 828 -30 q 863 -24 852 -26 l 863 -24 q 874 -24 868 -23 q 885 -24 880 -25 l 885 -24 q 913 -13 900 -21 l 913 -13 q 924 -9 921 -12 q 928 -5 926 -7 q 933 -2 930 -3 q 939 -3 936 -1 z"},"ð":{"ha":903,"x_min":5,"x_max":865,"o":"m 748 614 l 748 614 q 730 624 740 617 q 716 635 719 630 l 716 635 q 717 644 717 640 q 718 651 716 647 l 718 651 q 742 644 732 648 q 765 637 752 640 l 765 637 q 772 630 768 633 q 780 624 776 627 l 780 624 q 805 614 796 622 q 825 601 814 606 l 825 601 q 843 578 836 590 q 856 554 849 566 l 856 554 q 861 530 856 541 q 858 512 865 518 l 858 512 q 854 519 853 514 q 853 527 854 523 l 853 527 q 848 541 851 535 q 843 552 845 547 l 843 552 q 818 577 822 558 l 818 577 q 809 586 814 582 q 798 595 803 590 l 798 595 q 788 602 790 602 q 783 603 785 602 l 783 603 q 779 608 781 605 q 773 612 777 610 l 773 612 q 766 612 769 613 q 759 611 762 610 l 759 611 q 754 612 757 611 q 748 614 750 613 z m 240 100 l 224 95 q 214 94 219 94 q 202 95 208 93 l 202 95 q 191 97 197 96 q 182 101 184 97 l 182 101 q 173 102 177 102 q 164 103 169 102 l 164 103 q 150 104 156 104 q 138 112 143 104 l 138 112 q 127 117 130 112 q 116 122 124 121 l 116 122 q 103 140 108 130 q 100 164 98 149 l 100 164 q 102 172 101 168 q 104 180 103 175 l 104 180 q 105 203 105 191 q 106 226 104 215 l 106 226 q 112 236 108 232 q 117 245 115 240 l 117 245 q 122 257 120 255 q 124 263 124 259 l 124 263 q 122 286 126 277 q 110 303 118 295 l 110 303 q 111 326 109 314 q 115 349 113 338 l 115 349 q 95 351 104 352 q 77 351 85 349 l 77 351 q 57 366 61 353 q 52 393 52 379 l 52 393 q 56 419 51 407 q 71 433 60 431 l 71 433 q 87 432 78 435 q 102 433 95 429 l 102 433 q 111 432 105 431 q 120 430 117 432 l 120 430 q 120 449 121 439 q 120 468 119 459 l 120 468 q 122 494 122 481 q 126 519 122 507 l 126 519 q 128 525 127 522 q 130 530 129 527 l 130 530 q 132 539 132 535 q 133 548 132 543 l 133 548 q 138 565 135 556 q 142 583 141 574 l 142 583 q 140 602 143 593 q 135 620 137 610 l 135 620 q 133 644 135 630 q 136 665 131 657 l 136 665 q 146 673 138 667 q 156 679 153 678 l 156 679 q 166 681 165 680 q 169 682 167 682 l 169 682 q 202 682 188 683 l 202 682 q 213 682 207 681 q 223 681 218 682 l 223 681 q 230 677 227 680 q 237 672 232 674 l 237 672 q 261 665 247 667 q 288 660 274 662 l 288 660 q 310 662 298 659 l 310 662 q 323 661 316 662 q 335 662 329 660 l 335 662 q 341 664 338 662 q 347 665 343 665 l 347 665 q 358 665 352 666 q 368 664 363 664 l 368 664 q 387 663 377 664 q 406 660 396 662 l 406 660 q 418 661 411 660 q 429 659 424 662 l 429 659 q 454 652 446 649 q 470 656 462 654 l 470 656 q 488 657 479 657 q 506 655 496 656 l 506 655 q 532 654 519 654 q 558 652 544 654 l 558 652 q 579 649 573 652 q 589 645 584 646 l 589 645 q 599 644 594 645 q 608 641 603 642 l 608 641 q 614 643 611 641 q 621 645 617 645 l 621 645 q 637 644 633 643 q 643 641 640 645 l 643 641 q 652 643 648 644 q 662 639 656 641 l 662 639 q 674 637 667 638 q 685 634 680 636 l 685 634 q 688 629 687 632 q 691 624 689 626 l 691 624 q 695 621 693 622 q 699 616 697 619 l 699 616 q 706 607 702 611 q 711 600 709 602 l 711 600 q 729 592 724 594 q 740 587 733 589 l 740 587 q 759 583 751 585 q 775 575 767 581 l 775 575 q 780 570 778 573 q 786 564 782 566 l 786 564 q 792 543 794 556 l 792 543 q 798 539 794 540 q 804 532 802 537 l 804 532 q 816 526 812 530 q 823 517 819 522 l 823 517 q 825 503 823 510 q 829 490 827 496 l 829 490 q 836 473 833 482 q 840 455 838 463 l 840 455 q 841 447 841 451 q 842 438 840 442 l 842 438 q 845 423 844 431 q 846 406 845 414 l 846 406 q 847 392 846 398 q 848 379 848 386 l 848 379 q 847 347 848 363 q 845 317 845 331 l 845 317 q 842 290 844 302 q 838 261 840 277 l 838 261 q 832 235 835 247 q 822 214 829 222 l 822 214 q 814 206 818 209 q 805 199 809 203 l 805 199 q 797 190 801 196 q 791 178 792 184 l 791 178 q 792 163 790 170 q 791 147 793 155 l 791 147 q 785 138 790 144 q 777 130 779 132 l 777 130 q 769 123 773 126 q 761 117 765 120 l 761 117 q 751 112 756 114 q 741 105 746 109 l 741 105 q 721 94 729 96 q 708 86 713 92 l 708 86 q 663 74 685 78 q 617 66 640 70 l 617 66 q 601 65 608 64 q 587 63 594 65 l 587 63 q 571 75 579 69 q 552 82 562 80 l 552 82 q 537 84 544 84 l 537 84 q 515 79 522 78 q 503 74 508 79 l 503 74 q 475 76 489 75 q 447 78 461 76 l 447 78 q 428 79 436 80 q 409 80 419 78 l 409 80 q 400 81 404 81 q 392 81 396 80 l 392 81 q 378 84 381 84 q 372 85 375 83 l 372 85 q 354 85 363 83 q 335 88 345 87 l 335 88 q 329 88 332 89 q 323 87 326 87 l 323 87 q 300 90 311 88 q 280 97 288 92 l 280 97 q 265 107 270 106 q 254 106 259 108 l 254 106 q 246 103 249 104 q 240 100 243 101 l 240 100 z m 200 645 l 200 645 q 185 647 192 650 q 176 635 177 643 l 176 635 q 179 625 176 630 q 181 613 181 620 l 181 613 q 179 596 181 604 q 182 582 177 587 l 182 582 q 194 596 192 586 l 194 596 q 193 603 194 600 q 191 609 191 606 l 191 609 q 197 628 193 618 q 200 645 200 637 z m 169 531 l 169 527 q 164 516 163 522 q 163 500 165 509 l 163 500 q 165 495 165 498 q 166 487 165 491 l 166 487 q 178 489 173 483 q 184 500 183 495 l 184 500 q 179 519 186 508 q 169 531 171 529 l 169 531 z m 162 136 l 162 136 q 177 137 168 139 q 190 139 185 135 l 190 139 q 191 150 193 144 q 187 158 189 155 l 187 158 q 180 158 182 157 q 173 157 178 159 l 173 157 q 164 162 167 159 q 158 169 160 164 l 158 169 q 156 186 156 174 q 153 199 156 197 l 153 199 q 146 199 149 202 q 142 191 143 196 q 139 180 140 186 q 138 172 138 174 l 138 172 q 143 156 143 160 q 145 148 143 152 l 145 148 q 152 141 147 143 q 162 136 157 138 z m 568 269 l 568 269 q 570 284 570 277 q 570 298 569 291 l 570 298 q 576 312 572 305 q 582 325 580 318 l 582 325 q 584 340 584 333 q 584 353 583 347 l 584 353 q 581 360 580 356 q 582 370 582 364 l 582 370 q 582 377 582 374 q 581 383 581 380 l 581 383 q 584 420 582 401 q 583 457 585 438 l 583 457 q 582 469 581 463 q 581 479 582 474 l 581 479 q 573 500 579 491 q 561 519 566 509 l 561 519 q 546 531 553 523 l 546 531 q 528 537 537 532 q 510 544 519 542 l 510 544 q 489 547 500 547 q 467 549 478 547 l 467 549 q 446 552 457 551 q 423 553 434 552 l 423 553 q 406 553 414 555 l 406 553 q 398 543 398 551 q 397 524 398 534 l 397 524 q 395 509 396 517 q 393 494 393 501 l 393 494 q 393 481 393 488 q 390 469 392 474 l 390 469 q 387 465 389 467 q 382 461 384 463 l 382 461 q 378 437 378 448 l 378 437 q 384 400 386 425 l 384 400 q 412 398 397 398 q 440 392 426 397 l 440 392 q 449 362 451 381 q 441 330 447 343 l 441 330 q 435 327 439 327 q 428 325 431 327 l 428 325 q 424 321 426 323 q 418 319 422 319 l 418 319 q 399 324 409 322 q 379 325 388 325 l 379 325 q 378 306 377 316 q 377 284 378 295 l 377 284 q 372 243 375 264 q 377 205 368 221 l 377 205 q 409 199 391 199 q 445 197 427 198 l 445 197 q 462 181 454 189 q 485 174 470 173 l 485 174 q 499 183 493 177 q 509 194 504 188 l 509 194 q 530 204 520 198 q 545 221 540 209 l 545 221 q 558 234 554 224 q 564 255 562 244 l 564 255 q 566 263 565 259 q 568 269 567 266 z m 596 189 l 596 189 q 607 203 601 196 q 607 220 613 210 l 607 220 q 594 224 595 227 q 590 218 592 220 l 590 218 q 584 209 588 213 q 579 200 579 205 l 579 200 q 572 193 574 197 q 567 185 570 189 l 567 185 q 583 183 575 179 q 596 189 591 187 z m 625 252 l 625 252 q 635 257 633 250 q 634 272 636 264 l 634 272 q 622 274 624 276 q 617 270 619 272 l 617 270 q 617 258 615 263 q 625 252 619 253 z m 88 571 l 88 571 q 89 598 90 584 q 90 622 88 611 l 90 622 q 94 633 91 628 q 99 643 97 638 l 99 643 q 106 643 102 643 q 112 640 110 643 l 112 640 l 112 560 q 109 554 110 556 q 105 548 108 551 l 105 548 q 99 543 103 545 q 95 535 95 540 l 95 535 q 98 526 94 529 q 101 516 101 522 l 101 516 q 97 507 100 511 q 91 502 94 502 l 91 502 q 86 507 88 502 q 84 518 84 512 q 84 530 83 524 q 85 539 84 536 l 85 539 q 87 551 88 548 q 86 558 86 554 l 86 558 q 87 564 86 561 q 88 571 87 567 z m 474 524 l 474 524 q 488 514 485 522 l 488 514 q 470 510 482 509 q 451 506 458 511 l 451 506 q 430 492 434 503 q 421 471 426 480 l 421 471 q 413 478 413 473 q 412 488 413 483 l 412 488 q 411 503 411 496 q 412 517 410 509 l 412 517 q 417 524 413 523 q 425 525 420 525 q 436 525 430 525 q 446 526 441 524 l 446 526 q 462 524 454 525 q 474 524 469 522 z m 529 506 l 529 506 q 530 489 534 491 q 521 488 526 487 q 509 492 515 489 q 500 497 503 495 l 500 497 q 501 513 497 511 q 510 514 504 515 q 521 511 515 513 q 529 506 526 508 z m 27 356 l 27 356 q 38 346 31 349 q 42 333 44 343 l 42 333 q 36 331 39 331 q 29 328 32 330 l 29 328 q 23 331 26 330 q 16 332 19 331 l 16 332 q 5 381 5 350 l 5 381 q 19 393 12 389 l 19 393 q 25 376 26 388 q 27 356 23 364 z m 852 183 l 852 183 q 845 152 854 163 q 829 128 836 141 l 829 128 q 808 105 818 113 q 784 90 797 97 l 784 90 q 723 55 763 63 l 723 55 q 720 68 716 63 q 731 76 724 72 l 731 76 q 737 80 734 78 q 743 83 739 81 l 743 83 q 755 87 749 86 q 766 90 760 88 l 766 90 q 804 116 786 101 q 822 156 821 130 l 822 156 q 821 166 822 161 q 822 176 820 171 l 822 176 q 831 184 824 180 q 840 193 838 187 l 840 193 q 848 190 847 194 q 852 183 849 185 z m 135 81 l 135 81 q 144 81 137 81 q 159 79 151 80 q 172 76 166 78 q 177 70 178 74 l 177 70 q 163 61 175 62 q 142 61 150 59 l 142 61 q 124 61 133 62 q 106 61 115 59 l 106 61 q 71 82 82 68 q 65 125 59 96 l 65 125 q 84 114 82 119 q 94 100 86 108 l 94 100 q 113 90 101 95 q 135 81 124 84 z m 193 66 l 193 66 q 206 78 193 77 q 227 76 219 78 l 227 76 q 230 66 231 71 q 224 59 229 60 l 224 59 q 215 57 221 57 q 206 59 209 57 l 206 59 q 199 63 202 60 q 193 66 196 66 z"},"Ý":{"ha":874,"x_min":-82,"x_max":887,"o":"m 81 753 l 81 753 q 66 753 74 752 q 52 757 58 754 l 52 757 q 51 768 50 762 q 57 775 52 773 l 57 775 q 70 778 67 776 q 74 779 72 779 l 74 779 q 87 778 80 779 q 101 776 94 777 l 101 776 q 121 778 111 776 q 139 776 131 779 l 139 776 q 140 768 143 772 q 132 763 137 764 l 132 763 q 115 763 126 761 q 96 763 104 765 l 96 763 q 89 758 91 761 q 81 753 86 754 z m -41 757 l -41 757 q -49 745 -44 750 q -56 731 -54 739 l -56 731 q -49 709 -52 720 q -43 686 -47 697 l -43 686 q -57 696 -52 691 q -68 706 -63 701 q -78 717 -74 711 q -82 732 -82 723 l -82 732 q -80 738 -82 735 q -78 743 -79 740 l -78 743 q -78 755 -77 749 q -77 765 -80 760 l -77 765 q -68 767 -72 766 q -58 767 -64 767 l -58 767 q -31 773 -42 771 q -9 776 -21 775 l -9 776 q 8 777 -1 780 q 28 776 17 774 l 28 776 q 27 768 33 771 q 16 765 21 765 l 16 765 q -19 764 -6 767 q -41 757 -33 761 z m 877 716 l 877 716 q 885 709 882 714 q 885 696 887 703 l 885 696 q 877 684 883 690 q 866 672 871 677 l 866 672 q 857 658 863 664 q 845 646 850 652 l 845 646 q 811 609 827 629 q 778 570 795 589 l 778 570 q 763 548 772 557 q 746 528 754 539 l 746 528 q 735 519 739 524 q 726 508 731 513 l 726 508 q 717 498 721 503 q 708 486 712 493 l 708 486 q 699 483 703 484 q 690 479 694 482 l 690 479 q 686 474 688 477 q 682 469 684 471 l 682 469 q 677 466 680 467 q 672 463 674 465 l 672 463 q 669 455 670 459 q 664 447 668 450 l 664 447 q 629 399 647 419 q 594 357 611 379 l 594 357 q 593 340 595 348 q 590 321 591 331 l 590 321 q 590 288 588 305 q 591 256 592 270 l 591 256 q 590 249 591 252 q 589 240 589 245 l 589 240 q 588 213 589 227 q 586 185 587 199 l 586 185 q 587 167 586 175 q 586 148 587 159 l 586 148 q 584 124 585 138 q 580 100 582 110 l 580 100 q 579 92 579 92 q 572 88 578 91 l 572 88 q 561 78 562 79 q 556 72 559 77 l 556 72 q 557 51 551 64 l 557 51 q 562 41 559 45 q 572 34 565 37 l 572 34 q 576 12 578 23 q 565 -5 573 0 l 565 -5 q 559 -5 561 -4 q 553 -7 556 -6 l 553 -7 q 520 -5 537 -4 q 485 -6 502 -7 l 485 -6 q 472 -5 474 -4 q 468 -6 470 -6 l 468 -6 q 447 -5 459 -8 q 426 -1 435 -3 l 426 -1 q 413 3 419 1 q 399 5 407 4 l 399 5 q 385 7 389 5 l 385 7 q 370 18 375 16 q 360 19 365 19 l 360 19 q 347 16 352 19 q 335 9 341 12 l 335 9 q 320 5 327 6 q 305 -1 312 4 l 305 -1 q 279 12 287 4 q 266 30 271 19 l 266 30 q 259 48 261 40 q 255 69 256 55 l 255 69 q 256 113 254 89 q 256 156 257 136 l 256 156 q 254 185 253 174 q 254 206 255 195 l 254 206 q 254 221 254 214 q 256 233 253 227 l 256 233 q 264 243 258 238 q 271 252 269 248 l 271 252 q 274 273 276 263 q 266 290 271 282 l 266 290 q 260 304 263 297 q 251 314 257 310 l 251 314 q 253 346 252 331 q 252 378 254 361 l 252 378 q 243 389 247 383 q 233 401 238 394 l 233 401 q 209 430 221 416 q 185 460 196 443 l 185 460 q 174 474 178 465 q 164 490 169 482 l 164 490 q 155 502 159 497 q 146 514 150 507 l 146 514 q 139 534 146 527 q 123 546 131 540 l 123 546 q 106 558 110 551 q 96 570 101 564 l 96 570 q 91 576 94 573 q 86 581 88 578 l 86 581 q 71 603 78 595 q 57 618 64 610 l 57 618 q 53 624 55 621 q 48 628 50 626 l 48 628 q 34 646 40 636 q 19 665 27 655 l 19 665 q 6 684 12 674 q -8 701 0 693 l -8 701 q -22 719 -18 713 q -23 731 -27 724 l -23 731 q -12 740 -13 738 q -10 742 -11 741 l -10 742 q 5 743 2 744 q 10 742 7 742 l 10 742 q 30 742 20 741 q 45 740 39 742 l 45 740 q 51 735 49 738 q 57 729 53 731 l 57 729 q 83 731 74 726 q 99 742 91 736 l 99 742 q 118 741 109 740 q 137 739 127 741 l 137 739 q 154 737 149 736 q 164 737 159 737 l 164 737 q 174 736 169 737 q 183 736 179 735 l 183 736 q 188 737 185 736 q 194 738 190 738 l 194 738 q 220 738 207 739 q 244 740 232 737 l 244 740 q 271 738 258 737 q 294 736 283 738 l 294 736 q 303 733 299 735 q 311 733 306 731 l 311 733 q 329 710 320 722 q 344 686 337 698 l 344 686 q 356 672 351 680 q 366 656 361 664 l 366 656 q 370 636 366 644 q 377 620 374 628 l 377 620 q 386 615 382 618 q 395 609 390 611 l 395 609 q 412 604 408 608 q 421 598 416 600 l 421 598 q 449 564 431 577 q 478 531 466 550 l 478 531 q 494 516 487 520 q 504 507 500 511 l 504 507 q 508 502 506 505 q 513 498 509 499 l 513 498 q 524 504 520 498 q 535 510 527 510 l 535 510 q 583 567 559 538 q 634 618 606 595 l 634 618 q 659 648 644 636 q 683 678 674 660 l 683 678 q 708 685 695 683 q 729 698 721 687 l 729 698 q 733 705 731 701 q 736 711 734 709 l 736 711 q 746 716 738 713 q 757 720 753 719 l 757 720 q 771 719 764 720 q 782 717 777 718 l 782 717 q 795 717 789 716 q 808 717 801 718 l 808 717 q 813 717 810 717 q 819 716 816 716 l 819 716 q 827 717 823 716 q 835 718 830 718 l 835 718 q 841 718 838 718 q 848 717 844 717 l 848 717 q 862 717 855 716 q 877 716 869 718 z m 300 658 l 300 658 q 303 669 303 664 l 303 669 q 291 684 295 674 q 282 702 287 694 l 282 702 q 270 706 277 704 q 254 707 262 707 q 240 705 246 707 q 233 697 234 703 l 233 697 q 237 690 233 692 q 245 686 240 687 q 256 684 250 685 q 265 681 262 683 l 265 681 q 270 671 267 676 q 278 661 273 665 q 288 656 282 657 q 300 658 293 654 z m 335 633 l 335 633 q 323 632 328 633 q 315 626 317 631 l 315 626 q 332 617 321 618 l 332 617 q 335 625 334 620 q 335 633 335 629 z m 300 189 l 300 189 q 301 176 298 183 q 308 168 303 169 l 308 168 q 316 169 311 167 q 324 175 320 171 q 331 183 328 178 q 331 191 333 187 l 331 191 q 320 200 326 196 q 305 202 313 204 l 305 202 q 304 196 306 199 q 300 189 301 193 z m 335 52 l 340 48 q 353 60 348 50 q 353 77 358 69 l 353 77 q 341 81 348 80 q 325 82 333 81 l 325 82 q 315 108 317 93 q 308 137 312 123 l 308 137 q 300 132 302 137 q 298 118 298 126 q 300 102 298 110 q 301 90 301 94 l 301 90 q 302 72 302 80 q 305 56 301 63 l 305 56 q 335 52 324 46 l 335 52 z m 543 435 l 543 435 q 555 458 548 444 q 560 483 562 472 l 560 483 q 544 473 550 479 q 531 460 537 467 l 531 460 q 517 456 525 457 q 503 458 509 454 l 503 458 q 502 443 501 449 q 505 430 503 436 l 505 430 q 512 425 509 427 q 520 420 515 422 l 520 420 q 535 423 531 418 q 543 435 539 428 z m 601 627 l 601 627 q 599 616 602 622 q 592 605 596 609 q 583 601 587 601 q 577 607 578 600 l 577 607 q 579 619 576 612 q 585 629 581 625 q 594 634 589 633 q 601 627 598 634 z m 499 535 l 495 541 q 483 553 490 546 q 484 568 476 560 l 484 568 q 495 565 491 568 q 505 562 499 561 l 505 562 q 534 572 527 559 q 551 592 541 584 l 551 592 q 557 597 553 594 q 566 597 561 599 l 566 597 q 559 577 566 587 q 545 560 551 566 l 545 560 q 536 550 541 556 q 527 540 531 543 l 527 540 q 514 532 522 535 q 499 535 505 529 l 499 535 z m 719 455 l 719 455 q 726 472 719 466 q 743 479 732 477 l 743 479 q 748 466 749 473 q 742 454 747 458 q 731 449 737 449 q 719 455 724 448 z m 700 446 l 702 447 q 710 446 707 445 q 715 443 713 446 l 715 443 q 714 435 716 437 q 711 429 712 433 l 711 429 q 700 417 704 421 q 694 404 696 412 l 694 404 q 682 392 688 397 q 668 380 675 386 l 668 380 q 656 368 661 374 q 646 352 650 361 l 646 352 q 637 265 638 308 l 637 265 q 622 258 632 260 q 609 265 611 256 l 609 265 q 610 276 608 269 q 612 288 612 282 l 612 288 q 612 302 611 299 q 614 309 613 305 l 614 309 q 615 324 615 316 q 615 338 614 331 l 615 338 q 619 352 616 346 q 622 362 622 357 l 622 362 q 663 403 642 383 q 700 446 683 422 l 700 446 z m 268 -5 l 268 -5 q 273 -11 269 -6 q 276 -19 276 -17 l 276 -19 q 271 -22 275 -22 q 263 -22 267 -23 q 254 -21 258 -22 q 249 -20 250 -20 l 249 -20 q 238 -19 244 -19 q 227 -17 232 -19 l 227 -17 q 219 -8 222 -15 q 216 5 215 -2 l 216 5 q 218 16 219 14 q 217 20 217 17 l 217 20 q 216 32 216 25 q 216 45 216 39 l 216 45 l 216 60 q 217 72 218 69 q 215 77 215 74 l 215 77 q 222 98 215 91 l 222 98 q 232 92 227 99 q 236 79 236 85 l 236 79 q 232 57 230 61 q 236 47 233 52 l 236 47 q 245 24 238 33 q 254 2 251 15 l 254 2 q 260 -1 256 -1 q 268 -5 264 -2 z m 373 -1 l 373 -1 q 381 -7 377 -3 q 389 -13 384 -11 l 389 -13 q 418 -17 402 -16 q 442 -28 434 -19 l 442 -28 q 416 -34 426 -33 q 395 -34 406 -35 l 395 -34 q 387 -31 392 -33 q 377 -30 382 -30 l 377 -30 q 366 -32 372 -31 q 353 -33 359 -34 l 353 -33 q 340 -30 346 -32 q 327 -29 334 -29 l 327 -29 q 327 -17 325 -26 l 327 -17 q 336 -12 336 -14 q 338 -9 336 -11 l 338 -9 q 343 -7 341 -8 q 349 -5 345 -6 l 349 -5 q 360 1 353 -1 q 373 -1 366 2 z m 662 938 l 662 938 q 672 936 669 940 q 680 928 675 932 l 680 928 q 687 922 685 924 q 692 915 689 920 l 692 915 q 699 906 697 910 l 699 906 q 705 890 704 898 q 699 877 705 882 l 699 877 q 672 857 685 866 q 641 839 658 847 l 641 839 q 622 826 633 831 q 604 811 610 821 l 604 811 q 567 789 586 800 q 530 766 548 778 l 530 766 q 512 749 523 758 q 484 741 500 739 l 484 741 q 473 744 480 741 q 463 751 465 747 l 463 751 q 460 757 461 753 q 457 765 459 761 l 457 765 q 452 796 451 777 l 452 796 q 490 827 475 815 q 522 849 505 838 l 522 849 q 558 866 550 846 l 558 866 q 562 875 560 873 q 569 880 563 876 l 569 880 q 587 891 578 885 q 605 901 595 896 l 605 901 q 620 909 613 905 q 631 918 626 913 l 631 918 q 643 929 640 927 q 648 934 646 930 l 648 934 q 656 935 653 934 q 662 938 658 936 z"},"ý":{"ha":665,"x_min":-53,"x_max":694,"o":"m 512 621 l 512 621 q 496 615 507 616 q 483 621 485 613 l 483 621 q 489 633 483 629 q 498 642 494 637 l 498 642 q 503 650 501 646 q 507 659 504 654 l 507 659 q 513 666 509 664 q 519 670 516 668 l 519 670 q 531 680 527 676 q 546 683 534 683 l 546 683 q 562 683 554 683 q 577 684 569 682 l 577 684 q 582 674 588 679 q 561 669 575 668 l 561 669 q 549 670 551 672 q 544 669 546 668 l 544 669 q 527 646 536 656 q 512 621 517 636 z m 674 653 l 674 653 q 686 653 679 653 q 694 646 693 652 l 694 646 q 691 635 692 636 q 688 631 690 633 l 688 631 q 682 621 685 626 q 673 613 678 615 l 673 613 q 643 583 657 599 q 621 547 629 566 l 621 547 q 606 530 611 540 q 591 511 600 519 l 591 511 q 576 490 586 499 q 560 469 566 480 l 560 469 q 514 417 534 445 q 471 362 494 388 l 471 362 q 472 345 473 354 q 471 327 470 336 l 471 327 q 473 302 471 314 q 475 279 475 290 l 475 279 q 472 257 476 267 q 464 237 467 247 l 464 237 q 454 222 458 230 q 446 206 450 214 l 446 206 q 448 200 448 204 q 449 193 447 196 l 449 193 q 453 187 450 189 q 458 182 456 185 l 458 182 q 467 163 465 174 q 468 137 468 151 l 468 137 q 468 121 468 129 q 466 104 468 112 l 466 104 q 458 87 462 92 q 447 80 454 82 l 447 80 q 438 78 442 78 q 428 77 433 78 l 428 77 q 413 77 417 75 q 404 76 409 78 l 404 76 q 375 76 390 79 q 344 75 359 73 l 344 75 q 331 77 337 76 q 317 76 324 78 l 317 76 q 284 76 302 79 q 249 78 266 73 l 249 78 q 238 81 244 79 q 228 85 232 83 l 228 85 q 213 114 214 93 q 210 154 211 134 l 210 154 q 212 160 212 156 q 214 167 212 163 l 214 167 q 221 180 216 173 q 226 191 225 186 l 226 191 q 225 197 226 194 q 225 203 224 200 l 225 203 q 227 209 225 206 q 227 214 228 212 l 227 214 q 222 228 226 221 q 215 243 217 234 l 215 243 q 213 260 213 251 q 213 280 213 269 l 213 280 q 214 309 213 294 q 215 339 214 324 l 215 339 q 215 346 216 342 q 214 352 214 349 l 214 352 q 207 372 214 367 q 195 382 200 377 l 195 382 q 189 392 191 387 q 181 400 186 396 l 181 400 q 171 409 176 405 q 164 418 166 413 l 164 418 q 165 428 163 422 q 166 438 167 433 l 166 438 q 159 447 164 443 q 152 455 154 450 l 152 455 q 137 464 145 460 q 122 472 128 467 l 122 472 q 112 484 115 481 q 105 489 108 486 l 105 489 q 93 507 98 497 q 80 525 87 517 l 80 525 q 69 539 75 532 q 69 555 62 545 l 69 555 q 60 566 67 562 q 45 569 53 569 l 45 569 q 39 577 43 574 q 31 585 35 580 l 31 585 q 24 594 28 589 q 15 604 20 599 l 15 604 q 3 618 8 611 q -5 634 -3 624 l -5 634 q -3 646 -7 642 q 3 654 0 649 l 3 654 q 73 654 45 650 q 133 653 101 658 l 133 653 q 153 642 143 641 q 172 646 162 642 l 172 646 q 188 653 183 653 q 199 652 193 652 l 199 652 q 216 654 209 652 q 234 655 223 656 l 234 655 q 243 658 238 659 q 252 652 247 656 q 260 644 256 648 q 266 636 264 639 l 266 636 q 274 628 270 632 q 283 618 278 623 l 283 618 q 290 611 287 614 q 296 602 292 607 l 296 602 q 307 587 301 594 q 319 571 312 579 l 319 571 q 333 557 327 564 q 347 543 339 550 l 347 543 q 367 523 357 533 q 387 505 376 513 l 387 505 q 393 498 390 501 q 400 489 396 494 l 400 489 q 407 482 402 487 q 415 475 412 476 l 415 475 q 422 480 418 475 q 428 486 426 484 l 428 486 q 443 503 436 495 q 458 520 449 511 l 458 520 q 469 533 463 526 q 479 545 474 539 l 479 545 q 482 550 481 547 q 485 555 483 553 l 485 555 q 495 565 490 560 q 504 574 500 569 l 504 574 q 517 580 511 574 q 528 590 523 585 l 528 590 q 538 616 530 606 q 553 636 545 625 l 553 636 q 557 643 555 640 q 562 649 559 646 l 562 649 q 578 653 569 654 q 596 652 586 651 l 596 652 q 611 654 603 652 q 627 656 619 655 l 627 656 q 652 655 640 657 q 674 653 663 653 z m 243 582 l 243 582 q 249 587 246 584 q 254 593 252 589 l 254 593 q 246 604 250 597 q 236 616 241 611 l 236 616 q 223 626 230 624 l 223 626 q 210 617 215 626 l 210 617 q 212 598 213 609 q 223 582 211 586 l 223 582 q 233 582 228 581 q 243 582 238 582 z m 289 129 l 289 129 q 288 136 289 131 q 285 142 287 140 l 285 142 q 276 152 283 149 q 261 152 269 155 l 261 152 q 252 137 256 146 q 254 119 248 127 l 254 119 q 263 118 260 121 q 270 115 265 114 l 270 115 q 286 124 283 123 q 289 129 288 125 z m 422 255 l 422 255 q 422 263 420 260 q 422 269 424 265 l 422 269 q 398 264 408 267 q 378 255 388 261 l 378 255 q 387 239 379 245 l 387 239 q 408 243 399 240 q 422 255 417 245 z m 430 364 l 430 364 q 444 385 436 376 q 459 403 452 394 l 459 403 q 448 411 456 410 q 435 409 440 411 l 435 409 q 426 399 429 407 q 417 386 422 391 l 417 386 q 409 375 410 380 q 407 367 408 370 l 407 367 q 407 355 407 362 q 404 342 406 347 l 404 342 q 410 319 410 325 q 414 307 409 312 l 414 307 q 423 312 419 309 q 428 319 427 314 l 428 319 q 427 327 428 323 q 425 336 425 331 l 425 336 q 426 352 424 346 q 430 364 427 357 z m 0 584 l 0 584 q 1 575 -2 580 q 0 567 3 570 l 0 567 q -9 574 -8 568 q -15 584 -11 580 l -15 584 q -51 617 -40 597 l -51 617 q -47 636 -53 628 q -33 639 -42 644 l -33 639 q -29 631 -29 636 q -31 623 -29 626 l -31 623 q -26 612 -30 616 q -17 602 -22 607 l -17 602 q -7 593 -12 597 q 0 584 -3 589 z m 18 541 l 18 541 q 20 554 15 550 q 30 556 24 557 q 42 549 36 554 q 46 537 47 544 l 46 537 q 31 530 40 529 q 18 541 21 531 z m 575 443 l 575 443 q 581 458 575 451 q 593 459 586 464 l 593 459 q 589 444 596 449 q 575 443 581 438 z m 556 432 l 556 432 q 567 425 565 430 q 565 411 568 419 l 565 411 q 555 394 558 397 q 550 386 552 390 l 550 386 q 544 375 546 378 q 538 367 541 372 l 538 367 q 530 352 532 354 q 527 347 527 350 l 527 347 q 527 323 528 331 q 526 302 525 314 l 526 302 q 520 298 522 300 q 513 293 517 295 l 513 293 q 511 283 511 290 q 511 269 511 276 q 508 257 510 262 q 501 253 506 252 l 501 253 q 499 270 496 264 q 502 282 501 275 l 502 282 q 502 303 504 292 q 499 324 500 313 l 499 324 q 496 344 497 335 q 503 358 495 353 l 503 358 q 513 375 505 369 q 525 389 520 381 l 525 389 q 529 398 527 393 q 536 404 530 402 l 536 404 q 550 421 543 417 l 550 421 q 556 431 555 431 q 556 432 556 431 z m 195 88 l 195 88 q 207 77 200 82 q 212 63 213 71 l 212 63 q 209 55 212 60 q 202 49 205 50 l 202 49 q 190 53 196 48 q 181 62 183 58 l 181 62 q 176 78 177 75 q 173 83 174 81 l 173 83 q 172 96 173 94 q 170 100 170 98 l 170 100 q 172 113 169 108 q 174 124 175 118 l 174 124 q 170 133 173 128 q 172 143 167 138 l 172 143 q 180 144 177 143 q 186 142 183 144 l 186 142 q 188 126 192 134 q 181 109 184 117 l 181 109 q 188 99 185 104 q 195 88 190 94 z m 485 105 l 485 105 q 491 106 487 107 q 498 103 495 104 l 498 103 q 505 86 503 95 q 504 69 506 77 q 495 55 501 61 q 479 49 489 49 l 479 49 q 470 50 474 49 q 462 47 465 51 l 462 47 q 447 47 454 50 q 431 45 439 43 l 431 45 q 420 41 427 41 q 410 46 412 41 l 410 46 q 412 57 410 51 l 412 57 q 430 60 420 59 q 447 62 439 61 l 447 62 q 458 62 453 63 q 466 63 462 61 l 466 63 q 476 71 470 65 q 483 81 481 77 l 483 81 q 485 105 487 90 z m 371 43 l 371 43 q 376 53 368 51 q 390 54 384 55 l 390 54 q 395 45 396 49 q 389 38 393 40 q 379 37 384 36 q 371 43 373 38 z m 530 897 l 530 897 q 540 895 537 899 q 548 887 543 891 l 548 887 q 555 881 553 883 q 560 874 557 879 l 560 874 q 567 865 565 869 l 567 865 q 573 849 572 857 q 567 836 573 841 l 567 836 q 540 816 553 825 q 509 798 526 806 l 509 798 q 490 785 501 790 q 472 770 478 780 l 472 770 q 435 748 454 759 q 398 725 416 737 l 398 725 q 380 708 391 717 q 352 700 368 698 l 352 700 q 341 703 348 700 q 331 710 333 706 l 331 710 q 328 716 329 712 q 325 724 327 720 l 325 724 q 320 755 319 736 l 320 755 q 358 786 343 774 q 390 808 373 797 l 390 808 q 426 825 418 805 l 426 825 q 430 834 428 832 q 437 839 431 835 l 437 839 q 455 850 446 844 q 473 860 463 855 l 473 860 q 488 868 481 864 q 499 877 494 872 l 499 877 q 511 888 508 886 q 516 893 514 889 l 516 893 q 524 894 521 893 q 530 897 526 895 z"},"Þ":{"ha":912,"x_min":26,"x_max":883,"o":"m 201 804 l 201 804 q 198 785 207 793 q 184 771 189 777 l 184 771 q 155 776 168 769 q 127 781 142 782 l 127 781 q 95 774 109 780 q 67 758 80 768 l 67 758 q 56 708 56 734 q 50 653 55 682 l 50 653 q 41 701 38 676 q 45 751 43 725 l 45 751 q 45 761 45 756 q 45 771 44 766 l 45 771 q 47 782 46 776 q 49 792 47 787 l 49 792 q 57 799 51 795 q 67 804 63 803 l 67 804 q 91 808 78 809 q 115 806 103 807 l 115 806 q 132 807 124 805 q 148 809 140 808 l 148 809 q 175 806 162 809 q 201 804 187 802 z m 287 776 l 287 776 q 276 775 282 773 q 264 775 269 776 l 264 775 q 252 770 258 774 q 236 768 246 766 l 236 768 q 228 772 231 769 q 220 778 224 774 l 220 778 q 221 784 220 781 q 223 791 222 786 l 223 791 q 246 799 229 797 l 246 799 q 254 801 250 799 q 260 801 258 802 l 260 801 q 275 794 270 795 q 283 790 279 792 q 288 785 286 788 q 287 776 290 781 z m 413 735 l 413 735 q 420 725 415 729 q 427 716 425 721 l 427 716 q 432 698 431 708 q 432 677 432 687 l 432 677 q 430 638 434 657 q 428 594 426 619 l 428 594 q 442 594 435 592 q 455 595 448 595 l 455 595 q 467 595 461 596 q 479 593 473 593 l 479 593 q 486 595 482 593 q 493 596 489 596 l 493 596 q 498 596 495 596 q 504 595 501 595 l 504 595 q 528 595 516 595 q 550 594 539 594 l 550 594 q 561 595 555 594 q 571 594 567 595 l 571 594 q 580 589 576 592 q 586 583 583 585 l 586 583 q 606 577 594 578 q 626 578 618 575 l 626 578 q 640 586 633 580 q 655 587 646 592 l 655 587 q 695 590 672 590 q 738 587 718 589 l 738 587 q 768 584 754 585 l 768 584 q 814 570 794 581 q 850 547 833 558 l 850 547 q 857 533 852 539 q 860 517 862 527 l 860 517 q 865 506 862 512 q 868 492 867 500 l 868 492 q 875 451 870 472 q 881 409 879 430 l 881 409 q 882 397 881 403 q 882 386 882 391 l 882 386 q 878 348 882 366 q 870 309 873 329 l 870 309 q 868 287 868 298 q 864 264 868 275 l 864 264 q 861 260 863 261 q 857 255 859 258 l 857 255 q 849 246 852 249 q 837 238 845 243 l 837 238 q 823 229 831 233 q 807 223 815 225 l 807 223 q 787 199 797 209 q 763 182 777 188 l 763 182 q 747 180 756 180 q 728 178 737 180 l 728 178 q 719 176 723 177 q 709 174 714 175 l 709 174 q 678 174 691 173 q 647 173 664 174 l 647 173 q 602 173 625 172 q 554 173 579 174 l 554 173 q 515 173 534 172 q 476 172 495 174 l 476 172 q 455 171 467 171 q 432 170 443 171 l 432 170 q 434 143 436 158 q 432 113 431 128 l 432 113 q 433 104 432 108 q 434 94 434 99 l 434 94 q 433 71 434 83 q 431 48 431 59 l 431 48 q 421 16 433 29 l 421 16 q 396 13 410 11 q 368 12 382 14 l 368 12 q 345 9 356 11 q 326 6 334 7 l 326 6 q 309 5 312 6 q 300 3 305 3 l 300 3 q 276 6 289 3 q 251 7 263 8 l 251 7 q 235 6 243 7 q 219 5 227 5 l 219 5 q 206 6 212 5 q 191 7 199 7 l 191 7 q 153 7 172 7 q 118 9 133 6 l 118 9 q 106 13 112 11 q 96 20 100 15 l 96 20 q 93 29 94 24 q 90 35 91 33 l 90 35 q 93 60 86 46 q 100 85 99 74 l 100 85 q 96 93 98 90 q 90 100 93 96 l 90 100 q 87 140 86 120 q 86 182 88 160 l 86 182 q 84 196 85 188 q 83 210 83 203 l 83 210 q 84 223 83 216 q 83 236 84 230 l 83 236 q 85 262 86 248 q 88 286 83 275 l 88 286 q 93 292 90 290 q 98 297 96 294 l 98 297 q 100 317 101 306 l 100 317 q 100 331 100 325 q 98 344 99 337 l 98 344 q 96 350 97 347 q 94 356 95 353 l 94 356 q 93 381 92 368 q 93 409 94 394 l 93 409 q 98 434 96 424 q 103 453 100 443 l 103 453 q 102 472 100 461 q 99 490 104 482 l 99 490 q 98 529 98 510 q 93 560 97 548 l 93 560 q 97 571 98 565 q 94 586 95 577 l 94 586 q 95 607 94 596 q 95 629 96 618 l 95 629 q 92 660 94 644 q 92 689 90 675 l 92 689 q 94 696 93 692 q 96 703 95 699 l 96 703 q 99 727 97 715 q 112 743 101 738 l 112 743 q 134 746 124 742 q 155 744 144 749 l 155 744 q 170 736 163 742 q 184 727 176 729 l 184 727 q 199 724 192 724 q 214 721 206 724 l 214 721 q 281 741 251 738 l 281 741 q 298 742 289 743 q 314 740 306 740 l 314 740 q 362 736 336 740 q 413 735 387 731 z m 194 664 l 194 664 q 189 672 193 669 q 179 678 184 675 q 168 684 173 681 q 161 692 163 687 l 161 692 q 154 693 156 691 q 147 695 152 695 l 147 695 q 140 683 141 692 q 139 666 139 674 l 139 666 q 140 632 138 652 q 143 596 142 612 l 143 596 q 143 586 143 592 q 144 573 143 579 q 146 563 144 567 q 150 558 147 558 l 150 558 q 160 567 155 557 q 166 583 165 577 l 166 583 q 167 610 168 596 q 168 636 166 624 l 168 636 q 186 647 176 640 q 194 664 196 653 z m 234 659 l 234 659 q 249 653 237 650 q 266 658 260 656 l 266 658 q 267 672 270 665 q 262 683 264 678 l 262 683 q 254 681 254 680 q 251 682 253 682 l 251 682 q 240 673 247 677 q 234 659 232 668 z m 626 368 l 626 368 q 622 379 627 374 q 614 388 616 383 l 614 388 q 609 404 610 395 q 605 422 607 413 q 601 439 603 431 q 593 453 598 447 l 593 453 q 582 461 591 456 q 567 467 573 465 l 567 467 q 554 469 560 469 q 539 471 547 469 l 539 471 q 520 474 526 474 q 506 473 513 473 l 506 473 q 467 474 486 474 q 430 471 448 474 l 430 471 q 427 456 428 463 q 428 440 426 449 l 428 440 q 427 410 429 425 l 427 410 q 426 351 423 381 q 427 289 429 320 l 427 289 q 449 287 437 286 q 471 287 460 288 l 471 287 q 491 287 481 287 q 508 289 500 286 l 508 289 q 521 288 515 284 q 535 292 527 291 l 535 292 q 541 291 538 292 q 547 290 544 290 l 547 290 q 569 292 559 290 q 587 298 578 293 l 587 298 q 601 326 593 312 q 613 356 609 339 l 613 356 q 620 361 615 359 q 626 368 625 363 z m 799 381 l 799 381 q 820 387 814 376 q 820 408 825 397 l 820 408 q 800 401 809 410 q 799 381 791 392 z m 813 331 l 804 330 q 795 309 799 318 q 782 291 790 299 l 782 291 q 769 276 773 280 q 764 268 765 271 l 764 268 q 763 256 761 262 q 763 241 765 249 l 763 241 q 770 237 767 236 q 775 241 773 238 q 779 249 777 244 q 782 256 780 253 l 782 256 q 803 270 790 265 q 821 283 816 274 l 821 283 q 824 310 826 297 q 813 331 822 323 l 813 331 z m 367 179 l 367 179 q 367 188 368 182 q 361 195 365 193 l 361 195 q 350 191 355 199 q 346 175 344 183 l 346 175 q 359 173 352 171 q 367 179 365 174 z m 360 126 l 360 126 q 319 88 339 108 l 319 88 q 320 83 321 86 q 319 76 318 80 l 319 76 q 349 72 333 65 q 376 87 365 79 l 376 87 q 379 107 379 96 q 373 123 378 117 l 373 123 q 367 125 368 123 q 360 126 365 126 z m 482 650 l 482 650 q 506 647 495 646 q 527 649 517 648 l 527 649 q 531 639 531 644 q 535 629 531 634 l 535 629 q 519 626 527 627 q 502 625 511 624 l 502 625 q 477 626 488 625 q 460 640 465 627 l 460 640 q 460 649 459 643 q 461 657 461 654 l 461 657 q 461 676 462 666 q 465 690 460 685 l 465 690 q 473 683 471 688 q 476 672 475 678 q 478 660 477 666 q 482 650 478 653 z m 850 165 l 850 165 q 836 142 846 150 q 811 130 825 134 q 781 125 797 125 q 749 124 765 124 l 749 124 q 727 121 737 124 q 703 118 716 118 l 703 118 q 696 133 696 128 q 698 140 696 137 l 698 140 q 733 143 717 146 q 766 146 749 140 l 766 146 q 773 151 770 148 q 780 156 776 154 l 780 156 q 788 160 784 158 q 796 163 792 161 l 796 163 q 808 171 802 166 q 818 180 813 176 l 818 180 q 822 186 820 182 q 826 193 824 190 l 826 193 q 841 199 833 198 q 855 203 848 200 l 855 203 q 864 211 859 205 q 873 217 869 217 l 873 217 q 881 202 883 215 l 881 202 q 876 193 880 199 q 869 184 872 187 l 869 184 q 859 174 864 178 q 850 165 854 169 z m 665 143 l 665 143 q 670 135 668 140 q 667 127 672 130 l 667 127 q 615 121 643 111 l 615 121 q 611 135 610 128 l 611 135 q 640 139 629 136 q 665 143 651 141 z m 62 -26 l 62 -26 q 94 -28 78 -23 q 122 -29 110 -33 l 122 -29 q 140 -31 130 -34 q 158 -34 150 -29 l 158 -34 q 148 -51 153 -49 l 148 -51 q 131 -55 142 -56 q 108 -56 119 -54 l 108 -56 q 92 -60 101 -58 q 72 -60 82 -62 l 72 -60 q 52 -54 62 -59 q 37 -45 41 -50 l 37 -45 q 29 -19 31 -37 q 26 9 26 -2 l 26 9 q 28 25 26 17 q 28 39 30 32 l 28 39 q 31 46 30 41 q 33 54 31 51 l 33 54 q 47 35 45 45 q 51 14 49 24 q 55 -7 52 3 q 62 -26 57 -18 z m 246 -37 l 246 -37 q 237 -56 249 -50 q 213 -62 224 -62 l 213 -62 q 201 -60 207 -62 q 190 -65 195 -59 l 190 -65 q 180 -53 184 -61 q 182 -39 176 -46 l 182 -39 q 191 -34 185 -35 q 202 -33 196 -33 q 214 -35 208 -34 q 225 -35 220 -36 l 225 -35 q 236 -33 230 -34 q 246 -37 241 -33 z"},"þ":{"ha":748,"x_min":9,"x_max":717,"o":"m 170 729 l 170 729 q 169 715 175 721 q 157 702 162 708 l 157 702 q 133 707 143 701 q 110 713 122 713 l 110 713 q 83 708 95 713 q 59 695 70 703 l 59 695 q 50 655 50 675 q 44 610 49 634 l 44 610 q 38 649 35 628 q 42 689 40 669 l 42 689 q 42 697 42 693 q 43 706 42 701 l 43 706 q 44 716 44 711 q 46 722 44 720 l 46 722 q 53 728 48 725 q 61 732 58 731 l 61 732 q 80 735 70 735 q 100 732 90 734 l 100 732 q 115 733 108 731 q 128 734 121 734 l 128 734 q 150 731 139 734 q 170 729 160 728 z m 240 706 l 240 706 q 231 704 235 702 q 221 705 226 705 l 221 705 q 212 700 216 703 q 199 699 207 697 l 199 699 q 185 708 191 700 l 185 708 q 207 724 194 724 l 207 724 q 213 725 210 724 q 218 726 216 726 l 218 726 q 237 716 229 719 q 240 706 244 713 z m 341 669 l 341 669 q 347 661 343 664 q 353 652 351 657 l 353 652 q 356 638 355 646 q 356 621 356 629 l 356 621 q 354 589 357 604 q 351 553 350 573 l 351 553 q 362 552 356 551 q 373 554 368 553 l 373 554 q 383 553 378 554 q 392 551 387 551 l 392 551 q 398 552 395 551 q 403 553 401 553 l 403 553 q 433 552 423 552 q 451 550 442 551 l 451 550 q 460 551 455 550 q 468 550 465 551 l 468 550 q 474 546 472 549 q 479 541 476 543 l 479 541 q 496 535 486 537 q 512 536 506 533 l 512 536 q 524 542 518 538 q 537 543 529 546 l 537 543 q 569 544 550 545 q 603 541 588 543 l 603 541 q 617 540 610 540 q 628 538 623 539 l 628 538 q 665 525 648 535 q 694 506 681 514 l 694 506 q 700 495 696 500 q 701 481 703 490 l 701 481 q 705 471 703 476 q 708 461 707 466 l 708 461 q 712 427 709 444 q 716 392 715 410 l 716 392 q 717 383 716 387 q 717 374 717 379 l 717 374 q 713 343 716 358 q 706 311 709 327 l 706 311 q 704 293 704 302 q 699 275 704 283 l 699 275 q 686 260 689 262 q 677 254 683 257 l 677 254 q 665 248 672 251 q 652 243 658 244 l 652 243 q 636 224 644 232 q 615 211 627 215 l 615 211 q 602 209 609 209 q 587 208 595 209 l 587 208 q 578 207 582 207 q 571 205 574 206 l 571 205 q 546 206 557 205 q 521 205 534 206 l 521 205 q 484 206 504 205 q 444 207 464 207 l 444 207 q 412 208 428 207 q 382 209 396 209 l 382 209 q 364 208 374 208 q 345 208 354 208 l 345 208 q 346 185 348 197 q 344 161 344 173 l 344 161 q 345 154 344 157 q 345 146 345 151 l 345 146 q 344 127 345 136 q 342 109 342 117 l 342 109 q 333 82 342 91 l 333 82 q 313 80 325 78 q 289 81 301 81 l 289 81 q 271 79 279 80 q 255 76 262 77 l 255 76 q 241 76 244 77 q 233 75 238 75 l 233 75 q 215 78 224 75 q 194 79 205 80 l 194 79 q 181 79 187 79 q 168 78 174 78 l 168 78 q 157 79 163 78 q 145 80 151 80 l 145 80 q 114 81 129 81 q 86 83 98 81 l 86 83 q 69 93 73 87 l 69 93 q 66 99 67 95 q 63 104 65 102 l 63 104 q 66 125 60 114 q 73 145 72 136 l 73 145 q 69 153 71 150 q 65 159 67 156 l 65 159 q 63 191 62 175 q 62 224 64 207 l 62 224 q 62 236 62 230 q 61 248 61 242 l 61 248 q 62 258 61 253 q 61 268 62 263 l 61 268 q 64 290 65 279 q 68 309 62 300 l 68 309 q 72 314 70 312 q 76 318 74 315 l 76 318 q 78 335 79 327 l 78 335 q 78 346 78 340 q 77 356 78 351 l 77 356 q 76 362 77 358 q 74 367 74 365 l 74 367 q 73 387 72 377 q 74 410 74 397 l 74 410 q 79 430 77 423 q 83 445 81 437 l 83 445 q 83 461 81 452 q 81 476 85 470 l 81 476 q 81 508 81 492 q 78 534 80 523 l 78 534 q 81 542 82 537 q 79 554 79 547 l 79 554 q 80 572 79 562 q 81 589 81 581 l 81 589 q 80 614 81 601 q 80 638 78 627 l 80 638 q 81 643 80 640 q 83 649 82 646 l 83 649 q 86 669 84 660 q 96 682 88 678 l 96 682 q 115 683 107 680 q 132 682 123 685 l 132 682 q 142 675 137 680 q 155 667 147 669 l 155 667 q 167 665 161 665 q 179 662 172 664 l 179 662 q 234 677 210 676 l 234 677 q 248 677 241 678 q 261 675 254 675 l 261 675 q 300 670 279 674 q 341 669 320 666 z m 162 615 l 162 615 q 149 628 160 624 q 135 639 138 631 l 135 639 q 124 643 125 643 l 124 643 q 119 632 120 639 q 117 617 117 625 l 117 617 q 117 591 116 606 q 119 561 118 575 l 119 561 q 120 543 120 554 q 123 530 119 531 l 123 530 q 132 537 128 529 q 137 550 136 545 l 137 550 q 139 572 139 560 q 140 593 138 583 l 140 593 q 156 601 148 596 q 162 615 163 606 z m 195 610 l 195 610 q 206 605 197 603 q 220 609 215 607 l 220 609 q 222 620 224 614 q 218 630 220 626 l 218 630 q 200 622 205 625 q 195 610 194 618 z m 507 365 l 507 365 q 504 374 508 370 q 498 381 500 378 l 498 381 q 492 409 492 392 q 482 434 491 425 l 482 434 q 474 440 480 436 q 462 446 467 444 l 462 446 q 451 449 457 449 q 438 451 444 449 l 438 451 q 423 454 428 454 q 413 453 418 453 l 413 453 q 381 455 396 454 q 350 453 365 455 l 350 453 q 347 441 348 447 q 348 428 346 435 l 348 428 q 346 403 348 415 l 346 403 q 344 355 342 380 q 344 304 346 330 l 344 304 q 362 303 352 302 q 380 302 371 303 l 380 302 q 395 301 388 301 q 410 302 402 300 l 410 302 q 421 302 415 299 q 431 304 426 304 l 431 304 q 459 304 452 303 q 474 309 466 304 l 474 309 q 486 331 479 321 q 497 355 493 341 l 497 355 q 503 359 499 358 q 507 365 506 360 z m 649 372 l 649 372 q 666 376 661 367 q 667 392 671 384 l 667 392 q 650 388 657 394 q 649 372 643 381 z m 659 331 l 651 330 q 634 298 643 310 l 634 298 q 623 287 626 290 q 617 281 619 283 l 617 281 q 617 270 615 275 q 616 258 618 264 l 616 258 q 623 255 620 254 q 627 258 625 255 q 630 265 628 261 q 633 270 631 268 l 633 270 q 650 282 639 278 q 665 291 660 285 l 665 291 q 669 314 670 302 q 659 331 667 325 l 659 331 z m 292 216 l 292 216 q 292 223 293 218 q 289 229 291 227 l 289 229 q 279 227 284 232 q 275 213 273 221 l 275 213 q 292 216 288 206 z m 296 171 l 286 173 q 252 143 268 160 l 252 143 q 276 130 262 125 q 298 141 289 134 l 298 141 q 296 171 303 158 l 296 171 z m 397 598 l 397 598 q 416 595 407 595 q 433 596 425 595 l 433 596 q 436 588 436 592 q 438 580 436 584 l 438 580 q 427 577 433 578 q 412 577 420 575 l 412 577 q 391 579 401 578 q 378 590 381 579 l 378 590 q 378 597 377 592 q 379 604 379 602 l 379 604 q 379 619 380 611 q 383 631 378 627 l 383 631 q 390 625 388 629 q 393 616 392 621 q 394 606 393 611 q 397 598 394 601 z m 686 195 l 686 195 q 673 177 682 183 q 653 167 664 170 q 629 164 642 164 q 602 163 615 163 l 602 163 q 585 161 593 163 q 565 160 576 159 l 565 160 q 562 177 560 174 l 562 177 q 590 179 577 182 q 617 181 603 176 l 617 181 q 623 185 620 183 q 629 188 626 186 l 629 188 q 635 191 632 190 q 641 194 638 192 l 641 194 q 651 200 646 196 q 660 208 656 204 l 660 208 q 664 213 662 210 q 667 217 665 215 l 667 217 q 679 222 672 222 q 691 225 685 222 l 691 225 q 698 232 693 227 q 707 236 702 237 l 707 236 q 711 232 709 236 q 712 223 713 228 l 712 223 q 702 210 710 216 l 702 210 q 693 202 698 205 q 686 195 688 198 z m 534 180 l 534 180 q 539 174 537 178 q 536 168 540 170 l 536 168 q 494 164 515 154 l 494 164 q 491 169 492 166 q 490 175 489 171 l 490 175 q 514 178 505 176 q 534 180 523 179 z m 39 56 l 39 56 q 66 54 52 58 q 88 52 79 50 l 88 52 q 104 49 95 47 q 118 47 112 51 l 118 47 q 112 36 113 37 q 109 34 110 34 l 109 34 q 95 31 104 30 q 76 30 85 32 l 76 30 q 63 28 71 29 q 46 28 54 26 l 46 28 q 31 33 39 29 q 18 41 22 37 l 18 41 q 11 62 13 47 q 10 85 9 76 l 10 85 q 13 98 11 92 q 12 110 14 104 l 12 110 q 15 116 14 112 q 17 122 15 119 l 17 122 q 31 89 30 107 q 39 56 32 70 z m 188 43 l 188 43 q 182 28 192 32 q 162 23 171 23 l 162 23 q 152 25 157 24 q 143 22 146 26 l 143 22 q 135 32 138 25 q 137 43 132 38 l 137 43 q 153 47 143 50 q 173 45 163 44 l 173 45 q 181 46 177 46 q 188 43 185 46 z"},"½":{"ha":827,"x_min":18,"x_max":807,"o":"m 434 679 l 434 679 q 433 693 426 684 q 442 710 440 702 l 442 710 q 450 728 444 724 q 457 739 455 732 l 457 739 q 458 749 458 743 q 460 758 458 754 l 460 758 q 468 765 462 764 q 479 765 474 766 q 486 760 484 763 q 479 752 487 756 l 479 752 q 476 745 478 747 q 472 740 474 743 l 472 740 q 469 729 470 735 q 465 718 467 723 l 465 718 q 461 711 463 714 q 457 702 459 707 l 457 702 q 450 687 454 693 q 434 679 445 681 z m 191 751 l 191 751 q 190 744 192 746 q 185 741 188 741 q 178 742 181 740 q 174 748 174 743 l 174 748 q 191 751 189 758 z m 221 739 l 221 739 q 216 743 219 742 q 209 745 212 743 l 209 745 q 219 754 212 751 q 231 755 226 757 l 231 755 q 240 746 239 752 q 241 730 241 739 l 241 730 q 241 717 240 724 q 242 703 242 709 l 242 703 q 242 687 243 696 q 237 676 240 678 l 237 676 q 227 675 232 673 q 220 681 221 676 l 220 681 q 222 688 220 685 q 223 695 223 691 l 223 695 q 223 723 221 712 q 221 739 224 734 z m 432 425 l 432 425 q 426 415 430 420 q 420 401 422 409 l 420 401 q 411 395 415 398 q 401 386 406 391 l 401 386 q 395 379 398 383 q 390 369 392 374 l 390 369 q 390 361 389 365 q 389 353 390 357 l 389 353 q 382 333 387 342 q 372 313 377 324 l 372 313 q 371 307 371 310 q 369 300 370 303 l 369 300 q 365 294 367 297 q 361 286 362 291 l 361 286 q 346 253 352 270 q 330 220 339 236 l 330 220 q 308 166 320 191 q 284 114 296 140 l 284 114 q 281 107 282 111 q 278 100 280 103 l 278 100 q 274 94 276 97 q 269 88 271 91 l 269 88 q 262 72 265 80 q 254 57 259 63 l 254 57 q 238 23 245 40 q 217 -7 230 6 l 217 -7 q 187 -3 203 -5 q 154 0 171 -2 l 154 0 q 149 7 153 5 q 142 13 144 8 l 142 13 q 142 25 142 18 q 144 36 142 31 l 144 36 q 149 42 146 39 q 153 47 151 44 l 153 47 q 156 54 155 50 q 158 60 156 57 l 158 60 q 165 72 165 70 q 165 75 164 73 l 165 75 q 170 82 167 79 q 175 88 173 85 l 175 88 q 183 106 179 97 q 191 124 186 114 l 191 124 q 196 132 193 128 q 201 139 199 135 l 201 139 q 209 155 205 147 q 217 170 213 162 l 217 170 q 221 179 219 175 q 224 187 222 183 l 224 187 q 235 206 232 199 q 241 218 237 212 l 241 218 q 255 244 251 234 q 264 264 259 254 l 264 264 q 281 278 270 272 q 296 294 292 283 l 296 294 q 297 300 297 296 q 298 307 297 304 l 298 307 q 297 319 298 312 q 298 332 296 326 l 298 332 q 302 339 299 335 q 307 346 305 342 l 307 346 q 324 379 315 363 q 342 412 333 395 l 342 412 q 356 448 347 430 q 372 481 364 465 l 372 481 q 376 486 374 483 q 379 492 377 489 l 379 492 q 380 498 380 495 q 382 504 380 501 l 382 504 q 387 511 384 508 q 391 518 389 514 l 391 518 q 395 527 393 523 q 399 535 396 530 l 399 535 q 404 542 401 539 q 410 549 407 545 l 410 549 q 417 565 415 557 q 420 587 418 573 l 420 587 q 425 596 421 591 q 430 606 428 601 l 430 606 q 436 619 434 612 q 443 630 438 625 l 443 630 q 449 644 444 638 q 457 656 453 650 l 457 656 q 460 665 459 661 q 463 674 461 669 l 463 674 q 472 693 466 683 q 482 712 477 702 l 482 712 q 483 719 481 717 q 485 724 484 721 l 485 724 q 495 734 491 728 q 507 740 499 739 l 507 740 q 513 739 509 740 q 518 738 516 738 l 518 738 q 528 739 523 738 q 538 739 533 739 l 538 739 q 549 736 548 735 q 551 736 549 736 l 551 736 q 558 733 555 735 q 564 729 561 730 l 564 729 q 566 722 564 725 q 568 715 568 719 l 568 715 q 564 696 569 705 q 556 679 559 687 l 556 679 q 554 671 554 675 q 552 664 553 667 l 552 664 q 541 640 548 651 q 527 616 534 628 l 527 616 q 515 593 521 604 q 505 569 509 581 l 505 569 q 485 531 493 549 q 467 497 477 513 l 467 497 q 452 467 460 481 q 438 436 443 453 l 438 436 q 434 431 434 434 q 432 425 434 428 z m 528 700 l 528 700 q 508 686 517 695 q 500 663 498 677 l 500 663 q 506 666 503 665 q 512 664 509 667 l 512 664 q 521 670 516 665 q 529 680 526 674 q 533 691 532 685 q 528 700 533 696 z m 198 47 l 208 47 q 212 57 210 51 q 213 68 213 62 q 211 77 213 73 q 204 83 209 81 l 204 83 q 190 65 199 74 q 185 42 181 56 l 185 42 q 193 44 191 42 q 198 47 195 45 l 198 47 z m 231 92 l 231 92 q 245 98 241 88 q 244 116 249 108 l 244 116 q 231 92 233 107 z m 84 369 l 84 369 q 78 364 80 367 q 73 359 75 361 l 73 359 q 52 358 62 359 q 33 358 42 356 l 33 358 q 30 363 32 360 q 27 368 28 365 l 27 368 q 28 376 26 371 q 28 386 29 381 l 28 386 q 26 395 27 391 q 24 403 24 398 l 24 403 q 36 427 25 422 q 66 431 47 431 l 66 431 q 67 443 68 437 q 67 457 66 449 l 67 457 q 70 467 67 462 q 72 476 72 471 l 72 476 q 69 482 71 479 q 67 487 67 484 l 67 487 q 67 502 65 494 q 68 517 68 509 l 68 517 q 68 549 66 538 q 70 570 69 560 l 70 570 l 70 592 q 71 602 70 597 q 66 610 71 607 l 66 610 q 42 607 56 609 q 22 614 28 605 l 22 614 q 26 643 18 634 q 41 663 33 652 l 41 663 q 50 675 46 669 q 59 686 54 680 l 59 686 q 73 696 72 692 q 76 703 74 699 l 76 703 q 91 723 86 716 q 103 731 95 729 l 103 731 q 121 731 112 733 q 138 730 130 729 l 138 730 q 157 729 151 732 q 169 727 162 726 l 169 727 q 185 731 177 728 q 202 729 192 734 l 202 729 q 206 708 204 719 q 206 684 207 697 l 206 684 q 206 672 205 679 q 205 660 206 665 l 205 660 q 200 651 203 655 q 196 641 197 646 l 196 641 q 196 634 195 638 q 197 625 196 630 l 197 625 q 201 615 199 620 q 204 603 203 610 l 204 603 q 204 581 205 594 q 204 553 203 567 l 204 553 q 207 520 205 535 q 205 490 208 504 l 205 490 q 203 484 204 487 q 201 476 201 480 l 201 476 q 204 469 202 472 q 205 463 205 466 l 205 463 q 206 447 206 455 q 211 433 205 438 l 211 433 q 232 431 222 435 q 244 418 242 427 l 244 418 q 244 411 245 414 q 242 402 243 407 l 242 402 q 242 384 241 393 q 242 367 242 375 l 242 367 q 237 365 240 365 q 231 361 233 364 l 231 361 q 175 360 205 361 q 118 364 144 359 l 118 364 q 101 369 109 366 q 84 369 93 372 z m 187 395 l 187 395 q 176 392 185 394 q 167 388 167 389 l 167 388 q 168 382 165 384 q 175 379 171 380 l 175 379 q 198 380 184 378 q 216 384 211 382 l 216 384 q 227 399 228 388 q 218 410 226 410 l 218 410 q 211 405 213 410 q 203 397 208 400 l 203 397 q 197 396 200 395 q 187 395 193 396 z m 93 688 l 93 688 q 101 676 96 674 q 109 681 105 677 q 116 689 112 685 q 125 694 120 693 l 125 694 q 137 694 130 695 q 150 694 144 693 q 161 696 156 694 q 166 705 165 698 l 166 705 q 161 708 164 707 q 156 710 158 708 l 156 710 q 139 709 149 708 q 124 712 129 709 l 124 712 q 110 711 114 712 q 103 705 106 709 q 98 697 100 701 q 93 688 95 692 z m 65 408 l 65 408 q 62 401 61 403 q 66 396 63 398 q 74 394 69 394 q 81 393 78 393 l 81 393 q 91 397 86 393 q 98 404 96 401 l 98 404 q 101 421 100 410 q 102 439 102 431 l 102 439 q 101 445 101 442 q 100 450 100 447 l 100 450 q 103 457 101 454 q 103 463 104 460 l 103 463 q 94 469 101 471 q 87 459 87 467 l 87 459 q 87 432 87 447 q 78 410 86 416 l 78 410 q 71 410 74 411 q 65 408 68 409 z m 505 415 l 511 415 q 522 420 514 416 q 530 415 529 424 l 530 415 q 527 410 530 411 q 521 407 523 409 l 521 407 q 514 390 521 396 q 498 389 507 384 l 498 389 q 479 380 485 388 q 462 371 472 372 l 462 371 q 468 385 461 380 q 477 397 475 389 l 477 397 q 488 407 481 400 q 505 415 495 413 l 505 415 z m 738 84 l 738 84 q 748 85 743 85 q 759 83 753 84 l 759 83 q 764 69 764 78 q 763 49 764 60 l 763 49 q 761 31 761 37 q 756 16 761 24 l 756 16 q 747 9 752 12 q 735 5 742 6 l 735 5 q 703 6 720 4 q 669 5 686 7 l 669 5 q 645 15 658 10 q 618 13 632 20 l 618 13 q 613 9 615 12 q 608 5 610 6 l 608 5 q 585 5 593 6 q 571 3 577 3 l 571 3 q 564 4 567 3 q 557 5 561 4 l 557 5 q 536 5 547 5 q 517 4 525 5 l 517 4 q 509 2 512 3 q 502 1 505 1 l 502 1 q 490 3 496 3 l 490 3 q 485 4 488 4 q 479 5 481 4 l 479 5 q 470 11 471 11 q 466 12 468 11 l 466 12 q 457 23 461 16 q 447 32 452 29 l 447 32 q 447 39 449 36 q 445 44 445 42 l 445 44 q 451 57 446 51 q 456 71 455 63 l 456 71 q 453 82 456 76 q 449 93 449 88 l 449 93 q 459 112 449 101 q 474 124 468 122 l 474 124 q 509 156 492 146 q 541 179 526 166 l 541 179 q 562 190 555 179 q 568 208 568 200 l 568 208 q 591 228 580 218 q 612 248 601 237 l 612 248 q 615 298 625 272 l 615 298 q 611 307 613 303 q 608 313 608 310 l 608 313 q 609 321 607 317 q 608 327 611 324 l 608 327 q 601 325 603 327 q 597 321 599 323 l 597 321 q 558 308 573 319 q 526 285 543 297 l 526 285 q 517 277 521 281 q 507 270 512 273 l 507 270 q 492 259 499 265 q 474 256 484 253 l 474 256 q 461 267 466 258 q 450 283 455 275 l 450 283 q 446 290 447 287 q 444 297 444 292 l 444 297 q 449 309 444 302 l 449 309 q 453 321 451 317 l 453 321 q 478 347 468 337 q 498 361 487 356 l 498 361 q 514 359 505 356 q 526 369 522 362 l 526 369 q 545 387 534 384 q 570 391 556 389 l 570 391 q 604 391 588 392 q 636 387 619 389 l 636 387 q 647 384 641 386 q 658 380 653 382 l 658 380 q 671 376 665 378 q 681 372 676 374 l 681 372 q 700 360 690 367 q 717 347 710 353 l 717 347 q 722 341 719 344 q 727 333 724 337 l 727 333 q 737 322 732 328 q 744 307 741 315 l 744 307 q 750 290 748 299 q 752 273 751 281 l 752 273 q 739 210 755 239 q 699 162 722 180 l 699 162 q 688 161 692 164 q 680 154 684 157 l 680 154 q 670 136 678 141 q 653 123 662 131 l 653 123 q 637 109 646 114 l 637 109 q 623 99 630 104 q 614 85 616 94 l 614 85 q 646 85 629 84 q 680 86 662 85 l 680 86 q 687 88 683 86 q 694 88 691 89 l 694 88 q 727 78 713 75 l 727 78 q 732 82 729 80 q 738 84 734 83 z m 671 189 l 671 189 q 664 182 668 185 q 664 172 659 178 l 664 172 q 673 173 669 170 q 676 180 676 175 l 676 180 q 692 193 684 187 q 707 208 700 199 l 707 208 q 719 226 714 215 q 728 249 724 237 l 728 249 q 730 269 730 257 q 725 283 730 280 l 725 283 q 717 282 720 287 q 711 272 713 277 l 711 272 q 707 252 708 263 q 702 230 705 241 l 702 230 q 693 215 695 228 l 693 215 q 681 203 686 210 q 671 189 676 195 z m 650 157 l 650 157 q 635 152 643 159 q 634 138 627 145 l 634 138 q 645 144 642 139 q 650 157 648 149 z m 523 303 l 523 303 q 531 308 525 305 q 536 313 536 310 l 536 313 q 530 319 535 317 q 522 319 524 321 l 522 319 q 510 312 516 317 q 496 307 503 307 l 496 307 q 471 303 474 310 q 474 286 467 295 l 474 286 q 479 282 476 283 q 486 278 481 280 l 486 278 q 497 286 491 283 q 507 294 502 289 l 507 294 q 515 298 512 296 q 523 303 518 300 z m 474 29 l 474 29 q 488 27 480 24 q 495 36 496 30 l 495 36 q 487 48 488 46 q 485 51 485 49 l 485 51 q 493 75 489 62 q 490 98 497 87 l 490 98 q 482 104 485 106 q 472 100 478 102 l 472 100 q 475 83 470 89 q 476 68 479 77 l 476 68 q 470 54 474 60 q 466 37 465 47 l 466 37 q 471 34 470 36 q 474 29 471 31 z m 740 27 l 740 27 q 747 39 741 34 q 749 52 753 43 l 749 52 q 736 50 740 57 q 725 39 731 43 l 725 39 q 714 38 720 37 q 702 34 708 38 l 702 34 q 706 21 700 19 q 717 22 712 22 l 717 22 q 734 24 730 22 q 740 27 738 26 z m 156 343 l 156 343 q 146 337 156 339 q 128 334 135 335 l 128 334 q 118 336 123 334 q 108 336 112 337 l 108 336 q 99 333 105 336 q 85 328 92 330 q 72 327 77 326 q 65 333 66 327 l 65 333 q 69 341 63 340 q 80 343 75 341 l 80 343 q 85 347 84 345 q 90 350 86 349 l 90 350 q 97 351 93 351 q 105 351 101 351 l 105 351 q 112 350 108 351 q 119 349 115 349 l 119 349 q 129 349 124 348 q 138 349 134 349 l 138 349 q 150 347 143 348 q 156 343 156 345 z m 189 349 l 189 349 q 199 350 195 351 q 204 346 203 348 l 204 346 q 201 339 205 340 q 192 340 196 338 q 185 344 187 341 q 189 349 183 347 z m 770 266 l 770 266 q 771 283 771 274 q 769 297 770 291 l 769 297 q 768 304 769 300 q 768 310 766 307 l 768 310 q 778 303 774 309 q 784 290 782 297 l 784 290 q 785 281 785 285 q 784 271 784 276 l 784 271 q 787 265 785 267 q 790 259 788 262 l 790 259 q 789 243 791 251 q 780 233 786 235 l 780 233 q 772 235 774 232 q 769 244 769 238 q 769 255 768 249 q 770 266 770 261 z m 807 99 l 807 99 q 807 88 807 94 q 804 75 806 81 q 799 64 802 68 q 792 60 796 59 l 792 60 q 787 66 787 61 q 786 78 786 71 q 785 90 786 84 q 780 98 784 96 l 780 98 q 767 97 773 96 q 759 103 761 98 l 759 103 q 773 113 765 112 q 789 114 781 114 q 801 110 796 113 q 807 99 806 106 z m 302 87 l 302 87 q 309 103 299 99 q 321 96 318 106 l 321 96 q 315 85 323 89 q 302 87 307 81 z m 285 57 l 285 57 q 291 69 285 65 q 302 67 297 72 l 302 67 q 303 51 307 60 q 290 42 298 41 l 290 42 q 282 23 285 34 q 272 0 278 11 l 272 0 q 262 -17 263 -13 q 256 -25 261 -21 l 256 -25 q 247 -31 254 -27 q 237 -36 240 -36 l 237 -36 q 217 -33 223 -32 q 209 -29 210 -34 l 209 -29 q 217 -21 208 -22 q 227 -19 225 -20 l 227 -19 q 252 6 242 -9 q 267 36 261 20 l 267 36 q 273 50 271 44 q 285 57 274 55 z m 443 2 l 443 2 q 455 0 449 0 q 459 -9 461 -1 l 459 -9 q 447 -14 458 -13 q 430 -14 436 -16 l 430 -14 q 425 -7 424 -12 q 423 3 425 -3 l 423 3 q 420 17 420 12 q 421 25 420 21 q 424 32 422 29 q 429 32 426 34 l 429 32 q 431 28 431 30 q 432 20 431 25 l 432 20 q 441 14 437 17 q 443 2 444 10 z m 774 7 l 774 7 q 783 6 780 9 q 785 0 785 3 q 782 -7 785 -4 q 773 -9 779 -11 l 773 -9 q 769 -1 769 -7 q 774 7 769 5 z"},"¼":{"ha":791,"x_min":18,"x_max":771,"o":"m 434 679 l 434 679 q 433 693 426 684 q 442 710 440 702 l 442 710 q 450 728 444 724 q 457 739 455 732 l 457 739 q 458 749 458 743 q 460 758 458 754 l 460 758 q 468 765 462 764 q 479 765 474 766 q 486 760 484 763 q 479 752 487 756 l 479 752 q 476 745 478 747 q 472 740 474 743 l 472 740 q 469 729 470 735 q 465 718 467 723 l 465 718 q 461 711 463 714 q 457 702 459 707 l 457 702 q 450 687 454 693 q 434 679 445 681 z m 191 751 l 191 751 q 190 744 192 746 q 185 741 188 741 q 178 742 181 740 q 174 748 174 743 l 174 748 q 191 751 189 758 z m 221 739 l 221 739 q 216 743 219 742 q 209 745 212 743 l 209 745 q 219 754 212 751 q 231 755 226 757 l 231 755 q 240 746 239 752 q 241 730 241 739 l 241 730 q 241 717 240 724 q 242 703 242 709 l 242 703 q 242 687 243 696 q 237 676 240 678 l 237 676 q 227 675 232 673 q 220 681 221 676 l 220 681 q 222 688 220 685 q 223 695 223 691 l 223 695 q 223 723 221 712 q 221 739 224 734 z m 420 401 l 420 401 q 411 395 415 398 q 401 386 406 391 l 401 386 q 395 379 398 383 q 390 369 392 374 l 390 369 q 390 361 389 365 q 389 353 390 357 l 389 353 q 382 333 387 342 q 372 313 377 324 l 372 313 q 371 307 371 310 q 369 300 370 303 l 369 300 q 365 294 367 297 q 361 286 362 291 l 361 286 q 346 253 352 270 q 330 220 339 236 l 330 220 q 308 166 320 191 q 284 114 296 140 l 284 114 q 281 107 282 111 q 278 100 280 103 l 278 100 q 274 94 276 97 q 269 88 271 91 l 269 88 q 262 72 265 80 q 254 57 259 63 l 254 57 q 238 23 245 40 q 217 -7 230 6 l 217 -7 q 187 -3 203 -5 q 154 0 171 -2 l 154 0 q 149 7 153 5 q 142 13 144 8 l 142 13 q 142 25 142 18 q 144 36 142 31 l 144 36 q 149 42 146 39 q 153 47 151 44 l 153 47 q 156 54 155 50 q 158 60 156 57 l 158 60 q 165 72 165 70 q 165 75 164 73 l 165 75 q 170 82 167 79 q 175 88 173 85 l 175 88 q 183 106 179 97 q 191 124 186 114 l 191 124 q 196 132 193 128 q 201 139 199 135 l 201 139 q 209 155 205 147 q 217 170 213 162 l 217 170 q 221 179 219 175 q 224 187 222 183 l 224 187 q 235 206 232 199 q 241 218 237 212 l 241 218 q 255 244 251 234 q 264 264 259 254 l 264 264 q 281 278 270 272 q 296 294 292 283 l 296 294 q 297 300 297 296 q 298 307 297 304 l 298 307 q 297 319 298 312 q 298 332 296 326 l 298 332 q 302 339 299 335 q 307 346 305 342 l 307 346 q 324 379 315 363 q 342 412 333 395 l 342 412 q 356 448 347 430 q 372 481 364 465 l 372 481 q 376 486 374 483 q 379 492 377 489 l 379 492 q 380 498 380 495 q 382 504 380 501 l 382 504 q 387 511 384 508 q 391 518 389 514 l 391 518 q 395 527 393 523 q 399 535 396 530 l 399 535 q 404 542 401 539 q 410 549 407 545 l 410 549 q 417 565 415 557 q 420 587 418 573 l 420 587 q 425 596 421 591 q 430 606 428 601 l 430 606 q 436 619 434 612 q 443 630 438 625 l 443 630 q 449 644 444 638 q 457 656 453 650 l 457 656 q 460 665 459 661 q 463 674 461 669 l 463 674 q 472 693 466 683 q 482 712 477 702 l 482 712 q 483 719 481 717 q 485 724 484 721 l 485 724 q 495 734 491 728 q 507 740 499 739 l 507 740 q 513 739 509 740 q 518 738 516 738 l 518 738 q 528 739 523 738 q 538 739 533 739 l 538 739 q 549 736 548 735 q 551 736 549 736 l 551 736 q 558 733 555 735 q 564 729 561 730 l 564 729 q 566 722 564 725 q 568 715 568 719 l 568 715 q 564 696 569 705 q 556 679 559 687 l 556 679 q 554 671 554 675 q 552 664 553 667 l 552 664 q 541 640 548 651 q 527 616 534 628 l 527 616 q 515 593 521 604 q 505 569 509 581 l 505 569 q 485 531 493 549 q 467 497 477 513 l 467 497 q 452 467 460 481 q 438 436 443 453 l 438 436 q 434 431 434 434 q 432 425 434 428 l 432 425 q 426 415 430 420 q 420 401 422 409 z m 528 700 l 528 700 q 508 686 517 695 q 500 663 498 677 l 500 663 q 506 666 503 665 q 512 664 509 667 l 512 664 q 521 670 516 665 q 529 680 526 674 q 533 691 532 685 q 528 700 533 696 z m 198 47 l 208 47 q 212 57 210 51 q 213 68 213 62 q 211 77 213 73 q 204 83 209 81 l 204 83 q 190 65 199 74 q 185 42 181 56 l 185 42 q 193 44 191 42 q 198 47 195 45 l 198 47 z m 231 92 l 231 92 q 245 98 241 88 q 244 116 249 108 l 244 116 q 231 92 233 107 z m 84 369 l 84 369 q 78 364 80 367 q 73 359 75 361 l 73 359 q 52 358 62 359 q 33 358 42 356 l 33 358 q 30 363 32 360 q 27 368 28 365 l 27 368 q 28 376 26 371 q 28 386 29 381 l 28 386 q 26 395 27 391 q 24 403 24 398 l 24 403 q 36 427 25 422 q 66 431 47 431 l 66 431 q 67 443 68 437 q 67 457 66 449 l 67 457 q 70 467 67 462 q 72 476 72 471 l 72 476 q 69 482 71 479 q 67 487 67 484 l 67 487 q 67 502 65 494 q 68 517 68 509 l 68 517 q 68 549 66 538 q 70 570 69 560 l 70 570 l 70 592 q 71 602 70 597 q 66 610 71 607 l 66 610 q 42 607 56 609 q 22 614 28 605 l 22 614 q 26 643 18 634 q 41 663 33 652 l 41 663 q 50 675 46 669 q 59 686 54 680 l 59 686 q 73 696 72 692 q 76 703 74 699 l 76 703 q 91 723 86 716 q 103 731 95 729 l 103 731 q 121 731 112 733 q 138 730 130 729 l 138 730 q 157 729 151 732 q 169 727 162 726 l 169 727 q 185 731 177 728 q 202 729 192 734 l 202 729 q 206 708 204 719 q 206 684 207 697 l 206 684 q 206 672 205 679 q 205 660 206 665 l 205 660 q 200 651 203 655 q 196 641 197 646 l 196 641 q 196 634 195 638 q 197 625 196 630 l 197 625 q 201 615 199 620 q 204 603 203 610 l 204 603 q 204 581 205 594 q 204 553 203 567 l 204 553 q 207 520 205 535 q 205 490 208 504 l 205 490 q 203 484 204 487 q 201 476 201 480 l 201 476 q 204 469 202 472 q 205 463 205 466 l 205 463 q 206 447 206 455 q 211 433 205 438 l 211 433 q 232 431 222 435 q 244 418 242 427 l 244 418 q 244 411 245 414 q 242 402 243 407 l 242 402 q 242 384 241 393 q 242 367 242 375 l 242 367 q 237 365 240 365 q 231 361 233 364 l 231 361 q 175 360 205 361 q 118 364 144 359 l 118 364 q 101 369 109 366 q 84 369 93 372 z m 187 395 l 187 395 q 176 392 185 394 q 167 388 167 389 l 167 388 q 168 382 165 384 q 175 379 171 380 l 175 379 q 198 380 184 378 q 216 384 211 382 l 216 384 q 227 399 228 388 q 218 410 226 410 l 218 410 q 211 405 213 410 q 203 397 208 400 l 203 397 q 197 396 200 395 q 187 395 193 396 z m 93 688 l 93 688 q 101 676 96 674 q 109 681 105 677 q 116 689 112 685 q 125 694 120 693 l 125 694 q 137 694 130 695 q 150 694 144 693 q 161 696 156 694 q 166 705 165 698 l 166 705 q 161 708 164 707 q 156 710 158 708 l 156 710 q 139 709 149 708 q 124 712 129 709 l 124 712 q 110 711 114 712 q 103 705 106 709 q 98 697 100 701 q 93 688 95 692 z m 65 408 l 65 408 q 62 401 61 403 q 66 396 63 398 q 74 394 69 394 q 81 393 78 393 l 81 393 q 91 397 86 393 q 98 404 96 401 l 98 404 q 101 421 100 410 q 102 439 102 431 l 102 439 q 101 445 101 442 q 100 450 100 447 l 100 450 q 103 457 101 454 q 103 463 104 460 l 103 463 q 94 469 101 471 q 87 459 87 467 l 87 459 q 87 432 87 447 q 78 410 86 416 l 78 410 q 71 410 74 411 q 65 408 68 409 z m 696 387 l 696 387 q 689 392 691 387 q 692 399 686 397 l 692 399 q 703 395 702 402 q 696 387 703 387 z m 734 382 l 734 382 q 722 384 729 384 q 713 389 714 384 l 713 389 q 717 397 712 394 q 728 400 721 399 q 742 399 735 400 q 751 395 748 398 l 751 395 q 755 383 755 391 q 756 368 754 375 l 756 368 q 758 359 756 364 q 759 348 759 353 q 757 340 759 343 q 749 338 755 337 l 749 338 q 741 349 741 338 q 740 365 741 359 l 740 365 q 738 374 739 370 q 734 382 736 377 z m 718 25 l 718 25 q 718 14 718 16 q 709 8 717 11 l 709 8 q 693 6 700 5 q 675 6 686 6 l 675 6 q 640 4 659 6 q 603 3 620 1 l 603 3 q 585 5 589 5 q 575 10 580 5 l 575 10 q 575 18 575 15 q 575 25 574 20 l 575 25 q 581 35 577 30 q 584 44 585 39 l 584 44 q 579 51 583 48 q 573 57 575 53 l 573 57 q 572 77 570 67 q 571 96 573 86 l 571 96 q 545 97 557 98 q 521 98 533 96 l 521 98 q 504 100 508 102 q 494 97 499 98 l 494 97 q 468 96 481 95 q 440 96 454 97 l 440 96 q 428 108 433 101 q 423 126 422 115 l 423 126 q 427 162 428 148 q 428 187 425 176 l 428 187 q 437 201 431 193 l 437 201 q 441 209 439 205 q 445 216 443 213 l 445 216 q 476 249 458 234 q 511 274 493 263 l 511 274 q 519 288 515 281 q 522 304 523 294 l 522 304 q 530 315 526 309 q 540 325 534 320 l 540 325 q 551 324 545 323 q 559 330 557 325 l 559 330 q 561 342 562 336 q 561 352 559 347 l 561 352 q 566 357 563 355 q 573 364 569 359 l 573 364 q 598 376 584 375 q 617 376 611 376 l 617 376 q 627 375 622 376 q 635 374 631 374 l 635 374 q 648 375 642 374 q 660 376 654 375 l 660 376 q 670 371 666 373 q 678 368 673 368 l 678 368 q 695 370 686 367 q 712 369 704 373 l 712 369 q 718 362 714 368 q 722 351 721 355 l 722 351 q 722 329 723 340 q 720 305 720 317 l 720 305 q 721 299 720 301 q 721 292 722 296 l 721 292 q 715 269 719 281 q 715 243 711 257 l 715 243 q 718 236 716 239 q 720 227 719 232 l 720 227 q 720 203 721 215 q 720 177 718 190 l 720 177 q 736 176 726 176 q 748 167 746 176 l 748 167 q 748 131 746 149 q 743 98 749 113 l 743 98 q 733 96 738 96 q 722 95 728 95 l 722 95 q 720 60 720 79 q 718 25 719 40 z m 449 136 l 449 136 q 443 128 443 133 q 447 118 443 122 q 456 113 450 114 q 465 118 461 112 l 465 118 q 458 127 464 126 q 449 136 451 128 z m 492 116 l 492 116 q 477 115 479 124 l 477 115 q 492 116 486 111 z m 583 208 l 583 208 q 581 217 584 214 q 575 223 577 219 l 575 223 q 575 235 573 229 q 574 247 576 241 l 574 247 q 552 221 563 234 q 529 196 541 208 l 529 196 q 521 187 525 191 q 519 175 517 182 l 519 175 q 546 175 533 174 q 572 177 558 175 l 572 177 q 573 185 574 182 q 573 191 571 187 l 573 191 q 583 208 583 204 z m 600 30 l 600 30 q 607 19 598 17 q 615 28 615 20 l 615 28 q 609 35 615 34 q 600 30 603 35 z m 620 348 l 620 356 q 593 359 604 363 l 593 359 q 584 348 588 357 q 582 335 580 339 l 582 335 q 594 335 590 330 q 604 343 598 340 l 604 343 q 612 346 608 345 q 620 348 615 346 l 620 348 z m 651 350 l 651 350 q 650 355 652 353 q 644 356 647 356 q 639 354 641 356 q 637 348 637 352 l 637 348 q 645 345 639 344 q 651 350 651 346 z m 686 54 l 686 54 q 696 54 691 49 q 697 65 701 58 l 697 65 q 688 65 692 69 q 686 54 684 60 z m 695 102 l 695 102 q 702 111 696 109 q 714 115 708 113 l 714 115 q 711 121 714 119 q 703 123 707 123 q 694 121 698 123 q 689 116 690 119 l 689 116 q 687 104 688 110 q 686 90 686 97 l 686 90 q 690 86 688 88 q 696 84 692 84 l 696 84 q 696 93 698 89 q 695 102 694 97 z m 156 343 l 156 343 q 146 337 156 339 q 128 335 135 335 l 128 335 q 118 336 123 334 q 108 336 112 337 l 108 336 q 99 333 105 336 q 85 328 92 330 q 72 327 77 326 q 65 333 66 327 l 65 333 q 69 341 63 340 q 80 343 75 341 l 80 343 q 85 347 84 345 q 90 350 86 349 l 90 350 q 97 351 93 351 q 105 351 101 351 l 105 351 q 112 350 108 351 q 119 349 115 349 l 119 349 q 129 349 124 348 q 138 349 134 349 l 138 349 q 150 347 143 348 q 156 343 156 345 z m 189 350 l 189 350 q 204 346 202 353 l 204 346 q 201 339 205 340 q 192 340 196 338 q 185 344 187 341 q 189 350 183 347 z m 412 97 l 412 97 q 421 90 414 92 q 425 79 427 87 l 425 79 q 418 72 424 74 q 407 71 412 70 l 407 71 q 397 77 401 72 q 391 88 392 82 l 391 88 q 393 108 389 98 q 394 128 396 117 l 394 128 q 403 132 400 134 q 408 124 406 130 q 410 110 409 118 q 412 97 410 102 z m 302 87 l 302 87 q 309 103 299 99 q 321 96 318 106 l 321 96 q 315 85 323 89 q 302 87 307 81 z m 285 57 l 285 57 q 291 69 285 65 q 302 67 297 72 l 302 67 q 303 51 307 60 q 290 42 298 41 l 290 42 q 282 23 285 34 q 272 0 278 11 l 272 0 q 262 -17 263 -13 q 256 -25 261 -21 l 256 -25 q 247 -31 254 -27 q 237 -36 240 -36 l 237 -36 q 217 -33 223 -32 q 209 -29 210 -34 l 209 -29 q 217 -21 208 -22 q 227 -19 225 -20 l 227 -19 q 252 6 242 -9 q 267 36 261 20 l 267 36 q 273 50 271 44 q 285 57 274 55 z m 769 59 l 769 59 q 768 52 771 55 q 759 50 764 48 l 759 50 q 765 40 764 46 q 764 26 765 34 l 764 26 q 766 5 764 15 q 761 -10 767 -5 l 761 -10 q 746 -15 752 -12 q 732 -20 739 -18 q 720 -21 725 -22 q 715 -13 714 -20 l 715 -13 q 726 -6 716 -5 q 741 -2 736 -7 l 741 -2 q 739 24 742 7 q 742 51 735 40 l 742 51 q 750 59 750 57 q 751 61 750 60 l 751 61 q 760 65 753 64 q 769 59 767 65 z"},"¹":{"ha":264,"x_min":9,"x_max":234,"o":"m 181 751 l 181 751 q 174 741 183 742 q 164 748 165 739 l 164 748 q 181 751 179 758 z m 211 739 l 211 739 q 206 743 209 742 q 199 745 202 743 l 199 745 q 209 754 202 751 q 221 755 216 757 l 221 755 q 229 746 228 752 q 230 730 230 739 l 230 730 q 230 717 229 724 q 231 703 231 709 l 231 703 q 231 687 232 696 q 226 676 229 678 l 226 676 q 217 675 222 673 q 210 681 211 676 l 210 681 q 212 688 210 685 q 213 695 213 691 l 213 695 q 213 723 211 712 q 211 739 214 734 z m 74 369 l 74 369 q 68 364 70 367 q 62 359 65 361 l 62 359 q 42 358 52 359 q 23 358 32 356 l 23 358 q 20 363 22 360 q 16 368 17 365 l 16 368 q 17 376 15 371 q 17 386 18 381 l 17 386 q 15 395 16 391 q 13 403 13 398 l 13 403 q 26 427 14 422 q 55 431 37 431 l 55 431 q 56 443 57 437 q 56 457 55 449 l 56 457 q 59 467 56 462 q 61 476 61 471 l 61 476 q 58 482 60 479 q 56 487 56 484 l 56 487 q 56 502 54 494 q 57 517 57 509 l 57 517 q 57 549 55 538 q 59 570 58 560 l 59 570 l 59 592 q 60 602 59 597 q 55 610 60 607 l 55 610 q 32 607 46 609 q 11 614 17 605 l 11 614 q 11 631 9 624 q 15 644 12 638 q 23 654 18 649 q 31 663 27 658 l 31 663 q 40 675 36 669 q 49 686 44 680 l 49 686 q 62 696 61 692 q 66 703 63 699 l 66 703 q 81 723 76 716 q 93 731 85 729 l 93 731 q 111 731 101 733 q 128 730 120 729 l 128 730 q 146 729 140 732 q 159 727 152 726 l 159 727 q 175 731 167 728 q 191 729 182 734 l 191 729 q 196 684 197 708 l 196 684 q 196 672 195 679 q 195 660 196 665 l 195 660 q 190 651 193 655 q 185 641 186 646 l 185 641 q 185 634 184 638 q 186 625 185 630 l 186 625 q 191 615 188 620 q 194 603 193 610 l 194 603 q 194 581 195 594 q 194 553 193 567 l 194 553 q 197 520 195 535 q 195 490 198 504 l 195 490 q 192 484 194 487 q 190 476 190 480 l 190 476 q 193 469 191 472 q 195 463 195 466 l 195 463 q 196 447 196 455 q 201 433 195 438 l 201 433 q 222 431 212 435 q 233 418 231 427 l 233 418 q 233 411 234 414 q 231 402 232 407 l 231 402 q 231 384 230 393 q 231 367 231 375 l 231 367 q 226 365 229 365 q 221 361 223 364 l 221 361 q 164 360 194 361 q 108 364 134 359 l 108 364 q 91 369 99 366 q 74 369 83 372 z m 177 395 l 177 395 q 166 392 175 394 q 157 388 157 389 l 157 388 q 158 382 155 384 q 165 379 161 380 l 165 379 q 188 380 174 378 q 206 384 201 382 l 206 384 q 217 399 218 388 q 208 410 216 410 l 208 410 q 201 405 203 410 q 193 397 198 400 l 193 397 q 186 396 189 395 q 177 395 182 396 z m 83 688 l 83 688 q 90 676 86 674 q 98 681 94 677 q 106 689 102 685 q 115 694 110 693 l 115 694 q 127 694 120 695 q 140 694 134 693 q 151 696 146 694 q 156 705 155 698 l 156 705 q 151 708 154 707 q 145 710 147 708 l 145 710 q 129 709 139 708 q 114 712 119 709 l 114 712 q 100 711 104 712 q 93 705 96 709 q 88 697 90 701 q 83 688 85 692 z m 54 408 l 54 408 q 55 396 47 399 q 71 393 63 393 l 71 393 q 81 397 76 393 q 88 404 86 401 l 88 404 q 91 421 90 410 q 92 439 92 431 l 92 439 q 91 445 91 442 q 90 450 90 447 l 90 450 q 93 457 91 454 q 93 463 94 460 l 93 463 q 84 469 91 471 q 77 459 77 467 l 77 459 q 77 432 77 447 q 68 410 76 416 l 68 410 q 60 410 63 411 q 54 408 57 409 z m 145 343 l 145 343 q 135 337 145 339 q 118 334 125 335 l 118 334 q 107 336 113 334 q 97 336 101 337 l 97 336 q 88 333 95 336 q 74 328 81 330 q 61 327 67 326 q 54 333 55 327 l 54 333 q 59 341 53 340 q 70 343 64 341 l 70 343 q 75 347 74 345 q 80 350 76 349 l 80 350 q 87 351 83 351 q 95 351 91 351 l 95 351 q 101 350 97 351 q 109 349 104 349 l 109 349 q 119 349 114 348 q 128 349 124 349 l 128 349 q 139 347 133 348 q 145 343 145 345 z m 179 349 l 179 349 q 189 350 184 351 q 194 346 193 348 l 194 346 q 191 339 195 340 q 182 340 186 338 q 175 344 177 341 q 179 349 173 347 z"},"¾":{"ha":899,"x_min":20,"x_max":864,"o":"m 626 -4 l 626 -4 q 662 2 643 3 q 695 -1 680 0 l 695 -1 q 703 0 699 -2 q 711 1 707 1 l 711 1 q 706 -1 709 -1 q 699 -2 702 -2 l 699 -2 q 661 -6 679 -11 q 626 -4 643 -2 z m 527 679 l 527 679 q 527 693 519 684 q 536 710 534 702 l 536 710 q 543 728 538 724 q 550 739 548 732 l 550 739 q 551 749 551 743 q 553 758 551 754 l 553 758 q 561 765 555 764 q 572 765 567 766 q 579 760 577 763 q 572 752 580 756 l 572 752 q 570 745 572 747 q 565 740 567 743 l 565 740 q 562 729 563 735 q 558 718 560 723 l 558 718 q 555 711 556 714 q 551 702 553 707 l 551 702 q 543 687 547 693 q 527 679 538 681 z m 45 707 l 45 707 q 35 709 40 705 q 29 716 30 712 l 29 716 q 32 733 27 722 q 39 748 36 744 l 39 748 q 71 758 47 756 l 71 758 q 88 757 76 758 q 100 750 99 756 l 100 750 q 97 742 101 744 q 86 738 92 739 q 73 737 79 737 q 62 735 66 736 l 62 735 q 57 729 59 733 q 53 721 54 725 l 53 721 q 51 713 52 718 q 45 707 50 708 z m 126 745 l 126 745 q 121 739 125 739 q 114 742 117 739 q 110 750 110 745 q 115 756 109 754 l 115 756 q 123 755 119 758 q 126 745 126 752 z m 390 720 l 390 720 q 383 729 388 725 q 380 740 377 732 l 380 740 q 401 732 395 740 q 407 715 406 724 l 407 715 q 408 700 408 708 q 407 685 408 692 q 402 674 405 678 q 393 669 399 669 l 393 669 q 384 678 388 670 q 380 691 380 685 l 380 691 q 385 706 380 698 q 390 720 389 714 z m 513 401 l 513 401 q 504 395 508 398 q 495 386 499 391 l 495 386 q 484 369 486 378 l 484 369 q 483 361 482 365 q 482 353 483 357 l 482 353 q 475 333 480 342 q 465 313 470 324 l 465 313 q 464 307 464 310 q 462 300 463 303 l 462 300 q 458 294 460 297 q 455 286 456 291 l 455 286 q 439 253 445 270 q 423 220 432 236 l 423 220 q 402 166 414 191 q 377 114 389 140 l 377 114 q 374 107 375 111 q 371 100 373 103 l 371 100 q 367 94 369 97 q 362 88 364 91 l 362 88 q 355 72 358 80 q 347 57 352 63 l 347 57 q 331 23 338 40 q 310 -7 324 6 l 310 -7 q 280 -3 296 -5 q 247 0 264 -2 l 247 0 q 242 7 246 5 q 236 13 238 8 l 236 13 q 237 25 237 18 q 239 36 237 31 l 239 36 q 242 42 240 39 q 246 47 244 44 l 246 47 q 249 54 248 50 q 251 60 249 57 l 251 60 q 258 72 258 70 q 259 75 257 73 l 259 75 q 264 82 261 79 q 268 88 266 85 l 268 88 q 276 106 272 97 q 285 124 280 114 l 285 124 q 290 132 287 128 q 294 139 292 135 l 294 139 q 302 155 298 147 q 310 170 306 162 l 310 170 q 314 179 312 175 q 317 187 315 183 l 317 187 q 328 206 326 199 q 334 218 330 212 l 334 218 q 348 244 344 234 q 357 264 352 254 l 357 264 q 375 278 365 272 q 389 294 385 283 l 389 294 q 391 307 391 300 l 391 307 q 391 319 392 312 q 391 332 389 326 l 391 332 q 395 339 392 335 q 400 346 398 342 l 400 346 q 418 379 409 363 q 435 412 427 395 l 435 412 q 449 448 440 430 q 465 481 457 465 l 465 481 q 469 486 467 483 q 472 492 470 489 l 472 492 q 473 498 473 495 q 475 504 473 501 l 475 504 q 480 511 477 508 q 484 518 482 514 l 484 518 q 488 527 486 523 q 493 535 490 530 l 493 535 q 503 549 497 541 l 503 549 q 510 565 508 557 q 513 587 511 573 l 513 587 q 518 596 514 591 q 523 606 521 601 l 523 606 q 530 619 527 612 q 537 630 532 625 l 537 630 q 542 644 538 638 q 550 656 546 650 l 550 656 q 553 665 552 661 q 556 674 554 669 l 556 674 q 565 693 560 683 q 575 712 570 702 l 575 712 q 577 719 575 717 q 579 724 578 721 l 579 724 q 588 734 584 728 q 600 740 592 739 l 600 740 q 606 739 603 740 q 612 738 609 738 l 612 738 q 622 739 617 738 q 631 739 626 739 l 631 739 q 642 736 641 735 q 644 736 643 736 l 644 736 q 651 733 648 735 q 658 729 654 730 l 658 729 q 660 722 657 725 q 662 715 662 719 l 662 715 q 658 696 663 705 q 649 679 652 687 l 649 679 q 647 671 647 675 q 645 664 646 667 l 645 664 q 634 640 641 651 q 621 616 627 628 l 621 616 q 608 593 614 604 q 598 569 602 581 l 598 569 q 579 531 587 549 q 561 497 570 513 l 561 497 q 546 467 554 481 q 531 436 537 453 l 531 436 q 528 431 528 434 q 525 425 527 428 l 525 425 q 519 415 523 420 q 513 401 515 409 z m 623 700 l 623 700 q 601 686 611 695 q 593 663 591 677 l 593 663 q 600 666 596 665 q 605 664 603 667 l 605 664 q 614 670 609 665 q 623 680 619 674 q 627 691 626 685 q 623 700 627 696 z m 291 47 l 301 47 q 305 57 303 51 q 306 68 306 62 q 304 77 306 73 q 297 83 302 81 l 297 83 q 284 65 292 74 q 280 42 275 56 l 280 42 q 287 44 285 42 q 291 47 288 45 l 291 47 z m 326 92 l 326 92 q 338 98 334 88 q 337 116 342 108 l 337 116 q 326 92 326 107 z m 332 388 l 332 388 q 313 384 322 388 q 305 366 303 380 l 305 366 q 259 349 288 352 q 201 348 230 345 l 201 348 q 182 348 191 349 q 163 348 172 347 l 163 348 q 150 352 157 349 q 137 356 143 354 l 137 356 q 114 365 121 360 q 101 374 107 370 l 101 374 q 89 383 95 379 q 78 391 82 386 l 78 391 q 71 405 71 398 q 73 419 70 412 q 81 433 76 426 q 88 445 85 439 l 88 445 q 97 448 94 446 q 105 447 100 449 l 105 447 q 112 444 108 447 q 117 438 116 440 l 117 438 q 132 420 123 418 l 132 420 q 138 425 137 421 q 143 430 139 428 l 143 430 q 149 426 146 428 q 155 422 152 424 l 155 422 q 193 420 174 416 q 223 434 212 423 l 223 434 q 233 451 229 440 q 236 473 236 461 q 234 496 236 485 q 225 514 231 507 l 225 514 q 216 510 218 514 q 208 503 213 505 l 208 503 q 202 500 206 501 q 195 499 198 498 l 195 499 q 184 505 189 499 q 174 514 178 510 l 174 514 q 166 524 169 519 q 159 535 162 529 l 159 535 q 161 552 156 547 q 171 563 165 557 l 171 563 q 177 570 174 566 q 183 575 180 573 l 183 575 q 198 580 191 579 q 208 588 205 580 l 208 588 q 209 602 210 593 l 209 602 q 226 620 218 611 q 244 637 234 629 l 244 637 q 250 643 247 639 q 252 651 253 646 l 252 651 q 245 654 249 654 q 236 652 241 653 l 236 652 q 217 652 227 651 q 197 652 207 652 l 197 652 q 177 652 186 651 q 161 655 168 652 l 161 655 q 146 661 151 662 q 139 660 141 660 l 139 660 q 132 655 135 658 q 124 652 128 652 l 124 652 q 109 652 119 650 q 90 652 98 653 l 90 652 q 84 650 87 651 q 79 650 81 649 l 79 650 q 68 655 74 650 q 60 665 62 659 l 60 665 q 61 674 59 670 q 65 681 63 677 l 65 681 q 63 692 65 687 q 62 705 61 697 l 62 705 q 72 715 66 712 q 83 721 78 717 l 83 721 q 112 723 97 723 q 142 724 127 723 l 142 724 q 149 725 145 724 q 156 724 153 725 l 156 724 q 162 722 159 723 q 168 720 165 721 l 168 720 q 209 712 187 714 l 209 712 q 235 715 223 711 q 257 721 246 719 l 257 721 q 282 723 268 723 q 307 723 296 722 l 307 723 q 329 725 318 724 q 350 724 340 725 l 350 724 q 361 716 355 724 l 361 716 q 361 706 364 710 q 356 697 357 701 l 356 697 q 357 688 354 692 q 360 680 359 684 l 360 680 q 361 669 361 674 q 362 659 360 664 l 362 659 q 329 616 347 636 q 293 573 310 596 l 293 573 q 328 559 314 569 q 352 532 342 549 l 352 532 q 357 519 353 525 q 362 505 360 513 l 362 505 q 364 484 366 495 l 364 484 q 359 477 362 480 q 355 466 355 473 l 355 466 q 358 457 355 461 q 361 446 360 452 l 361 446 q 359 434 361 441 q 354 421 356 426 l 354 421 q 346 402 351 411 q 332 388 340 392 z m 314 642 l 314 642 q 325 640 322 634 q 333 650 328 645 l 333 650 q 338 657 335 654 q 341 665 341 660 l 341 665 q 337 673 340 669 q 332 678 334 677 l 332 678 q 325 668 324 678 q 325 650 326 657 l 325 650 q 320 646 322 648 q 314 642 317 644 z m 82 670 l 82 670 q 97 667 88 666 q 108 676 105 668 l 108 676 q 103 679 106 678 q 96 678 99 680 l 96 678 q 94 685 94 680 q 95 693 94 689 l 95 693 q 88 694 90 696 q 84 688 85 692 q 83 678 83 683 q 82 670 82 673 z m 198 517 l 198 517 q 207 523 201 517 q 211 532 212 528 l 211 532 q 199 535 205 532 q 186 536 193 537 l 186 536 q 189 523 184 529 q 198 517 193 517 z m 211 364 l 211 364 q 214 377 217 368 l 214 377 q 205 377 208 379 q 201 371 201 374 q 203 365 200 368 q 211 364 205 362 z m 240 365 l 240 365 q 274 369 257 366 q 292 389 290 371 l 292 389 q 257 379 276 382 l 257 379 q 239 374 247 377 q 240 365 231 371 z m 46 397 l 46 397 q 58 388 50 392 q 68 378 66 384 l 68 378 q 65 369 69 372 q 55 367 61 366 l 55 367 q 44 373 48 368 q 34 383 40 377 l 34 383 q 27 388 32 385 q 20 397 22 391 l 20 397 q 23 405 20 400 q 27 412 25 409 l 27 412 q 33 425 31 422 l 33 425 q 38 431 34 427 q 43 435 41 435 l 43 435 q 49 425 51 437 l 49 425 q 45 418 49 422 q 42 408 41 413 l 42 408 q 46 397 42 403 z m 639 401 l 639 401 q 648 392 650 401 q 639 381 645 383 l 639 381 q 632 369 637 373 l 632 369 q 620 368 626 363 q 617 381 614 373 l 617 381 q 626 393 618 385 q 639 401 634 400 z m 790 387 l 790 387 q 783 392 785 387 q 785 399 780 397 l 785 399 q 796 395 795 402 q 790 387 796 387 z m 827 382 l 827 382 q 815 384 822 384 q 806 389 807 384 l 806 389 q 810 397 805 394 q 822 400 815 399 q 836 399 829 400 q 844 395 842 398 l 844 395 q 848 383 848 391 q 849 368 847 375 l 849 368 q 851 359 849 364 q 852 348 852 353 q 851 340 852 343 q 843 338 849 337 l 843 338 q 835 349 834 338 q 834 365 835 359 l 834 365 q 831 374 833 370 q 827 382 829 377 z m 812 25 l 812 25 q 811 14 811 16 q 802 8 810 11 l 802 8 q 787 6 794 5 q 768 6 779 6 l 768 6 q 734 4 753 6 q 696 3 714 1 l 696 3 q 678 5 682 5 q 669 10 673 5 l 669 10 q 669 18 669 15 q 669 25 668 20 l 669 25 q 675 35 671 30 q 677 44 678 39 l 677 44 q 673 51 677 48 q 667 57 669 53 l 667 57 q 666 77 664 67 q 665 96 667 86 l 665 96 q 639 97 651 98 q 614 98 626 96 l 614 98 q 597 100 602 102 q 587 97 592 98 l 587 97 q 561 96 574 95 q 534 96 548 97 l 534 96 q 521 108 527 101 q 516 126 515 115 l 516 126 q 521 162 522 148 q 521 187 519 176 l 521 187 q 530 201 524 193 l 530 201 q 536 209 534 205 q 539 216 537 213 l 539 216 q 569 249 551 234 q 604 274 587 263 l 604 274 q 613 288 608 281 q 615 304 617 294 l 615 304 q 624 314 620 309 q 633 324 628 319 l 633 324 q 645 324 638 322 q 653 330 651 325 l 653 330 q 654 342 655 336 q 654 352 652 347 l 654 352 q 660 357 656 355 q 667 364 663 359 l 667 364 q 691 376 677 375 q 711 376 704 376 l 711 376 q 720 375 716 376 q 728 374 724 374 l 728 374 q 741 375 735 374 q 754 376 747 375 l 754 376 q 763 371 759 373 q 771 368 766 368 l 771 368 q 788 370 779 367 q 805 369 797 373 l 805 369 q 811 362 808 368 q 815 351 814 355 l 815 351 q 815 329 816 340 q 813 305 813 317 l 813 305 q 815 299 814 301 q 814 292 815 296 l 814 292 q 808 269 812 281 q 808 243 804 257 l 808 243 q 811 236 809 239 q 813 227 812 232 l 813 227 q 813 203 814 215 q 813 177 811 190 l 813 177 q 830 176 820 176 q 841 167 839 176 l 841 167 q 841 131 839 149 q 837 98 842 113 l 837 98 q 827 96 832 96 q 815 95 821 95 l 815 95 q 813 60 814 79 q 812 25 812 40 z m 542 136 l 542 136 q 536 128 536 133 q 540 118 536 122 q 549 113 544 114 q 558 118 554 112 l 558 118 q 551 127 557 126 q 542 136 544 128 z m 585 116 l 585 116 q 574 122 576 124 q 571 115 572 120 l 571 115 q 579 114 574 113 q 585 116 583 114 z m 676 208 l 676 208 q 674 217 677 214 q 669 223 671 219 l 669 223 q 669 235 667 229 q 668 247 670 241 l 668 247 q 645 221 656 234 q 623 196 634 208 l 623 196 q 614 187 618 191 q 612 175 610 182 l 612 175 q 639 175 626 174 q 666 177 652 175 l 666 177 q 667 185 668 182 q 667 191 665 187 l 667 191 q 676 208 676 204 z m 694 30 l 694 30 q 695 21 692 24 q 700 19 697 18 q 706 22 703 19 q 709 28 709 24 l 709 28 q 703 35 709 34 q 694 30 697 35 z m 713 348 l 713 356 q 700 360 707 359 q 686 359 692 361 l 686 359 q 677 348 681 357 q 675 334 673 339 l 675 334 q 687 335 683 330 q 697 343 691 340 l 697 343 q 705 346 701 345 q 713 348 708 346 l 713 348 z m 745 350 l 745 350 q 738 356 746 356 q 730 348 729 356 l 730 348 q 739 345 733 344 q 745 350 744 346 z m 779 54 l 779 54 q 790 54 784 49 q 792 65 795 58 l 792 65 q 781 65 785 69 q 779 54 777 60 z m 788 102 l 788 102 q 796 111 790 109 q 807 115 801 113 l 807 115 q 804 121 807 119 q 796 123 800 123 q 787 121 791 123 q 782 116 783 119 l 782 116 q 780 104 781 110 q 779 90 779 97 l 779 90 q 783 86 781 88 q 790 84 785 84 l 790 84 q 790 93 792 89 q 788 102 788 97 z m 93 357 l 93 357 q 104 352 98 356 q 106 341 109 348 l 106 341 q 99 337 104 336 q 91 343 93 338 l 91 343 q 82 344 86 341 q 76 350 78 346 q 74 358 73 354 q 80 361 75 361 l 80 361 q 91 357 89 356 q 93 357 92 357 z m 505 97 l 505 97 q 514 90 507 92 q 518 79 520 87 l 518 79 q 511 72 517 74 q 500 71 505 70 l 500 71 q 490 77 495 72 q 484 88 485 82 l 484 88 q 486 108 482 98 q 487 128 489 117 l 487 128 q 496 132 493 134 q 501 124 499 130 q 503 110 502 118 q 505 97 503 102 z m 395 87 l 395 87 q 396 97 393 93 q 402 103 398 101 q 410 103 406 104 q 414 96 413 101 l 414 96 q 409 85 416 89 q 395 87 401 81 z m 378 57 l 378 57 q 384 69 378 65 q 395 67 390 72 l 395 67 q 396 51 400 60 q 383 42 391 41 l 383 42 q 375 23 378 34 q 366 0 371 11 l 366 0 q 362 -4 364 -2 q 359 -9 360 -6 l 359 -9 q 355 -17 356 -13 q 349 -25 354 -21 l 349 -25 q 340 -31 347 -27 q 330 -36 333 -36 l 330 -36 q 310 -33 317 -32 q 302 -29 303 -34 l 302 -29 q 310 -21 301 -22 q 321 -19 319 -20 l 321 -19 q 346 6 337 -9 q 361 36 354 20 l 361 36 q 367 50 365 44 q 378 57 368 55 z m 862 59 l 862 59 q 861 52 864 55 q 853 50 858 48 l 853 50 q 858 40 858 46 q 858 26 858 34 l 858 26 q 859 5 857 15 q 854 -10 860 -5 l 854 -10 q 840 -15 846 -12 q 826 -20 833 -18 q 813 -21 818 -22 q 808 -13 807 -20 l 808 -13 q 812 -8 808 -9 q 820 -6 815 -7 q 828 -4 824 -5 q 835 -2 832 -4 l 835 -2 q 835 9 836 2 q 833 24 834 16 q 832 39 832 31 q 836 51 832 46 l 836 51 q 843 59 843 57 q 844 61 843 60 l 844 61 q 853 65 846 64 q 862 59 860 65 z"},"³":{"ha":408,"x_min":10,"x_max":397,"o":"m 35 707 l 35 707 q 25 709 30 705 q 18 716 19 712 l 18 716 q 21 733 16 722 q 29 748 26 744 l 29 748 q 60 758 37 756 l 60 758 q 78 757 66 758 q 90 750 89 756 l 90 750 q 87 742 91 744 q 76 738 82 739 q 62 737 69 737 q 52 735 55 736 l 52 735 q 47 729 49 733 q 43 721 44 725 l 43 721 q 41 713 42 718 q 35 707 40 708 z m 116 745 l 116 745 q 111 739 115 739 q 104 742 107 739 q 99 750 100 745 q 104 756 98 754 l 104 756 q 113 755 109 758 q 116 745 116 752 z m 380 720 l 380 720 q 373 729 378 725 q 370 740 367 732 l 370 740 q 390 732 385 740 q 396 715 395 724 l 396 715 q 397 700 397 708 q 396 685 397 692 q 391 674 394 678 q 383 669 388 669 l 383 669 q 374 678 378 670 q 370 691 370 685 l 370 691 q 375 706 370 698 q 380 720 379 714 z m 322 388 l 322 388 q 303 384 312 388 q 295 366 293 380 l 295 366 q 248 349 277 352 q 190 348 219 345 l 190 348 q 172 348 181 349 q 153 348 162 347 l 153 348 q 140 352 146 349 q 127 356 133 354 l 127 356 q 104 365 111 360 q 91 374 96 370 l 91 374 q 79 383 85 379 q 68 391 72 386 l 68 391 q 61 405 61 398 q 63 419 60 412 q 71 433 66 426 q 78 445 75 439 l 78 445 q 87 448 84 446 q 95 447 90 449 l 95 447 q 101 444 97 447 q 106 438 105 440 l 106 438 q 122 420 113 418 l 122 420 q 128 425 127 421 q 133 430 129 428 l 133 430 q 139 426 136 428 q 144 422 141 424 l 144 422 q 183 420 164 416 q 213 434 202 423 l 213 434 q 222 451 219 440 q 226 473 225 461 q 224 496 226 485 q 215 514 221 507 l 215 514 q 206 510 208 514 q 198 503 203 505 l 198 503 q 192 500 196 501 q 184 499 187 498 l 184 499 q 174 505 179 499 q 164 514 168 510 l 164 514 q 156 524 159 519 q 148 535 152 529 l 148 535 q 150 552 145 547 q 161 563 155 557 l 161 563 q 167 570 164 566 q 173 575 170 573 l 173 575 q 188 580 181 579 q 198 588 195 580 l 198 588 q 199 602 200 593 l 199 602 q 216 620 208 611 q 233 637 224 629 l 233 637 q 240 643 237 639 q 242 651 243 646 l 242 651 q 235 654 239 654 q 225 652 230 653 l 225 652 q 207 652 217 651 q 186 652 197 652 l 186 652 q 167 652 176 651 q 151 655 158 652 l 151 655 q 136 661 140 662 q 129 660 131 660 l 129 660 q 122 655 125 658 q 114 652 118 652 l 114 652 q 98 652 108 650 q 80 652 88 653 l 80 652 q 74 650 77 651 q 69 650 71 649 l 69 650 q 58 655 63 650 q 50 665 52 659 l 50 665 q 51 674 49 670 q 54 681 53 677 l 54 681 q 53 692 54 687 q 52 705 51 697 l 52 705 q 62 715 55 712 q 73 721 68 717 l 73 721 q 102 723 87 723 q 132 724 117 723 l 132 724 q 139 725 135 724 q 145 724 142 725 l 145 724 q 152 722 149 723 q 158 720 155 721 l 158 720 q 199 712 178 713 l 199 712 q 225 715 213 711 q 247 721 236 719 l 247 721 q 272 723 258 723 q 297 723 286 722 l 297 723 q 319 725 308 724 q 340 724 330 725 l 340 724 q 351 716 345 724 l 351 716 q 350 706 353 710 q 346 697 347 701 l 346 697 q 347 688 344 692 q 350 680 349 684 l 350 680 q 351 669 351 674 q 352 659 350 664 l 352 659 q 319 616 337 636 q 283 573 300 596 l 283 573 q 342 532 322 566 l 342 532 q 347 519 343 525 q 352 505 350 513 l 352 505 q 354 495 353 501 q 353 484 354 489 l 353 484 q 349 477 352 480 q 345 466 345 473 l 345 466 q 348 457 345 461 q 351 446 350 452 l 351 446 q 349 434 351 441 q 344 421 346 426 l 344 421 q 336 402 341 411 q 322 388 330 392 z m 304 642 l 304 642 q 315 640 311 634 q 323 650 318 645 l 323 650 q 328 657 325 654 q 331 665 331 660 l 331 665 q 327 673 330 669 q 322 678 324 677 l 322 678 q 315 668 313 678 q 314 650 316 657 l 314 650 q 309 646 311 648 q 304 642 307 644 z m 72 670 l 72 670 q 87 667 78 666 q 97 676 95 668 l 97 676 q 86 678 92 681 l 86 678 q 84 685 84 680 q 85 693 84 689 l 85 693 q 78 694 80 696 q 74 688 75 692 q 73 678 73 683 q 72 670 72 673 z m 187 517 l 187 517 q 196 523 190 517 q 201 532 202 528 l 201 532 q 189 535 195 532 q 176 536 182 537 l 176 536 q 178 523 174 529 q 187 517 182 517 z m 201 364 l 201 364 q 204 377 207 368 l 204 377 q 194 377 198 379 q 190 371 190 374 q 192 365 189 368 q 201 364 194 362 z m 229 365 l 229 365 q 264 369 247 366 q 282 389 280 371 l 282 389 q 247 379 264 382 l 247 379 q 229 374 236 377 q 229 365 221 371 z m 36 397 l 36 397 q 48 388 40 392 q 57 378 55 384 l 57 378 q 45 367 59 365 l 45 367 q 34 373 38 368 q 24 383 30 377 l 24 383 q 17 388 22 385 q 10 397 11 391 l 10 397 q 16 412 10 404 l 16 412 q 23 425 20 422 l 23 425 q 28 431 24 427 q 33 435 31 435 l 33 435 q 39 425 41 437 l 39 425 q 35 418 39 422 q 32 408 31 413 l 32 408 q 36 397 32 403 z m 83 357 l 83 357 q 93 352 88 356 q 96 341 98 348 l 96 341 q 89 337 94 336 q 81 343 83 338 l 81 343 q 72 344 76 341 q 66 350 68 346 q 64 358 63 354 q 70 361 64 361 l 70 361 q 81 357 79 356 q 83 357 82 357 z"},"²":{"ha":428,"x_min":20,"x_max":408,"o":"m 105 763 l 112 763 q 123 768 115 764 q 131 763 130 772 l 131 763 q 128 758 131 759 q 122 755 124 757 l 122 755 q 115 738 122 744 q 98 737 108 732 l 98 737 q 80 728 86 736 q 62 719 73 720 l 62 719 q 69 733 61 728 q 78 745 76 737 l 78 745 q 89 755 82 749 q 105 763 95 761 l 105 763 z m 339 432 l 339 432 q 349 433 344 433 q 359 431 353 432 l 359 431 q 365 417 365 426 q 364 397 365 408 l 364 397 q 362 379 362 385 q 356 365 362 372 l 356 365 q 336 353 347 354 l 336 353 q 304 354 321 352 q 269 353 286 355 l 269 353 q 246 363 259 358 q 219 361 233 368 l 219 361 q 214 357 216 360 q 209 353 212 354 l 209 353 q 185 353 193 354 q 172 351 177 351 l 172 351 q 165 352 168 351 q 158 353 162 352 l 158 353 q 137 353 147 353 q 118 352 126 353 l 118 352 q 110 350 113 351 q 102 349 107 349 l 102 349 q 91 351 96 351 l 91 351 q 86 352 89 352 q 80 353 82 352 l 80 353 q 71 359 72 359 q 67 360 69 359 l 67 360 q 57 371 61 365 q 48 380 53 377 l 48 380 q 48 387 49 384 q 46 392 46 390 l 46 392 q 51 406 47 399 q 56 419 55 412 l 56 419 q 53 430 56 424 q 49 441 49 436 l 49 441 q 59 460 49 450 q 75 472 69 470 l 75 472 q 110 504 93 494 q 141 527 127 514 l 141 527 q 163 538 156 527 q 169 556 169 548 l 169 556 q 191 576 180 566 q 213 596 202 585 l 213 596 q 216 646 224 620 l 216 646 q 212 655 214 651 q 209 662 209 658 l 209 662 q 210 669 208 666 q 209 675 212 672 l 209 675 q 202 673 204 675 q 198 669 200 671 l 198 669 q 159 657 174 668 q 127 633 143 645 l 127 633 q 118 626 122 629 q 108 618 113 622 l 108 618 q 93 607 100 613 q 75 604 85 601 l 75 604 q 61 615 66 606 q 50 631 55 624 l 50 631 q 47 638 48 635 q 45 645 45 640 l 45 645 q 49 657 45 649 l 49 657 q 53 669 51 666 l 53 669 q 78 695 68 685 q 98 710 87 704 l 98 710 q 115 708 106 704 q 127 717 123 711 l 127 717 q 146 735 134 732 q 171 739 157 737 l 171 739 q 205 739 189 740 q 237 735 220 737 l 237 735 q 248 732 242 734 q 259 728 254 730 l 259 728 q 271 724 265 726 q 282 720 276 722 l 282 720 q 317 695 302 708 l 317 695 q 328 681 323 688 l 328 681 q 338 670 333 676 q 345 655 342 663 l 345 655 q 350 639 348 647 q 352 622 351 630 l 352 622 q 339 559 355 588 q 300 510 323 529 l 300 510 q 289 509 293 512 q 281 502 285 505 l 281 502 q 271 484 279 489 q 254 471 262 479 l 254 471 q 238 457 247 462 l 238 457 q 224 447 230 452 q 215 433 217 442 l 215 433 q 246 433 229 432 q 281 434 263 433 l 281 434 q 288 436 284 434 q 295 436 292 437 l 295 436 q 328 426 313 423 l 328 426 q 333 430 330 428 q 339 432 335 431 z m 271 538 l 271 538 q 264 530 268 533 q 264 520 260 526 l 264 520 q 273 521 269 518 q 276 528 276 523 l 276 528 q 293 542 284 536 q 307 556 301 547 l 307 556 q 320 575 314 563 q 329 597 326 586 l 329 597 q 331 617 331 605 q 326 631 331 628 l 326 631 q 317 631 320 635 q 311 621 313 626 l 311 621 q 307 600 308 611 q 303 579 306 589 l 303 579 q 294 563 296 577 l 294 563 q 282 551 287 558 q 271 538 277 543 z m 251 505 l 251 505 q 236 501 244 507 q 234 486 227 494 l 234 486 q 246 493 243 487 q 251 505 249 498 z m 124 651 l 124 651 q 131 656 126 653 q 136 662 136 658 l 136 662 q 130 668 135 666 q 123 668 125 670 l 123 668 q 110 661 117 666 q 96 655 103 655 l 96 655 q 72 651 75 658 q 75 634 68 643 l 75 634 q 80 630 77 631 q 87 626 82 628 l 87 626 q 98 634 92 631 q 108 642 103 637 l 108 642 q 116 646 113 644 q 124 651 119 648 z m 75 377 l 75 377 q 89 375 81 372 q 95 384 96 378 l 95 384 q 89 396 90 394 q 86 399 87 397 l 86 399 q 94 423 91 410 q 91 446 97 435 l 91 446 q 82 453 85 455 q 73 449 79 451 l 73 449 q 76 432 71 438 q 77 416 80 425 l 77 416 q 71 402 75 409 q 67 385 66 395 l 67 385 q 72 382 71 384 q 75 377 72 379 z m 341 375 l 341 375 q 348 387 342 382 q 349 400 353 391 l 349 400 q 337 398 341 405 q 326 387 332 391 l 326 387 q 315 386 321 385 q 303 382 308 386 l 303 382 q 307 369 301 368 q 317 370 312 370 l 317 370 q 336 372 332 370 q 341 375 339 374 z m 371 614 l 371 614 q 372 631 372 622 q 370 645 372 639 l 370 645 q 369 652 370 648 q 369 658 367 655 l 369 658 q 379 651 375 657 q 385 638 383 645 l 385 638 q 386 629 386 633 q 385 620 385 625 l 385 620 q 388 613 386 615 q 390 607 389 610 l 390 607 q 390 592 392 599 q 381 582 387 584 l 381 582 q 373 584 375 581 q 370 592 370 587 q 370 603 369 597 q 371 614 371 609 z m 408 447 l 408 447 q 408 436 408 442 q 405 423 407 429 q 400 413 403 417 q 392 409 396 408 l 392 409 q 387 415 387 410 q 386 427 386 420 q 386 439 386 433 q 381 446 385 444 l 381 446 q 368 446 374 444 q 359 452 361 447 l 359 452 q 390 462 373 461 q 408 447 406 462 z m 44 350 l 44 350 q 55 348 49 348 q 59 339 61 347 l 59 339 q 48 334 58 335 q 31 334 37 332 l 31 334 q 26 341 25 336 q 24 351 26 345 l 24 351 q 20 365 20 361 q 21 373 20 369 q 24 380 22 377 q 30 380 26 382 l 30 380 q 32 376 32 378 q 33 369 32 374 l 33 369 q 42 362 38 366 q 44 350 45 358 z m 375 355 l 375 355 q 384 354 381 357 q 386 348 386 351 q 383 341 386 344 q 374 339 380 337 l 374 339 q 370 347 370 341 q 375 355 370 353 z"},"¦":{"ha":180,"x_min":30,"x_max":129,"o":"m 52 435 l 52 435 q 45 440 49 436 q 38 447 40 444 l 38 447 q 36 464 36 454 q 35 483 36 474 l 35 483 q 35 503 34 494 q 35 522 36 512 l 35 522 q 33 537 35 527 l 33 537 q 34 567 33 552 q 37 592 35 581 l 37 592 q 42 598 38 595 q 46 606 45 601 l 46 606 q 41 619 47 613 q 32 629 34 624 l 32 629 q 32 645 30 636 q 34 660 33 653 l 34 660 q 36 685 36 672 q 38 708 36 697 l 38 708 q 42 718 39 713 q 45 726 45 722 l 45 726 q 76 738 57 740 q 115 735 95 736 l 115 735 q 124 712 126 727 q 123 682 122 696 l 123 682 q 124 658 125 665 q 123 643 123 651 l 123 643 l 123 622 q 124 611 123 616 q 125 600 125 606 l 125 600 q 126 591 125 592 q 127 588 127 590 l 127 588 q 126 560 128 573 q 122 535 124 546 l 122 535 q 125 527 122 530 q 127 519 127 523 l 127 519 q 127 514 128 517 q 126 508 126 511 l 126 508 q 126 490 126 500 q 126 469 126 479 q 123 451 125 459 q 115 438 121 442 l 115 438 q 97 434 107 433 q 79 435 87 435 l 79 435 q 67 434 74 435 q 52 435 59 433 z m 61 486 l 61 486 q 62 476 59 480 q 69 470 65 472 q 78 469 73 468 q 85 473 82 469 l 85 473 q 84 492 89 478 l 84 492 q 78 496 78 492 q 76 502 78 500 l 76 502 q 67 495 71 501 q 61 486 62 489 z m 129 108 l 129 108 q 128 102 128 105 q 127 97 128 99 l 127 97 q 124 80 126 83 q 122 73 122 77 l 122 73 q 124 63 121 68 q 127 54 126 58 l 127 54 q 129 38 129 47 q 126 20 128 29 l 126 20 q 126 13 125 17 q 125 7 127 9 l 125 7 q 116 0 123 2 q 101 -3 108 -2 l 101 -3 q 79 -2 90 -5 q 57 -2 68 0 l 57 -2 q 50 5 52 1 q 43 14 47 9 l 43 14 q 42 42 42 28 q 41 69 42 55 l 41 69 q 42 93 40 81 q 40 115 44 104 l 40 115 q 46 125 42 121 q 50 135 49 128 l 50 135 q 46 154 52 144 q 38 172 39 163 l 38 172 q 39 183 38 177 q 40 196 40 189 l 40 196 q 39 216 39 205 q 38 237 38 226 l 38 237 q 38 252 37 245 q 39 264 39 258 l 39 264 q 45 286 39 278 q 56 294 50 293 l 56 294 q 71 296 69 294 q 75 297 73 297 l 75 297 q 98 297 83 299 q 117 287 112 294 l 117 287 q 123 265 123 279 q 125 239 123 251 l 125 239 q 126 232 125 234 q 127 226 127 229 l 127 226 q 127 213 127 220 q 126 198 126 206 l 126 198 q 126 187 126 192 q 125 176 125 181 l 125 176 q 127 165 125 170 q 127 154 128 159 l 127 154 q 126 148 127 151 q 125 141 125 144 l 125 141 q 127 125 125 133 q 129 108 129 116 z m 103 188 l 103 188 q 107 206 105 197 q 106 224 108 214 l 106 224 q 104 230 105 227 q 101 237 102 233 l 101 237 q 99 244 99 240 q 96 249 99 247 l 96 249 q 90 248 93 250 q 84 243 86 245 l 84 243 q 80 233 78 238 q 82 222 81 227 l 82 222 q 83 202 84 212 q 89 185 82 192 l 89 185 q 103 188 93 186 z"}}}
